<?xml version="1.0" encoding="UTF-8" standalone="no"?>
<svg
   xmlns:dc="http://purl.org/dc/elements/1.1/"
   xmlns:cc="http://creativecommons.org/ns#"
   xmlns:rdf="http://www.w3.org/1999/02/22-rdf-syntax-ns#"
   xmlns:svg="http://www.w3.org/2000/svg"
   xmlns="http://www.w3.org/2000/svg"
   xmlns:sodipodi="http://sodipodi.sourceforge.net/DTD/sodipodi-0.dtd"
   xmlns:inkscape="http://www.inkscape.org/namespaces/inkscape"
   width="242.39999"
   height="29.6"
   version="1.1"
   id="svg30"
   sodipodi:docname="3ds_.svg"
   inkscape:version="1.0.2 (e86c870879, 2021-01-15)">
  <metadata
     id="metadata36">
    <rdf:RDF>
      <cc:Work
         rdf:about="">
        <dc:format>image/svg+xml</dc:format>
        <dc:type
           rdf:resource="http://purl.org/dc/dcmitype/StillImage" />
        <dc:title></dc:title>
      </cc:Work>
    </rdf:RDF>
  </metadata>
  <defs
     id="defs34" />
  <sodipodi:namedview
     pagecolor="#ffffff"
     bordercolor="#666666"
     borderopacity="1"
     objecttolerance="10"
     gridtolerance="10"
     guidetolerance="10"
     inkscape:pageopacity="0"
     inkscape:pageshadow="2"
     inkscape:window-width="2560"
     inkscape:window-height="1360"
     id="namedview32"
     showgrid="false"
     fit-margin-top="0"
     fit-margin-left="0"
     fit-margin-right="0"
     fit-margin-bottom="0"
     inkscape:zoom="5.104"
     inkscape:cx="125.3"
     inkscape:cy="14.5"
     inkscape:window-x="0"
     inkscape:window-y="40"
     inkscape:window-maximized="1"
     inkscape:current-layer="svg30"
     inkscape:document-rotation="0" />
  <g
     id="g905">
    <path
       d="m 130.9,26.5 c 0,0.3 -0.3,0.6 -0.6,0.6 h -10.9 c -0.3,0 -0.6,-0.3 -0.6,-0.6 v -7.9 c 0,-0.3 0.3,-0.6 0.6,-0.6 h 10.9 c 0.3,0 0.6,0.3 0.6,0.6 z m -0.5,-10.9 -11.1,0.001 c -1.6,0 -2.9,1.3 -2.9,2.9 v 7.9 c 0,1.6 1.3,2.9 2.9,2.9 h 11.1 c 1.6,0 2.9,-1.3 2.9,-2.9 v -7.9 c 0,-1.6 -1.3,-2.9 -2.9,-2.9"
       fill="#a09d9e"
       id="path2" />
    <path
       d="M 2.6,3.8 V 14 H 0 V 0.2 H 2.2 L 12.6,10.3 V 0.2 h 2 0.5 V 14 h -2 z"
       fill="#231f20"
       id="path4" />
    <path
       d="M 28.3,3.8 V 14 H 25.7 V 0.2 h 2.2 L 38.3,10.3 V 0.2 h 2 0.5 V 14 h -2 z"
       fill="#231f20"
       id="path6" />
    <path
       d="M 81.4,3.8 V 14 H 78.8 V 0.2 H 81 L 91.4,10.3 V 0.2 h 2 0.5 V 14 h -2 z"
       fill="#231f20"
       id="path8" />
    <path
       d="m 21.2,0.2 h 0.5 V 14 H 19.1 V 0.2 Z"
       fill="#231f20"
       id="path10" />
    <path
       d="m 58.2,0.2 h 0.5 V 2.6 H 52.5 V 14 H 49.8 V 2.6 H 43.6 V 0.2 h 14.5 z"
       fill="#231f20"
       id="path12" />
    <path
       d="M 74.5,0.2 H 75 V 2.6 H 64.1 v 3.1 h 8.5 v 2.4 h -8.5 v 3.6 H 75 v 2.4 H 61.5 V 0.3 h 13 z"
       fill="#231f20"
       id="path14" />
    <path
       d="m 108.1,11.6 h -7.8 v -9 h 0.1 7.8 c 2.5,0 3.3,2.4 3.3,4.5 0,2.1 -0.9,4.5 -3.3,4.5 m 4.2,-9.4 c -1,-1.3 -2.5,-2 -4.3,-2 H 97.9 V 14 h 10.2 c 1.8,0 3.3,-0.7 4.3,-2 0.9,-1.2 1.4,-2.9 1.4,-4.9 0,-2 -0.5,-3.7 -1.4,-4.9"
       fill="#231f20"
       id="path16" />
    <path
       d="m 130.9,11.1 c 0,0.3 -0.3,0.6 -0.6,0.6 h -10.9 c -0.3,0 -0.6,-0.3 -0.6,-0.6 V 3.2 c 0,-0.3 0.3,-0.6 0.6,-0.6 h 10.9 c 0.3,0 0.6,0.3 0.6,0.6 z M 130.4,0.2 h -11.1 c -1.6,0 -2.9,1.3 -2.9,2.9 v 8 c 0,1.6 1.3,2.9 2.9,2.9 h 11.1 c 1.6,0 2.9,-1.3 2.9,-2.9 v -8 c 0,-1.6 -1.3,-2.9 -2.9,-2.9"
       fill="#231f20"
       id="path18" />
    <path
       d="m 213.4,23.7 c 2.6,1 8.2,1.9 12.6,1.9 4.8,0 6.8,-1.6 6.8,-3.7 0,-1.8 -1.8,-2.9 -7.1,-4.9 -7.1,-2.6 -12.2,-4.7 -12.2,-9.3 0,-4.8 6.2,-7.6 15.7,-7.6 5.1,0 6.8,0.3 10.1,0.9 V 5.6 C 236.1,5 233.3,4 228.9,4 c -4.7,0 -6.7,1.5 -6.7,3 0,2.2 3.1,3.3 8.5,5.2 7.5,2.7 11.7,4.8 11.7,9.3 0,4.7 -5.2,8 -17.1,8 -4.8,0 -8.2,-0.3 -11.9,-0.9 z"
       fill="#231f20"
       id="path20" />
    <path
       id="path22"
       d="m 188.3,4.1 c -1.86667,0 -3.73333,0 -5.6,0 0,7.1 0,14.2 0,21.3 4.73777,-0.08142 9.71254,0.478707 14.11601,-1.663923 3.24025,-1.430936 5.5141,-4.740472 5.56795,-8.298592 0.307,-3.647166 -1.47054,-7.4404177 -4.73599,-9.2140719 C 194.83722,4.5864268 191.50653,4.1103127 188.3,4.1 Z m 15.1,23.3 c -4.94247,2.021259 -10.37121,2.150487 -15.63925,2.1 -4.85359,0 -9.70717,0 -14.56075,0 0,-9.766667 0,-19.5333333 0,-29.3 6.52424,0.026485 13.05019,-0.0558094 19.57325,0.0466267 4.98327,0.28144116 10.24372,1.0085943 14.32123,4.137775 3.50563,2.4387005 5.63204,6.6738833 5.399,10.9476633 -0.0313,4.408984 -2.66479,8.505708 -6.39096,10.759175 -0.831,0.533332 -1.70432,0.999239 -2.60252,1.40876" />
    <path
       d="m 160.8,13.4 c 0,0 8.2,-1.3 8.2,-6.4 0,-5 -8.7,-7 -18,-7 -8.4,0 -13.9,1 -13.9,1 v 4.5 c 3.8,-0.9 7.4,-1.7 12.4,-1.7 5.3,0 9.4,1.6 9.4,3.8 0,2.7 -4,4.3 -12.7,4.3 h -4 V 16 h 3.7 c 9.1,0 14.3,1.4 14.3,4.7 0,3 -4.6,4.8 -10.4,4.8 -5,0 -9.6,-1.1 -13.4,-2.1 v 4.9 c 1.8,0.3 6.6,1.3 15.4,1.3 9.8,0 18.4,-3.2 18.4,-8.7 0,-4.7 -5.9,-7.4 -9.4,-7.4"
       fill="#cf181f"
       id="path24" />
  </g>
</svg>
