<?xml version="1.0" encoding="UTF-8" standalone="no"?>
<svg
   xmlns:dc="http://purl.org/dc/elements/1.1/"
   xmlns:cc="http://creativecommons.org/ns#"
   xmlns:rdf="http://www.w3.org/1999/02/22-rdf-syntax-ns#"
   xmlns:svg="http://www.w3.org/2000/svg"
   xmlns="http://www.w3.org/2000/svg"
   xmlns:sodipodi="http://sodipodi.sourceforge.net/DTD/sodipodi-0.dtd"
   xmlns:inkscape="http://www.inkscape.org/namespaces/inkscape"
   width="242.39999"
   height="29.6"
   version="1.1"
   id="svg30"
   sodipodi:docname="3ds.svg"
   inkscape:version="1.0.2 (e86c870879, 2021-01-15)">
  <metadata
     id="metadata36">
    <rdf:RDF>
      <cc:Work
         rdf:about="">
        <dc:format>image/svg+xml</dc:format>
        <dc:type
           rdf:resource="http://purl.org/dc/dcmitype/StillImage" />
        <dc:title></dc:title>
      </cc:Work>
    </rdf:RDF>
  </metadata>
  <defs
     id="defs34" />
  <sodipodi:namedview
     pagecolor="#ffffff"
     bordercolor="#666666"
     borderopacity="1"
     objecttolerance="10"
     gridtolerance="10"
     guidetolerance="10"
     inkscape:pageopacity="0"
     inkscape:pageshadow="2"
     inkscape:window-width="2560"
     inkscape:window-height="1360"
     id="namedview32"
     showgrid="false"
     fit-margin-top="0"
     fit-margin-left="0"
     fit-margin-right="0"
     fit-margin-bottom="0"
     inkscape:zoom="5.104"
     inkscape:cx="125.3"
     inkscape:cy="14.5"
     inkscape:window-x="0"
     inkscape:window-y="40"
     inkscape:window-maximized="1"
     inkscape:current-layer="svg30" />
  <g
     id="g873"
     transform="translate(0.3,-0.5)">
    <path
       d="m 130.6,27 c 0,0.3 -0.3,0.6 -0.6,0.6 h -10.9 c -0.3,0 -0.6,-0.3 -0.6,-0.6 v -7.9 c 0,-0.3 0.3,-0.6 0.6,-0.6 H 130 c 0.3,0 0.6,0.3 0.6,0.6 z M 130.1,16.1 119,16.101 c -1.6,0 -2.9,1.3 -2.9,2.9 v 7.9 c 0,1.6 1.3,2.9 2.9,2.9 h 11.1 c 1.6,0 2.9,-1.3 2.9,-2.9 v -7.9 c 0,-1.6 -1.3,-2.9 -2.9,-2.9"
       fill="#a09d9e"
       id="path2" />
    <path
       d="M 2.3,4.3 V 14.5 H -0.3 V 0.7 H 1.9 L 12.3,10.8 V 0.7 h 2 0.5 v 13.8 h -2 z"
       fill="#231f20"
       id="path4" />
    <path
       d="M 28,4.3 V 14.5 H 25.4 V 0.7 h 2.2 L 38,10.8 V 0.7 h 2 0.5 v 13.8 h -2 z"
       fill="#231f20"
       id="path6" />
    <path
       d="M 81.1,4.3 V 14.5 H 78.5 V 0.7 h 2.2 L 91.1,10.8 V 0.7 h 2 0.5 v 13.8 h -2 z"
       fill="#231f20"
       id="path8" />
    <path
       d="m 20.9,0.7 h 0.5 V 14.5 H 18.8 V 0.7 Z"
       fill="#231f20"
       id="path10" />
    <path
       d="m 57.9,0.7 h 0.5 V 3.1 H 52.2 V 14.5 H 49.5 V 3.1 H 43.3 V 0.7 h 14.5 z"
       fill="#231f20"
       id="path12" />
    <path
       d="m 74.2,0.7 h 0.5 V 3.1 H 63.8 v 3.1 h 8.5 v 2.4 h -8.5 v 3.6 h 10.9 v 2.4 H 61.2 V 0.8 h 13 z"
       fill="#231f20"
       id="path14" />
    <path
       d="M 107.8,12.1 H 100 v -9 h 0.1 7.8 c 2.5,0 3.3,2.4 3.3,4.5 0,2.1 -0.9,4.5 -3.3,4.5 m 4.2,-9.4 c -1,-1.3 -2.5,-2 -4.3,-2 H 97.6 v 13.8 h 10.2 c 1.8,0 3.3,-0.7 4.3,-2 0.9,-1.2 1.4,-2.9 1.4,-4.9 0,-2 -0.5,-3.7 -1.4,-4.9"
       fill="#231f20"
       id="path16" />
    <path
       d="m 130.6,11.6 c 0,0.3 -0.3,0.6 -0.6,0.6 h -10.9 c -0.3,0 -0.6,-0.3 -0.6,-0.6 V 3.7 c 0,-0.3 0.3,-0.6 0.6,-0.6 H 130 c 0.3,0 0.6,0.3 0.6,0.6 z M 130.1,0.7 H 119 c -1.6,0 -2.9,1.3 -2.9,2.9 v 8 c 0,1.6 1.3,2.9 2.9,2.9 h 11.1 c 1.6,0 2.9,-1.3 2.9,-2.9 v -8 C 133,2 131.7,0.7 130.1,0.7"
       fill="#231f20"
       id="path18" />
    <path
       d="m 213.1,24.2 c 2.6,1 8.2,1.9 12.6,1.9 4.8,0 6.8,-1.6 6.8,-3.7 0,-1.8 -1.8,-2.9 -7.1,-4.9 -7.1,-2.6 -12.2,-4.7 -12.2,-9.3 0,-4.8 6.2,-7.6 15.7,-7.6 5.1,0 6.8,0.3 10.1,0.9 v 4.6 c -3.2,-0.6 -6,-1.6 -10.4,-1.6 -4.7,0 -6.7,1.5 -6.7,3 0,2.2 3.1,3.3 8.5,5.2 7.5,2.7 11.7,4.8 11.7,9.3 0,4.7 -5.2,8 -17.1,8 -4.8,0 -8.2,-0.3 -11.9,-0.9 z"
       fill="#231f20"
       id="path20" />
    <path
       d="m 188,4.6 h -5.6 v 21.3 h 5.6 c 8.6,0 14.1,-3.7 14.1,-10.6 0,-6.9 -5.4,-10.7 -14.1,-10.7 m 15.1,23.3 c -2.8,1.3 -8,2.1 -12.6,2.1 H 172.9 V 0.7 h 17.6 c 4.6,0 9.9,0.8 12.7,2.1 6.8,3.1 9,7.9 9,12.6 0,4.6 -2.2,9.5 -9,12.6"
       fill="#231f20"
       id="path22" />
    <path
       d="m 160.5,13.9 c 0,0 8.2,-1.3 8.2,-6.4 0,-5 -8.7,-7 -18,-7 -8.4,0 -13.9,1 -13.9,1 V 6 c 3.8,-0.9 7.4,-1.7 12.4,-1.7 5.3,0 9.4,1.6 9.4,3.8 0,2.7 -4,4.3 -12.7,4.3 h -4 v 4.1 h 3.7 c 9.1,0 14.3,1.4 14.3,4.7 0,3 -4.6,4.8 -10.4,4.8 -5,0 -9.6,-1.1 -13.4,-2.1 v 4.9 c 1.8,0.3 6.6,1.3 15.4,1.3 9.8,0 18.4,-3.2 18.4,-8.7 0,-4.7 -5.9,-7.4 -9.4,-7.4"
       fill="#cf181f"
       id="path24" />
  </g>
</svg>
