<?xml version="1.0" encoding="UTF-8" standalone="no"?>
<svg
   xmlns:dc="http://purl.org/dc/elements/1.1/"
   xmlns:cc="http://creativecommons.org/ns#"
   xmlns:rdf="http://www.w3.org/1999/02/22-rdf-syntax-ns#"
   xmlns:svg="http://www.w3.org/2000/svg"
   xmlns="http://www.w3.org/2000/svg"
   xmlns:sodipodi="http://sodipodi.sourceforge.net/DTD/sodipodi-0.dtd"
   xmlns:inkscape="http://www.inkscape.org/namespaces/inkscape"
   width="3493.8228"
   height="657.00568"
   viewBox="0 0 269.38212 50.656715"
   version="1.1"
   id="svg8"
   sodipodi:docname="gamecube.svg"
   inkscape:version="1.0.2 (e86c870879, 2021-01-15)">
  <metadata
     id="metadata14">
    <rdf:RDF>
      <cc:Work
         rdf:about="">
        <dc:format>image/svg+xml</dc:format>
        <dc:type
           rdf:resource="http://purl.org/dc/dcmitype/StillImage" />
        <dc:title></dc:title>
      </cc:Work>
    </rdf:RDF>
  </metadata>
  <defs
     id="defs12" />
  <sodipodi:namedview
     pagecolor="#ffffff"
     bordercolor="#666666"
     borderopacity="1"
     objecttolerance="10"
     gridtolerance="10"
     guidetolerance="10"
     inkscape:pageopacity="0"
     inkscape:pageshadow="2"
     inkscape:window-width="2560"
     inkscape:window-height="1360"
     id="namedview10"
     showgrid="false"
     fit-margin-top="0"
     fit-margin-left="0"
     fit-margin-right="0"
     fit-margin-bottom="0"
     inkscape:zoom="0.28510545"
     inkscape:cx="2019.3279"
     inkscape:cy="183.92551"
     inkscape:window-x="0"
     inkscape:window-y="40"
     inkscape:window-maximized="1"
     inkscape:current-layer="svg8"
     inkscape:document-rotation="0" />
  <path
     id="path886"
     style="clip-rule:evenodd;fill-rule:evenodd;stroke-width:1.19866"
     d="m 221.49442,14.923983 v 20.809968 h 16.8544 c 4.41826,-0.05154 6.57584,-1.491216 6.57584,-4.420739 V 28.79609 c 0,-1.746448 -0.7708,-3.031413 -2.36261,-3.750611 1.43719,-0.67005 2.15645,-1.797987 2.15645,-3.392204 v -2.412913 c 0.0515,-1.439592 -0.35846,-2.571092 -1.23108,-3.237548 -0.82228,-0.719196 -2.10717,-1.078831 -3.85362,-1.078831 z m 5.80632,4.214429 h 10.38036 c 0.76954,-0.0012 1.28262,0.102019 1.43724,0.205104 0.20617,0.203774 0.3092,0.409816 0.25766,0.719071 v 1.901206 a 0.66765361,0.66765361 0 0 1 -0.25766,0.667569 l -1.43724,0.25766 h -10.38036 z m 0,7.963985 h 10.43201 c 0.77074,0 1.23103,0.100625 1.48874,0.255252 0.20617,0.206169 0.30917,0.515502 0.30916,1.027328 v 1.491149 c 0,0.461486 -0.10299,0.822249 -0.30916,0.975676 -0.25771,0.203773 -0.7192,0.306904 -1.48874,0.306904 h -10.43201 z" />
  <path
     style="clip-rule:evenodd;fill-rule:evenodd;stroke-width:1.19866"
     d="M 83.896669,19.444136 V 14.923989 H 64.320154 c -1.386849,0 -2.518384,0.154628 -3.339467,0.463882 -0.82228,0.358399 -1.386849,0.873823 -1.747646,1.643363 -0.359598,0.770739 -0.514225,1.797991 -0.514225,3.082953 v 10.429541 c 0,1.284965 0.154627,2.313414 0.514225,3.082955 0.359598,0.719194 0.924167,1.282565 1.747646,1.59182 0.822281,0.360797 1.952618,0.515423 3.339467,0.463881 h 14.232889 c 2.054503,0.05154 3.494094,-0.309255 4.366718,-1.078794 0.822281,-0.82228 1.233422,-2.158786 1.181879,-4.059862 V 23.197142 H 70.640688 v 4.366718 h 7.810469 v 3.44375 H 64.526324 V 19.445336 h 19.370345 z"
     id="path908" />
  <path
     style="clip-rule:evenodd;fill-rule:evenodd;stroke-width:1.19866"
     d="m 134.24999,14.923989 -8.83772,14.694373 -8.78618,-14.694373 H 111.334 V 32.032464 L 101.00634,14.923989 H 95.817343 L 83.435185,35.682383 H 98.951839 V 31.00761 h -6.936645 l 6.42242,-10.330053 8.683096,15.004826 h 9.55692 v -11.09959 l 6.62859,11.09959 h 4.26483 l 6.67894,-11.09959 v 11.09959 h 5.34362 V 14.923989 Z"
     id="path906" />
  <path
     style="clip-rule:evenodd;fill-rule:evenodd;stroke-width:1.19866"
     d="m 164.2045,19.291906 v -4.367917 h -22.04216 v 20.758394 h 22.24833 V 31.00761 h -16.44202 v -3.905235 h 9.45503 v -4.369116 h -9.45503 v -3.441353 z"
     id="path896" />
  <path
     style="clip-rule:evenodd;fill-rule:evenodd;stroke-width:1.19866"
     d="m 191.95108,17.030035 c -0.36079,-0.770738 -0.97571,-1.284963 -1.74645,-1.643362 -0.82467,-0.309254 -1.95261,-0.463882 -3.34066,-0.463882 h -12.69141 c -1.4372,0 -2.51719,0.154628 -3.33827,0.463882 -0.82228,0.358399 -1.43959,0.873822 -1.74885,1.643362 -0.3584,0.770738 -0.56456,1.79799 -0.51302,3.082954 v 10.42954 c -0.0515,1.284964 0.15462,2.313415 0.51302,3.082954 0.30926,0.719197 0.92657,1.282567 1.74885,1.591821 0.82228,0.360797 1.90107,0.515424 3.33827,0.463882 h 12.69141 c 1.38805,0.05154 2.51719,-0.103085 3.34066,-0.463882 a 3.3274802,3.3274802 0 0 0 1.74645,-1.591821 c 0.30686,-0.770739 0.51303,-1.79799 0.51303,-3.082953 v -3.80215 l -5.80631,0.05154 v 4.214487 h -12.33062 v -11.51193 h 12.33062 v 3.701463 h 5.80631 v -3.082953 c 0,-1.336506 -0.20617,-2.363758 -0.51303,-3.082954 z"
     id="path894" />
  <path
     style="clip-rule:evenodd;fill-rule:evenodd;stroke-width:1.19866"
     d="m 218.97727,14.923989 h -5.80631 V 31.00761 H 200.58263 V 14.923989 h -5.80631 v 15.619739 c -0.0515,1.284963 0.15463,2.313414 0.51303,3.082955 0.30925,0.719194 0.92417,1.282565 1.74885,1.59182 0.82228,0.360797 1.90107,0.515423 3.33826,0.463881 h 12.94913 c 1.43719,0.05154 2.56873,-0.103084 3.38981,-0.463881 a 3.1428865,3.1428865 0 0 0 1.74645,-1.59182 c 0.36079,-0.770739 0.51542,-1.79799 0.51542,-3.082955 z"
     id="path892" />
  <path
     style="clip-rule:evenodd;fill-rule:evenodd;stroke-width:1.19866"
     d="m 269.17595,19.291906 v -4.367917 h -22.04216 v 20.758394 h 22.24833 V 31.00761 H 252.9401 v -3.905235 h 9.45383 v -4.369116 h -9.45383 v -3.441353 z"
     id="path884" />
  <path
     style="fill:#211e1e;fill-opacity:1;fill-rule:nonzero;stroke:none;stroke-width:0.308421"
     d="M 32.100938,13.821053 21.908633,7.7430194 6.609336,16.54382 v 17.475103 l 15.298093,9.053803 15.145091,-8.863448 v -9.86461 l -4.907006,2.989021 v 4.178123 L 21.921886,37.147694 12.01752,31.519039 V 19.32562 l 9.851357,-6.012978 10.160979,6.410552 11.848856,-7.198467 V 37.681406 L 21.932729,50.656715 h -0.0506 L 0,37.687431 V 12.540389 L 21.907429,0 38.876532,9.7055794 32.100938,13.821053"
     id="path843" />
</svg>
