<?xml version="1.0" encoding="UTF-8" standalone="no"?>
<svg
   xmlns:dc="http://purl.org/dc/elements/1.1/"
   xmlns:cc="http://creativecommons.org/ns#"
   xmlns:rdf="http://www.w3.org/1999/02/22-rdf-syntax-ns#"
   xmlns:svg="http://www.w3.org/2000/svg"
   xmlns="http://www.w3.org/2000/svg"
   xmlns:sodipodi="http://sodipodi.sourceforge.net/DTD/sodipodi-0.dtd"
   xmlns:inkscape="http://www.inkscape.org/namespaces/inkscape"
   version="1.0"
   width="2228.3066pt"
   height="484.69104pt"
   viewBox="0 0 2228.3066 484.69104"
   preserveAspectRatio="xMidYMid meet"
   id="svg40"
   sodipodi:docname="Nintendo_Switch_Logo.svg"
   inkscape:version="1.0.2 (e86c870879, 2021-01-15)">
  <defs
     id="defs44" />
  <sodipodi:namedview
     pagecolor="#ffffff"
     bordercolor="#666666"
     borderopacity="1"
     objecttolerance="10"
     gridtolerance="10"
     guidetolerance="10"
     inkscape:pageopacity="0"
     inkscape:pageshadow="2"
     inkscape:window-width="2560"
     inkscape:window-height="1360"
     id="namedview42"
     showgrid="false"
     fit-margin-top="0"
     fit-margin-left="0"
     fit-margin-right="0"
     fit-margin-bottom="0"
     inkscape:zoom="0.21"
     inkscape:cx="2959.8585"
     inkscape:cy="132.46055"
     inkscape:window-x="0"
     inkscape:window-y="40"
     inkscape:window-maximized="1"
     inkscape:current-layer="svg40" />
  <metadata
     id="metadata2">
Created by potrace 1.13, written by Peter Selinger 2001-2015
<rdf:RDF>
  <cc:Work
     rdf:about="">
    <dc:format>image/svg+xml</dc:format>
    <dc:type
       rdf:resource="http://purl.org/dc/dcmitype/StillImage" />
    <dc:title></dc:title>
  </cc:Work>
</rdf:RDF>
</metadata>
  <g
     id="g944"
     transform="translate(433.73062,-137.77449)">
    <g
       id="g889"
       transform="translate(-626.85185,71.630394)">
      <path
         d="m 296.5,68.6 c -48.1,8.6 -86.8,44.2 -99,91 -4.4,16.9 -4.7,26.8 -4.2,157.9 0.3,120.4 0.4,123.2 2.4,132.5 11.1,50.1 46.7,85.8 97.3,97.6 6.6,1.5 15,1.8 69.1,2.1 56,0.4 61.8,0.3 63.3,-1.2 1.5,-1.5 1.6,-20.8 1.6,-239.6 0,-162.2 -0.3,-238.6 -1,-240 -1,-1.8 -2.7,-1.9 -61.3,-1.8 -47.6,0.1 -61.9,0.4 -68.2,1.5 z m 90.5,240 v 202.6 l -40.7,-0.5 c -37.5,-0.4 -41.5,-0.6 -49,-2.5 -32.2,-8.3 -56.1,-33.1 -62.8,-65.4 -2.2,-10.1 -2.2,-258.9 -0.1,-268.8 6,-28.1 25.5,-51.4 51.8,-61.9 13.2,-5.3 19.3,-5.9 62.1,-6 L 387,106 Z"
         id="path4"
         style="fill:#000000;stroke:none;stroke-width:0.1" />
      <path
         d="m 305.1,167.1 c -6.3,1.2 -15.9,6 -21,10.5 -10.5,9.1 -15.7,22 -14.9,37.2 0.4,7.9 0.9,10 4.1,16.4 4.7,9.7 11.8,16.8 21.5,21.6 6.7,3.3 8.4,3.7 17.1,4 7.9,0.3 10.7,0 16,-1.8 21.7,-7.3 34.8,-28.4 31.1,-50 -4.3,-25.7 -28.7,-42.9 -53.9,-37.9 z"
         id="path6"
         style="fill:#000000;stroke:none;stroke-width:0.1" />
      <path
         d="m 475.7,67.7 c -0.4,0.3 -0.7,108.7 -0.7,240.9 0,218.1 0.1,240.2 1.6,240.8 2.7,1 80.3,0.6 89.9,-0.4 40.6,-4.6 76.4,-29.3 95.9,-66 2.5,-4.7 5.8,-12.6 7.5,-17.5 C 676.2,446.7 676,451.7 676,308 676,193.3 675.8,176.2 674.4,168.9 664.5,116.8 624.8,77.5 572.6,68.5 565.6,67.3 554.8,67 520,67 c -24,0 -44,0.3 -44.3,0.7 z m 106.8,217.8 c 15.6,4.1 28.4,16 33.6,31.2 3.3,9.4 3.2,23.2 -0.1,31.8 -6.1,15.8 -18.1,26.9 -33.5,31 -25,6.5 -51.6,-8.6 -58.9,-33.4 -2.2,-7.6 -2.1,-20.4 0.4,-28.2 7.5,-24.5 33.5,-38.9 58.5,-32.4 z"
         id="path8"
         style="fill:#000000;stroke:none;stroke-width:0.1" />
    </g>
    <g
       id="g922"
       transform="translate(169.57202,69.087858)">
      <g
         id="g905"
         transform="matrix(2.299211,0,0,2.299211,-192.52228,-1359.5329)">
        <path
           d="m 749.3,622.4 c -15.5,5.1 -24.7,20 -22.1,36.2 1.6,10.4 7.6,18.6 16.8,23.3 12.5,6.2 25.8,4.6 35.8,-4.4 7.5,-6.8 10.7,-13.9 10.7,-24 0,-9.5 -2.8,-16.6 -9.1,-22.9 -7.9,-7.9 -22.1,-11.5 -32.1,-8.2 z M 767,637 c 6,3.1 9.3,8.1 9.8,14.9 0.6,8.9 -3.2,15.3 -11.1,18.6 -13.4,5.6 -28.6,-7.3 -24.8,-21.2 1.6,-6.2 4.3,-9.7 9.3,-12.2 5.4,-2.6 11.7,-2.7 16.8,-0.1 z"
           id="path10"
           style="fill:#000000;stroke:none;stroke-width:0.1" />
        <path
           d="m 79,653.5 v 30.6 l 6.3,-0.3 6.2,-0.3 0.5,-19.3 0.5,-19.3 14.5,19.5 14.5,19.6 6,-0.2 6,-0.3 v -30 -30 l -6.2,-0.3 -6.3,-0.3 v 19.7 19.8 L 106.3,642.7 91.5,623 H 85.3 79 Z"
           id="path12"
           style="fill:#000000;stroke:none;stroke-width:0.1" />
        <path
           d="M 179,653.5 V 684 h 6.5 6.5 V 653.5 623 h -6.5 -6.5 z"
           id="path14"
           style="fill:#000000;stroke:none;stroke-width:0.1" />
        <path
           d="m 237.5,624.3 c -0.3,0.7 -0.4,14.3 -0.3,30.2 l 0.3,29 6.3,0.3 6.2,0.3 v -20.2 -20.3 l 15,20.2 15,20.2 h 6 6 V 653.5 623 h -6.5 -6.5 l -0.2,19.2 -0.3,19.2 -14.4,-19.2 -14.3,-19.2 h -5.9 c -3.9,0 -6.1,0.4 -6.4,1.3 z"
           id="path16"
           style="fill:#000000;stroke:none;stroke-width:0.1" />
        <path
           d="m 334.7,623.7 c -0.4,0.3 -0.7,3.3 -0.7,6.5 v 5.8 h 10 10 v 24 24 h 6.5 6.5 v -24 -24 h 9.5 9.5 v -6.5 -6.5 h -25.3 c -14,0 -25.7,0.3 -26,0.7 z"
           id="path18"
           style="fill:#000000;stroke:none;stroke-width:0.1" />
        <path
           d="M 430,653.5 V 684 h 23.5 23.5 v -6 -6 H 459.5 442 v -7 -7 h 16 16 v -5.5 -5.5 h -16 -16 v -6 -6 l 17.3,-0.2 17.2,-0.3 0.3,-5.8 0.3,-5.7 H 453.5 430 Z"
           id="path20"
           style="fill:#000000;stroke:none;stroke-width:0.1" />
        <path
           d="m 526.5,624.3 c -0.3,0.7 -0.4,14.3 -0.3,30.2 l 0.3,29 6.3,0.3 6.2,0.3 v -20.3 -20.2 l 15,20.2 15,20.2 h 6 6 V 653.5 623 h -6.5 -6.5 l -0.2,19.2 -0.3,19.2 -14.4,-19.2 -14.3,-19.2 h -5.9 c -3.9,0 -6.1,0.4 -6.4,1.3 z"
           id="path22"
           style="fill:#000000;stroke:none;stroke-width:0.1" />
        <path
           d="M 632,653.4 V 684 h 13.3 c 15.4,0 22.7,-1.5 29.3,-6.1 19.5,-13.4 16.5,-42.1 -5.4,-52.2 -4.1,-1.9 -6.9,-2.2 -20.9,-2.5 L 632,622.8 Z m 32.7,-15.5 c 8.4,3.9 12,14.6 7.8,23.5 -3.2,6.6 -9.7,9.6 -21.1,9.6 H 644 V 653.5 636 h 8.3 c 5.9,0 9.4,0.6 12.4,1.9 z"
           id="path24"
           style="fill:#000000;stroke:none;stroke-width:0.1" />
        <path
           d="m 601.8,711.1 c -13.9,1.8 -26.3,8.3 -36.5,19.2 -22.3,24 -21.6,60.5 1.7,83.7 8.6,8.7 16.4,13.2 27.6,16 18.4,4.7 37,1 52.2,-10.5 5.9,-4.4 13.6,-13 13,-14.5 -0.2,-0.4 -4.3,-4.1 -9.2,-8.4 l -8.8,-7.7 -2.7,3.5 c -12.9,16.9 -39,18.7 -54.1,3.6 -2.2,-2.2 -5.2,-6.3 -6.7,-9.2 -2.5,-4.8 -2.8,-6.3 -2.8,-15.3 0,-8.6 0.3,-10.7 2.5,-15 7.4,-15.3 25.7,-23.6 41.6,-19 7.4,2.1 14.4,6.5 18.8,11.8 l 3.4,4.1 4.4,-3.6 c 2.4,-1.9 6.6,-5.6 9.3,-8 l 5,-4.5 -3.9,-4.8 c -13,-15.8 -34,-24 -54.8,-21.4 z"
           id="path26"
           style="fill:#000000;stroke:none;stroke-width:0.1" />
        <path
           d="m 107.2,715 c -23.8,6.3 -36.1,22.2 -30.8,40.2 3.8,13.3 16.4,19.8 49.9,25.8 22.5,4 29.1,7.3 29.1,14.4 0,4.9 -2.9,8.5 -9.2,11.4 -5.4,2.5 -6.6,2.7 -20.2,2.7 -16.1,0 -22.4,-1.3 -34.3,-6.7 -3.7,-1.7 -6.9,-2.9 -7.1,-2.7 -1.2,1.5 -10.7,19.2 -10.4,19.4 1,1.1 17,6.9 23.6,8.7 11,2.9 34.5,3.6 46.5,1.4 22.4,-4.2 33.5,-14.5 34.5,-31.8 0.8,-14.3 -3.2,-21.7 -15.5,-28.1 -8.8,-4.6 -16.4,-6.8 -35.8,-10.7 -16.9,-3.3 -21.7,-4.9 -25.2,-8.2 -3.1,-2.9 -3.1,-8.1 0.1,-11.3 7.2,-7.2 33,-7.5 53,-0.5 3.3,1.1 6.3,1.7 6.7,1.3 0.7,-0.8 7.9,-17.7 7.9,-18.7 0,-0.9 -15.3,-5.4 -23.9,-7 -11.6,-2.2 -29.6,-2 -38.9,0.4 z"
           id="path28"
           style="fill:#000000;stroke:none;stroke-width:0.1" />
        <path
           d="m 192.4,715.7 c 0.3,1 7.3,25.9 15.6,55.3 8.3,29.4 15.3,54.3 15.6,55.2 0.5,1.6 2.1,1.8 14.4,1.8 h 13.9 l 1.1,-3.8 c 9.9,-35.8 19.9,-69.4 20.4,-68.2 0.3,0.8 5,17.2 10.4,36.5 l 9.8,35 14,0.3 14,0.3 15.9,-55.8 c 8.7,-30.7 16,-56.4 16.3,-57.1 0.3,-0.9 -2.5,-1.2 -12.2,-1.2 h -12.5 l -1.4,4.7 c -0.8,2.7 -5.6,20.7 -10.7,40 -5.2,19.4 -9.6,35.3 -10,35.3 -0.3,0 -5,-15.2 -10.4,-33.8 -5.4,-18.5 -10.7,-36.5 -11.8,-40 l -1.9,-6.3 -10.2,0.3 -10.2,0.3 -11.7,40 c -6.4,22 -11.7,40.2 -11.8,40.5 -0.1,0.3 -4.6,-15.9 -9.9,-36 -5.4,-20.1 -10.4,-38.4 -11,-40.8 l -1.2,-4.2 h -12.5 c -11.5,0 -12.5,0.1 -12,1.7 z"
           id="path30"
           style="fill:#000000;stroke:none;stroke-width:0.1" />
        <path
           d="m 382,771 v 57 h 13 13 l -0.2,-56.8 -0.3,-56.7 -12.7,-0.3 -12.8,-0.3 z"
           id="path32"
           style="fill:#000000;stroke:none;stroke-width:0.1" />
        <path
           d="M 435,726.5 V 739 h 18 18 V 783.5 828 H 483.5 496 V 783.5 739 l 17.8,-0.2 17.7,-0.3 v -12 -12 L 483.3,714.2 435,714 Z"
           id="path34"
           style="fill:#000000;stroke:none;stroke-width:0.1" />
        <path
           d="m 686,771 v 57 h 12 12 V 805.5 783 h 26.5 26.5 v 22.5 22.5 h 12 12 l -0.2,-56.8 -0.3,-56.7 -11.7,-0.3 -11.8,-0.3 V 736.5 759 H 736.5 710 V 736.5 714 h -12 -12 z"
           id="path36"
           style="fill:#000000;stroke:none;stroke-width:0.1" />
      </g>
    </g>
  </g>
</svg>
