solid OpenSCAD_Model
  facet normal -1 0 0
    outer loop
      vertex 0 9.3 0
      vertex 0 8.1 1
      vertex 0 9.3 15
    endloop
  endfacet
  facet normal -1 0 0
    outer loop
      vertex 0 9.3 0
      vertex 0 1.2 1
      vertex 0 8.1 1
    endloop
  endfacet
  facet normal -1 0 0
    outer loop
      vertex 0 0 0
      vertex 0 1.2 1
      vertex 0 9.3 0
    endloop
  endfacet
  facet normal -1 0 0
    outer loop
      vertex 0 0 15
      vertex 0 1.2 1
      vertex 0 0 0
    endloop
  endfacet
  facet normal -1 0 0
    outer loop
      vertex 0 1.2 1
      vertex 0 0 15
      vertex 0 1.2 15
    endloop
  endfacet
  facet normal -1 -0 0
    outer loop
      vertex 0 9.3 15
      vertex 0 8.1 1
      vertex 0 8.1 15
    endloop
  endfacet
  facet normal -0 0 1
    outer loop
      vertex 0 8.1 1
      vertex 80 1.2 1
      vertex 80 8.1 1
    endloop
  endfacet
  facet normal 0 0 1
    outer loop
      vertex 80 1.2 1
      vertex 0 8.1 1
      vertex 0 1.2 1
    endloop
  endfacet
  facet normal 1 0 0
    outer loop
      vertex 80 1.2 15
      vertex 80 0 15
      vertex 80 1.2 1
    endloop
  endfacet
  facet normal 1 0 0
    outer loop
      vertex 80 8.1 1
      vertex 80 9.3 15
      vertex 80 8.1 15
    endloop
  endfacet
  facet normal 1 0 0
    outer loop
      vertex 80 9.3 15
      vertex 80 8.1 1
      vertex 80 9.3 0
    endloop
  endfacet
  facet normal 1 -0 0
    outer loop
      vertex 80 1.2 1
      vertex 80 9.3 0
      vertex 80 8.1 1
    endloop
  endfacet
  facet normal 1 0 0
    outer loop
      vertex 80 1.2 1
      vertex 80 0 0
      vertex 80 9.3 0
    endloop
  endfacet
  facet normal 1 0 0
    outer loop
      vertex 80 0 0
      vertex 80 1.2 1
      vertex 80 0 15
    endloop
  endfacet
  facet normal 0 1 -0
    outer loop
      vertex 80 9.3 0
      vertex 0 9.3 15
      vertex 80 9.3 15
    endloop
  endfacet
  facet normal 0 1 0
    outer loop
      vertex 0 9.3 15
      vertex 80 9.3 0
      vertex 0 9.3 0
    endloop
  endfacet
  facet normal 0 0 -1
    outer loop
      vertex 0 0 0
      vertex 80 9.3 0
      vertex 80 0 0
    endloop
  endfacet
  facet normal -0 0 -1
    outer loop
      vertex 80 9.3 0
      vertex 0 0 0
      vertex 0 9.3 0
    endloop
  endfacet
  facet normal 0 -1 0
    outer loop
      vertex 0 0 0
      vertex 80 0 15
      vertex 0 0 15
    endloop
  endfacet
  facet normal 0 -1 -0
    outer loop
      vertex 80 0 15
      vertex 0 0 0
      vertex 80 0 0
    endloop
  endfacet
  facet normal -0 0 1
    outer loop
      vertex 0 1.2 15
      vertex 80 0 15
      vertex 80 1.2 15
    endloop
  endfacet
  facet normal 0 0 1
    outer loop
      vertex 80 0 15
      vertex 0 1.2 15
      vertex 0 0 15
    endloop
  endfacet
  facet normal 0 1 -0
    outer loop
      vertex 80 1.2 1
      vertex 0 1.2 15
      vertex 80 1.2 15
    endloop
  endfacet
  facet normal 0 1 0
    outer loop
      vertex 0 1.2 15
      vertex 80 1.2 1
      vertex 0 1.2 1
    endloop
  endfacet
  facet normal -0 0 1
    outer loop
      vertex 0 9.3 15
      vertex 80 8.1 15
      vertex 80 9.3 15
    endloop
  endfacet
  facet normal 0 0 1
    outer loop
      vertex 80 8.1 15
      vertex 0 9.3 15
      vertex 0 8.1 15
    endloop
  endfacet
  facet normal 0 -1 0
    outer loop
      vertex 0 8.1 1
      vertex 80 8.1 15
      vertex 0 8.1 15
    endloop
  endfacet
  facet normal 0 -1 -0
    outer loop
      vertex 80 8.1 15
      vertex 0 8.1 1
      vertex 80 8.1 1
    endloop
  endfacet
endsolid OpenSCAD_Model
