solid OpenSCAD_Model
  facet normal -1 0 0
    outer loop
      vertex 0 26.2 0
      vertex 0 24.6 1.6
      vertex 0 26.2 16.6
    endloop
  endfacet
  facet normal -1 0 0
    outer loop
      vertex 0 26.2 0
      vertex 0 1.6 1.6
      vertex 0 24.6 1.6
    endloop
  endfacet
  facet normal -1 0 0
    outer loop
      vertex 0 0 0
      vertex 0 1.6 1.6
      vertex 0 26.2 0
    endloop
  endfacet
  facet normal -1 0 0
    outer loop
      vertex 0 0 16.6
      vertex 0 1.6 1.6
      vertex 0 0 0
    endloop
  endfacet
  facet normal -1 0 0
    outer loop
      vertex 0 1.6 1.6
      vertex 0 0 16.6
      vertex 0 1.6 16.6
    endloop
  endfacet
  facet normal -1 -0 0
    outer loop
      vertex 0 26.2 16.6
      vertex 0 24.6 1.6
      vertex 0 24.6 16.6
    endloop
  endfacet
  facet normal -0 0 1
    outer loop
      vertex 0 24.6 1.6
      vertex 180 1.6 1.6
      vertex 180 24.6 1.6
    endloop
  endfacet
  facet normal 0 0 1
    outer loop
      vertex 180 1.6 1.6
      vertex 0 24.6 1.6
      vertex 0 1.6 1.6
    endloop
  endfacet
  facet normal 1 0 0
    outer loop
      vertex 180 1.6 16.6
      vertex 180 0 16.6
      vertex 180 1.6 1.6
    endloop
  endfacet
  facet normal 1 0 0
    outer loop
      vertex 180 24.6 1.6
      vertex 180 26.2 16.6
      vertex 180 24.6 16.6
    endloop
  endfacet
  facet normal 1 0 0
    outer loop
      vertex 180 26.2 16.6
      vertex 180 24.6 1.6
      vertex 180 26.2 0
    endloop
  endfacet
  facet normal 1 -0 0
    outer loop
      vertex 180 1.6 1.6
      vertex 180 26.2 0
      vertex 180 24.6 1.6
    endloop
  endfacet
  facet normal 1 0 0
    outer loop
      vertex 180 1.6 1.6
      vertex 180 0 0
      vertex 180 26.2 0
    endloop
  endfacet
  facet normal 1 0 0
    outer loop
      vertex 180 0 0
      vertex 180 1.6 1.6
      vertex 180 0 16.6
    endloop
  endfacet
  facet normal 0 1 -0
    outer loop
      vertex 180 26.2 0
      vertex 0 26.2 16.6
      vertex 180 26.2 16.6
    endloop
  endfacet
  facet normal 0 1 0
    outer loop
      vertex 0 26.2 16.6
      vertex 180 26.2 0
      vertex 0 26.2 0
    endloop
  endfacet
  facet normal 0 0 -1
    outer loop
      vertex 0 0 0
      vertex 180 26.2 0
      vertex 180 0 0
    endloop
  endfacet
  facet normal -0 0 -1
    outer loop
      vertex 180 26.2 0
      vertex 0 0 0
      vertex 0 26.2 0
    endloop
  endfacet
  facet normal 0 -1 0
    outer loop
      vertex 0 0 0
      vertex 180 0 16.6
      vertex 0 0 16.6
    endloop
  endfacet
  facet normal 0 -1 -0
    outer loop
      vertex 180 0 16.6
      vertex 0 0 0
      vertex 180 0 0
    endloop
  endfacet
  facet normal -0 0 1
    outer loop
      vertex 0 1.6 16.6
      vertex 180 0 16.6
      vertex 180 1.6 16.6
    endloop
  endfacet
  facet normal 0 0 1
    outer loop
      vertex 180 0 16.6
      vertex 0 1.6 16.6
      vertex 0 0 16.6
    endloop
  endfacet
  facet normal 0 1 -0
    outer loop
      vertex 180 1.6 1.6
      vertex 0 1.6 16.6
      vertex 180 1.6 16.6
    endloop
  endfacet
  facet normal 0 1 0
    outer loop
      vertex 0 1.6 16.6
      vertex 180 1.6 1.6
      vertex 0 1.6 1.6
    endloop
  endfacet
  facet normal -0 0 1
    outer loop
      vertex 0 26.2 16.6
      vertex 180 24.6 16.6
      vertex 180 26.2 16.6
    endloop
  endfacet
  facet normal 0 0 1
    outer loop
      vertex 180 24.6 16.6
      vertex 0 26.2 16.6
      vertex 0 24.6 16.6
    endloop
  endfacet
  facet normal 0 -1 0
    outer loop
      vertex 0 24.6 1.6
      vertex 180 24.6 16.6
      vertex 0 24.6 16.6
    endloop
  endfacet
  facet normal 0 -1 -0
    outer loop
      vertex 180 24.6 16.6
      vertex 0 24.6 1.6
      vertex 180 24.6 1.6
    endloop
  endfacet
endsolid OpenSCAD_Model
