<?xml version="1.0" encoding="UTF-8" standalone="no"?>
<!-- Generator: Adobe Illustrator 15.0.2, SVG Export Plug-In  -->
<svg xmlns:dc="http://purl.org/dc/elements/1.1/" xmlns:cc="http://creativecommons.org/ns#" xmlns:rdf="http://www.w3.org/1999/02/22-rdf-syntax-ns#" xmlns:svg="http://www.w3.org/2000/svg" xmlns="http://www.w3.org/2000/svg" xmlns:sodipodi="http://sodipodi.sourceforge.net/DTD/sodipodi-0.dtd" xmlns:inkscape="http://www.inkscape.org/namespaces/inkscape" enable-background="new 6.9335938 -0.1396484 175 36" xml:space="preserve" height="35.433071" width="138.18898" version="1.1" y="0px" x="0px" viewBox="6.9335938 -0.1396484 138.18897 35.433072" id="svg2" inkscape:version="0.48.4 r9939" sodipodi:docname="Xbox_One_no_X.svg"><sodipodi:namedview pagecolor="#ffffff" bordercolor="#666666" borderopacity="1" objecttolerance="10" gridtolerance="10" guidetolerance="10" inkscape:pageopacity="0" inkscape:pageshadow="2" inkscape:window-width="1600" inkscape:window-height="844" id="namedview24" showgrid="false" inkscape:zoom="5.9648947" inkscape:cx="101.1893" inkscape:cy="18" inkscape:window-x="-4" inkscape:window-y="-4" inkscape:window-maximized="1" inkscape:current-layer="svg2" units="cm"/><metadata id="metadata4"><rdf:RDF><cc:Work rdf:about=""><dc:format>image/svg+xml</dc:format><dc:type rdf:resource="http://purl.org/dc/dcmitype/StillImage"/><dc:title/></cc:Work></rdf:RDF></metadata>
<defs id="defs6">
</defs>
<polygon points="161.8979,24.92969 149.3628,7.899414 147.3081,7.895508 147.3081,28.61523 149.6128,28.61523 149.6128,11.97412 161.896,28.62891 164.2065,28.63086 164.2065,7.912109 161.8979,7.912109 " id="polygon8" transform="translate(-39.229528,-1.5729247)" style="fill:#6b6b6b"/>
<path d="m 96.094172,5.8582763 c -5.826172,0 -9.898438,4.4559997 -9.898438,10.8348997 0,6.3892 4.072266,10.8443 9.898438,10.8443 5.820308,0 9.878908,-4.4551 9.878908,-10.8443 0,-6.3789 -4.0586,-10.8348997 -9.878902,-10.8348997 m 0,19.4838997 c -4.4375,0 -7.548828,-3.5567 -7.548828,-8.649 0,-5.0878 3.111328,-8.6449997 7.548828,-8.6449997 4.431642,0 7.523442,3.5571997 7.523442,8.6449997 1e-4,5.0923 -3.0917,8.649 -7.523404,8.649" id="path10" inkscape:connector-curvature="0" style="fill:#6b6b6b"/>
<polygon points="169.1226,9.925293 181.3042,9.925293 181.3042,7.898438 166.7983,7.898438 166.7983,28.63281 181.4468,28.63281 181.4468,26.60449 169.1226,26.60449 169.1226,18.9375 180.5288,18.9375 180.5288,16.90918 169.1226,16.90918 " id="polygon12" transform="translate(-39.229528,-1.5729247)" style="fill:#6b6b6b"/>
<polygon points="103.6523,7.911621 106.3789,7.911621 112.3081,15.96582 118.2319,7.911621 120.9565,7.911621 113.687,17.78564 121.6558,28.65039 118.9312,28.65039 112.3081,19.65771 105.6885,28.65039 102.96,28.65039 110.9253,17.78564 " id="polygon14" transform="translate(-39.229528,-1.5729247)" style="fill:#177d3e"/>
<path d="m 43.237272,16.997376 c -0.432617,-0.3686 -0.902344,-0.6538 -1.358398,-0.8647 1.504883,-0.8169 2.492188,-2.3608 2.492188,-4.1519 0,-1.3271 -0.489258,-5.6410997 -6.741211,-5.6410997 h -8.420898 v 8.9399997 h -2.805664 c -0.365234,0.4741 -1.19043,1.6128 -1.505859,2.081 h 4.311523 v 9.7149 l 8.420898,9e-4 c 4.561523,0 7.396484,-2.3173 7.396484,-6.0537 0,-1.6328 -0.61719,-3.0209 -1.78906,-4.0253 m -11.7002,-8.4946997 h 6.092773 c 1.650391,0 4.411133,0.4107 4.411133,3.2958997 0,2.1812 -1.609375,3.481 -4.411133,3.481 H 31.537075 V 8.5027763 z m 6.09278,16.4106997 h -6.092773 v -7.5498 h 6.092773 c 2.310547,0 5.074219,0.6381 5.074219,3.6142 -10e-6,3.4219 -3.17774,3.9356 -5.07422,3.9356" id="path16" inkscape:connector-curvature="0" style="fill:#177d3e"/>
<path d="m 55.979452,5.8596763 c -5.824219,0 -9.895508,4.4560997 -9.895508,10.8349997 0,6.3887 4.071289,10.8418 9.895508,10.8418 5.820312,0 9.878906,-4.4531 9.878906,-10.8418 0,-6.3789 -4.0586,-10.8349997 -9.87892,-10.8349997 m 0,19.4833997 c -4.4375,0 -7.545898,-3.5566 -7.545898,-8.6484 0,-5.0879 3.108398,-8.6434997 7.545898,-8.6434997 4.430664,0 7.523438,3.5555997 7.523438,8.6434997 0,5.0918 -3.09275,8.6484 -7.52342,8.6484" id="path18" inkscape:connector-curvature="0" style="fill:#177d3e"/>
<polygon points="52.02832,7.912109 49.31055,7.912109 56.58008,17.78516 48.60938,28.64844 51.33984,28.64844 57.95703,19.6582 64.57812,28.64844 67.30566,28.64844 59.33398,17.78516 66.6084,7.912109 63.88281,7.912109 57.95312,15.96826 " id="polygon20" transform="translate(-39.229528,-1.5729247)" style="fill:#177d3e"/>

</svg>