solid OpenSCAD_Model
  facet normal 0 0 1
    outer loop
      vertex 74 -14.75 2
      vertex 86.05 55.05 2
      vertex 74 27.25 2
    endloop
  endfacet
  facet normal 0 0 1
    outer loop
      vertex 86.05 55.05 2
      vertex 32 27.25 2
      vertex 74 27.25 2
    endloop
  endfacet
  facet normal 0 0 1
    outer loop
      vertex 32 27.25 2
      vertex -86.05 55.05 2
      vertex 32 -14.75 2
    endloop
  endfacet
  facet normal -0 0 1
    outer loop
      vertex -86.05 55.05 2
      vertex 32 27.25 2
      vertex 86.05 55.05 2
    endloop
  endfacet
  facet normal 0 0 1
    outer loop
      vertex 86.05 55.05 2
      vertex 74 -14.75 2
      vertex 86.05 -55.05 2
    endloop
  endfacet
  facet normal -0 0 1
    outer loop
      vertex 32 -14.75 2
      vertex 86.05 -55.05 2
      vertex 74 -14.75 2
    endloop
  endfacet
  facet normal 0 0 1
    outer loop
      vertex -86.05 -55.05 2
      vertex 32 -14.75 2
      vertex -86.05 55.05 2
    endloop
  endfacet
  facet normal 0 0 1
    outer loop
      vertex 32 -14.75 2
      vertex -86.05 -55.05 2
      vertex 86.05 -55.05 2
    endloop
  endfacet
  facet normal 0 0 1
    outer loop
      vertex 89.8 58.8 2
      vertex 87.85 56.85 2
      vertex 89.8 -58.8 2
    endloop
  endfacet
  facet normal 0 0 1
    outer loop
      vertex 89.8 58.8 2
      vertex -87.85 56.85 2
      vertex 87.85 56.85 2
    endloop
  endfacet
  facet normal 0 0 1
    outer loop
      vertex -87.85 56.85 2
      vertex -89.8 58.8 2
      vertex -87.85 -56.85 2
    endloop
  endfacet
  facet normal -0 0 1
    outer loop
      vertex -89.8 58.8 2
      vertex -87.85 56.85 2
      vertex 89.8 58.8 2
    endloop
  endfacet
  facet normal -0 0 1
    outer loop
      vertex 87.85 -56.85 2
      vertex 89.8 -58.8 2
      vertex 87.85 56.85 2
    endloop
  endfacet
  facet normal -0 0 1
    outer loop
      vertex -87.85 -56.85 2
      vertex 89.8 -58.8 2
      vertex 87.85 -56.85 2
    endloop
  endfacet
  facet normal 0 0 1
    outer loop
      vertex -87.85 -56.85 2
      vertex -89.8 -58.8 2
      vertex 89.8 -58.8 2
    endloop
  endfacet
  facet normal 0 0 1
    outer loop
      vertex -89.8 -58.8 2
      vertex -87.85 -56.85 2
      vertex -89.8 58.8 2
    endloop
  endfacet
  facet normal 0 0 1
    outer loop
      vertex 87.85 56.85 16
      vertex 86.05 55.05 16
      vertex 87.85 -56.85 16
    endloop
  endfacet
  facet normal 0 0 1
    outer loop
      vertex 87.85 56.85 16
      vertex -86.05 55.05 16
      vertex 86.05 55.05 16
    endloop
  endfacet
  facet normal 0 0 1
    outer loop
      vertex -86.05 55.05 16
      vertex -87.85 56.85 16
      vertex -86.05 -55.05 16
    endloop
  endfacet
  facet normal -0 0 1
    outer loop
      vertex -87.85 56.85 16
      vertex -86.05 55.05 16
      vertex 87.85 56.85 16
    endloop
  endfacet
  facet normal -0 0 1
    outer loop
      vertex 86.05 -55.05 16
      vertex 87.85 -56.85 16
      vertex 86.05 55.05 16
    endloop
  endfacet
  facet normal 0 0 1
    outer loop
      vertex 83 -56.85 16
      vertex 86.05 -55.05 16
      vertex 83 -55.05 16
    endloop
  endfacet
  facet normal 0 0 1
    outer loop
      vertex 86.05 -55.05 16
      vertex 83 -56.85 16
      vertex 87.85 -56.85 16
    endloop
  endfacet
  facet normal -0 0 1
    outer loop
      vertex -86.05 -55.05 16
      vertex 27 -56.85 16
      vertex 27 -55.05 16
    endloop
  endfacet
  facet normal 0 0 1
    outer loop
      vertex -86.05 -55.05 16
      vertex -87.85 -56.85 16
      vertex 27 -56.85 16
    endloop
  endfacet
  facet normal 0 0 1
    outer loop
      vertex -87.85 -56.85 16
      vertex -86.05 -55.05 16
      vertex -87.85 56.85 16
    endloop
  endfacet
  facet normal 0 1 -0
    outer loop
      vertex 87.85 56.85 2
      vertex -87.85 56.85 16
      vertex 87.85 56.85 16
    endloop
  endfacet
  facet normal 0 1 0
    outer loop
      vertex -87.85 56.85 16
      vertex 87.85 56.85 2
      vertex -87.85 56.85 2
    endloop
  endfacet
  facet normal -1 0 0
    outer loop
      vertex -87.85 -56.85 2
      vertex -87.85 56.85 16
      vertex -87.85 56.85 2
    endloop
  endfacet
  facet normal -1 -0 0
    outer loop
      vertex -87.85 56.85 16
      vertex -87.85 -56.85 2
      vertex -87.85 -56.85 16
    endloop
  endfacet
  facet normal 0 -1 0
    outer loop
      vertex -87.85 -56.85 16
      vertex 27 -56.85 4
      vertex 27 -56.85 16
    endloop
  endfacet
  facet normal 0 -1 0
    outer loop
      vertex 87.85 -56.85 2
      vertex 27 -56.85 4
      vertex -87.85 -56.85 2
    endloop
  endfacet
  facet normal 0 -1 0
    outer loop
      vertex -87.85 -56.85 2
      vertex 27 -56.85 4
      vertex -87.85 -56.85 16
    endloop
  endfacet
  facet normal 0 -1 0
    outer loop
      vertex 83 -56.85 4
      vertex 87.85 -56.85 16
      vertex 83 -56.85 16
    endloop
  endfacet
  facet normal 0 -1 0
    outer loop
      vertex 83 -56.85 4
      vertex 87.85 -56.85 2
      vertex 87.85 -56.85 16
    endloop
  endfacet
  facet normal 0 -1 0
    outer loop
      vertex 27 -56.85 4
      vertex 87.85 -56.85 2
      vertex 83 -56.85 4
    endloop
  endfacet
  facet normal 1 -0 0
    outer loop
      vertex 87.85 -56.85 16
      vertex 87.85 56.85 2
      vertex 87.85 56.85 16
    endloop
  endfacet
  facet normal 1 0 0
    outer loop
      vertex 87.85 56.85 2
      vertex 87.85 -56.85 16
      vertex 87.85 -56.85 2
    endloop
  endfacet
  facet normal 1 -0 0
    outer loop
      vertex -86.05 -55.05 16
      vertex -86.05 55.05 2
      vertex -86.05 55.05 16
    endloop
  endfacet
  facet normal 1 0 0
    outer loop
      vertex -86.05 55.05 2
      vertex -86.05 -55.05 16
      vertex -86.05 -55.05 2
    endloop
  endfacet
  facet normal 0 -1 0
    outer loop
      vertex -86.05 55.05 2
      vertex 86.05 55.05 16
      vertex -86.05 55.05 16
    endloop
  endfacet
  facet normal 0 -1 -0
    outer loop
      vertex 86.05 55.05 16
      vertex -86.05 55.05 2
      vertex 86.05 55.05 2
    endloop
  endfacet
  facet normal -1 0 0
    outer loop
      vertex 86.05 -55.05 2
      vertex 86.05 55.05 16
      vertex 86.05 55.05 2
    endloop
  endfacet
  facet normal -1 -0 0
    outer loop
      vertex 86.05 55.05 16
      vertex 86.05 -55.05 2
      vertex 86.05 -55.05 16
    endloop
  endfacet
  facet normal 0 1 0
    outer loop
      vertex 86.05 -55.05 16
      vertex 83 -55.05 4
      vertex 83 -55.05 16
    endloop
  endfacet
  facet normal 0 1 0
    outer loop
      vertex 83 -55.05 4
      vertex 86.05 -55.05 2
      vertex 27 -55.05 4
    endloop
  endfacet
  facet normal 0 1 -0
    outer loop
      vertex 86.05 -55.05 2
      vertex 83 -55.05 4
      vertex 86.05 -55.05 16
    endloop
  endfacet
  facet normal 0 1 -0
    outer loop
      vertex 27 -55.05 4
      vertex -86.05 -55.05 16
      vertex 27 -55.05 16
    endloop
  endfacet
  facet normal 0 1 0
    outer loop
      vertex 27 -55.05 4
      vertex -86.05 -55.05 2
      vertex -86.05 -55.05 16
    endloop
  endfacet
  facet normal 0 1 0
    outer loop
      vertex -86.05 -55.05 2
      vertex 27 -55.05 4
      vertex 86.05 -55.05 2
    endloop
  endfacet
  facet normal -0 0 1
    outer loop
      vertex 27 -55.05 4
      vertex 83 -56.85 4
      vertex 83 -55.05 4
    endloop
  endfacet
  facet normal 0 0 1
    outer loop
      vertex 83 -56.85 4
      vertex 27 -55.05 4
      vertex 27 -56.85 4
    endloop
  endfacet
  facet normal -1 0 0
    outer loop
      vertex 83 -56.85 4
      vertex 83 -55.05 16
      vertex 83 -55.05 4
    endloop
  endfacet
  facet normal -1 -0 0
    outer loop
      vertex 83 -55.05 16
      vertex 83 -56.85 4
      vertex 83 -56.85 16
    endloop
  endfacet
  facet normal 1 -0 0
    outer loop
      vertex 27 -56.85 16
      vertex 27 -55.05 4
      vertex 27 -55.05 16
    endloop
  endfacet
  facet normal 1 0 0
    outer loop
      vertex 27 -55.05 4
      vertex 27 -56.85 16
      vertex 27 -56.85 4
    endloop
  endfacet
  facet normal 0 0 -1
    outer loop
      vertex 89.8 -58.8 0
      vertex 74 -14.75 0
      vertex 89.8 58.8 0
    endloop
  endfacet
  facet normal 0 0 -1
    outer loop
      vertex 89.8 -58.8 0
      vertex 32 -14.75 0
      vertex 74 -14.75 0
    endloop
  endfacet
  facet normal 0 0 -1
    outer loop
      vertex -89.8 58.8 0
      vertex 32 -14.75 0
      vertex -89.8 -58.8 0
    endloop
  endfacet
  facet normal 0 0 -1
    outer loop
      vertex -89.8 -58.8 0
      vertex 32 -14.75 0
      vertex 89.8 -58.8 0
    endloop
  endfacet
  facet normal 0 0 -1
    outer loop
      vertex 74 27.25 0
      vertex 89.8 58.8 0
      vertex 74 -14.75 0
    endloop
  endfacet
  facet normal 0 0 -1
    outer loop
      vertex 32 27.25 0
      vertex 89.8 58.8 0
      vertex 74 27.25 0
    endloop
  endfacet
  facet normal 0 0 -1
    outer loop
      vertex 32 27.25 0
      vertex -89.8 58.8 0
      vertex 89.8 58.8 0
    endloop
  endfacet
  facet normal 0 0 -1
    outer loop
      vertex 32 -14.75 0
      vertex -89.8 58.8 0
      vertex 32 27.25 0
    endloop
  endfacet
  facet normal 0 1 -0
    outer loop
      vertex 89.8 58.8 0
      vertex -89.8 58.8 2
      vertex 89.8 58.8 2
    endloop
  endfacet
  facet normal 0 1 0
    outer loop
      vertex -89.8 58.8 2
      vertex 89.8 58.8 0
      vertex -89.8 58.8 0
    endloop
  endfacet
  facet normal -1 0 0
    outer loop
      vertex -89.8 -58.8 0
      vertex -89.8 58.8 2
      vertex -89.8 58.8 0
    endloop
  endfacet
  facet normal -1 -0 0
    outer loop
      vertex -89.8 58.8 2
      vertex -89.8 -58.8 0
      vertex -89.8 -58.8 2
    endloop
  endfacet
  facet normal 0 -1 0
    outer loop
      vertex -89.8 -58.8 0
      vertex 89.8 -58.8 2
      vertex -89.8 -58.8 2
    endloop
  endfacet
  facet normal 0 -1 -0
    outer loop
      vertex 89.8 -58.8 2
      vertex -89.8 -58.8 0
      vertex 89.8 -58.8 0
    endloop
  endfacet
  facet normal 1 -0 0
    outer loop
      vertex 89.8 -58.8 2
      vertex 89.8 58.8 0
      vertex 89.8 58.8 2
    endloop
  endfacet
  facet normal 1 0 0
    outer loop
      vertex 89.8 58.8 0
      vertex 89.8 -58.8 2
      vertex 89.8 -58.8 0
    endloop
  endfacet
  facet normal 1 -0 0
    outer loop
      vertex 32 -14.75 2
      vertex 32 27.25 0
      vertex 32 27.25 2
    endloop
  endfacet
  facet normal 1 0 0
    outer loop
      vertex 32 27.25 0
      vertex 32 -14.75 2
      vertex 32 -14.75 0
    endloop
  endfacet
  facet normal 0 -1 0
    outer loop
      vertex 32 27.25 0
      vertex 74 27.25 2
      vertex 32 27.25 2
    endloop
  endfacet
  facet normal 0 -1 -0
    outer loop
      vertex 74 27.25 2
      vertex 32 27.25 0
      vertex 74 27.25 0
    endloop
  endfacet
  facet normal -1 0 0
    outer loop
      vertex 74 -14.75 0
      vertex 74 27.25 2
      vertex 74 27.25 0
    endloop
  endfacet
  facet normal -1 -0 0
    outer loop
      vertex 74 27.25 2
      vertex 74 -14.75 0
      vertex 74 -14.75 2
    endloop
  endfacet
  facet normal 0 1 -0
    outer loop
      vertex 74 -14.75 0
      vertex 32 -14.75 2
      vertex 74 -14.75 2
    endloop
  endfacet
  facet normal 0 1 0
    outer loop
      vertex 32 -14.75 2
      vertex 74 -14.75 0
      vertex 32 -14.75 0
    endloop
  endfacet
endsolid OpenSCAD_Model
