solid OpenSCAD_Model
  facet normal 1 -0 0
    outer loop
      vertex 5 3 0.599999
      vertex 5 6 0
      vertex 5 6 0.599999
    endloop
  endfacet
  facet normal 1 0 0
    outer loop
      vertex 5 6 0
      vertex 5 3 0.599999
      vertex 5 3 0
    endloop
  endfacet
  facet normal 1 -0 0
    outer loop
      vertex 5 20 0.599999
      vertex 5 23 0
      vertex 5 23 0.599999
    endloop
  endfacet
  facet normal 1 0 0
    outer loop
      vertex 5 23 0
      vertex 5 20 0.599999
      vertex 5 20 0
    endloop
  endfacet
  facet normal 0 0 1
    outer loop
      vertex 48 26 0.599999
      vertex 45 23 0.599999
      vertex 48 0 0.599999
    endloop
  endfacet
  facet normal 0 0 1
    outer loop
      vertex 48 26 0.599999
      vertex 5 23 0.599999
      vertex 45 23 0.599999
    endloop
  endfacet
  facet normal 0 0 1
    outer loop
      vertex 0 26 0.599999
      vertex 5 20 0.599999
      vertex 5 23 0.599999
    endloop
  endfacet
  facet normal 0 0 1
    outer loop
      vertex 5 20 0.599999
      vertex 0 26 0.599999
      vertex 5 6 0.599999
    endloop
  endfacet
  facet normal 0 0 1
    outer loop
      vertex 0 0 0.599999
      vertex 5 6 0.599999
      vertex 0 26 0.599999
    endloop
  endfacet
  facet normal -0 0 1
    outer loop
      vertex 0 26 0.599999
      vertex 5 23 0.599999
      vertex 48 26 0.599999
    endloop
  endfacet
  facet normal -0 0 1
    outer loop
      vertex 45 3 0.599999
      vertex 48 0 0.599999
      vertex 45 23 0.599999
    endloop
  endfacet
  facet normal -0 0 1
    outer loop
      vertex 5 3 0.599999
      vertex 48 0 0.599999
      vertex 45 3 0.599999
    endloop
  endfacet
  facet normal 0 0 1
    outer loop
      vertex 5 3 0.599999
      vertex 0 0 0.599999
      vertex 48 0 0.599999
    endloop
  endfacet
  facet normal 0 0 1
    outer loop
      vertex 5 6 0.599999
      vertex 0 0 0.599999
      vertex 5 3 0.599999
    endloop
  endfacet
  facet normal -0 0 1
    outer loop
      vertex 5 20 0.599999
      vertex 42 6 0.599999
      vertex 42 20 0.599999
    endloop
  endfacet
  facet normal 0 0 1
    outer loop
      vertex 42 6 0.599999
      vertex 5 20 0.599999
      vertex 5 6 0.599999
    endloop
  endfacet
  facet normal -1 0 0
    outer loop
      vertex 45 3 0
      vertex 45 23 0.599999
      vertex 45 23 0
    endloop
  endfacet
  facet normal -1 -0 0
    outer loop
      vertex 45 23 0.599999
      vertex 45 3 0
      vertex 45 3 0.599999
    endloop
  endfacet
  facet normal 0 -1 0
    outer loop
      vertex 5 23 0
      vertex 45 23 0.599999
      vertex 5 23 0.599999
    endloop
  endfacet
  facet normal 0 -1 -0
    outer loop
      vertex 45 23 0.599999
      vertex 5 23 0
      vertex 45 23 0
    endloop
  endfacet
  facet normal 0 0 -1
    outer loop
      vertex 48 0 0
      vertex 45 3 0
      vertex 48 26 0
    endloop
  endfacet
  facet normal 0 0 -1
    outer loop
      vertex 48 0 0
      vertex 5 3 0
      vertex 45 3 0
    endloop
  endfacet
  facet normal 0 0 -1
    outer loop
      vertex 0 0 0
      vertex 5 6 0
      vertex 5 3 0
    endloop
  endfacet
  facet normal -0 0 -1
    outer loop
      vertex 5 6 0
      vertex 0 0 0
      vertex 5 20 0
    endloop
  endfacet
  facet normal 0 0 -1
    outer loop
      vertex 0 26 0
      vertex 5 20 0
      vertex 0 0 0
    endloop
  endfacet
  facet normal 0 0 -1
    outer loop
      vertex 0 0 0
      vertex 5 3 0
      vertex 48 0 0
    endloop
  endfacet
  facet normal 0 0 -1
    outer loop
      vertex 45 23 0
      vertex 48 26 0
      vertex 45 3 0
    endloop
  endfacet
  facet normal 0 0 -1
    outer loop
      vertex 5 23 0
      vertex 48 26 0
      vertex 45 23 0
    endloop
  endfacet
  facet normal 0 0 -1
    outer loop
      vertex 5 23 0
      vertex 0 26 0
      vertex 48 26 0
    endloop
  endfacet
  facet normal 0 0 -1
    outer loop
      vertex 5 20 0
      vertex 0 26 0
      vertex 5 23 0
    endloop
  endfacet
  facet normal 0 0 -1
    outer loop
      vertex 5 6 0
      vertex 42 20 0
      vertex 42 6 0
    endloop
  endfacet
  facet normal -0 0 -1
    outer loop
      vertex 42 20 0
      vertex 5 6 0
      vertex 5 20 0
    endloop
  endfacet
  facet normal 0 1 -0
    outer loop
      vertex 45 3 0
      vertex 5 3 0.599999
      vertex 45 3 0.599999
    endloop
  endfacet
  facet normal 0 1 0
    outer loop
      vertex 5 3 0.599999
      vertex 45 3 0
      vertex 5 3 0
    endloop
  endfacet
  facet normal 1 -0 0
    outer loop
      vertex 42 6 0.599999
      vertex 42 20 0
      vertex 42 20 0.599999
    endloop
  endfacet
  facet normal 1 0 0
    outer loop
      vertex 42 20 0
      vertex 42 6 0.599999
      vertex 42 6 0
    endloop
  endfacet
  facet normal 0 -1 0
    outer loop
      vertex 5 6 0
      vertex 42 6 0.599999
      vertex 5 6 0.599999
    endloop
  endfacet
  facet normal 0 -1 -0
    outer loop
      vertex 42 6 0.599999
      vertex 5 6 0
      vertex 42 6 0
    endloop
  endfacet
  facet normal 0 1 -0
    outer loop
      vertex 42 20 0
      vertex 5 20 0.599999
      vertex 42 20 0.599999
    endloop
  endfacet
  facet normal 0 1 0
    outer loop
      vertex 5 20 0.599999
      vertex 42 20 0
      vertex 5 20 0
    endloop
  endfacet
  facet normal -1 0 0
    outer loop
      vertex 0 0 0
      vertex 0 26 0.599999
      vertex 0 26 0
    endloop
  endfacet
  facet normal -1 -0 0
    outer loop
      vertex 0 26 0.599999
      vertex 0 0 0
      vertex 0 0 0.599999
    endloop
  endfacet
  facet normal 1 -0 0
    outer loop
      vertex 48 0 0.599999
      vertex 48 26 0
      vertex 48 26 0.599999
    endloop
  endfacet
  facet normal 1 0 0
    outer loop
      vertex 48 26 0
      vertex 48 0 0.599999
      vertex 48 0 0
    endloop
  endfacet
  facet normal 0 -1 0
    outer loop
      vertex 0 0 0
      vertex 48 0 0.599999
      vertex 0 0 0.599999
    endloop
  endfacet
  facet normal 0 -1 -0
    outer loop
      vertex 48 0 0.599999
      vertex 0 0 0
      vertex 48 0 0
    endloop
  endfacet
  facet normal 0 1 -0
    outer loop
      vertex 48 26 0
      vertex 0 26 0.599999
      vertex 48 26 0.599999
    endloop
  endfacet
  facet normal 0 1 0
    outer loop
      vertex 0 26 0.599999
      vertex 48 26 0
      vertex 0 26 0
    endloop
  endfacet
endsolid OpenSCAD_Model
