solid OpenSCAD_Model
  facet normal -1 0 0
    outer loop
      vertex 0 22 0
      vertex 0 20.3 4.2
      vertex 0 22 6
    endloop
  endfacet
  facet normal -1 0 0
    outer loop
      vertex 0 22 0
      vertex 0 18.3 0.6
      vertex 0 20.3 4.2
    endloop
  endfacet
  facet normal -1 0 0
    outer loop
      vertex 0 22 0
      vertex 0 4 0.6
      vertex 0 18.3 0.6
    endloop
  endfacet
  facet normal -1 0 0
    outer loop
      vertex 0 4 0.6
      vertex 0 2 4.2
      vertex 0 4 4.2
    endloop
  endfacet
  facet normal -1 0 0
    outer loop
      vertex 0 0 0
      vertex 0 4 0.6
      vertex 0 22 0
    endloop
  endfacet
  facet normal -1 0 0
    outer loop
      vertex 0 0 0
      vertex 0 2 4.2
      vertex 0 4 0.6
    endloop
  endfacet
  facet normal -1 0 0
    outer loop
      vertex 0 0 6
      vertex 0 2 4.2
      vertex 0 0 0
    endloop
  endfacet
  facet normal -1 0 0
    outer loop
      vertex 0 2 4.2
      vertex 0 0 6
      vertex 0 2 6
    endloop
  endfacet
  facet normal -1 -0 0
    outer loop
      vertex 0 22 6
      vertex 0 20.3 4.2
      vertex 0 20.3 6
    endloop
  endfacet
  facet normal -1 -0 0
    outer loop
      vertex 0 20.3 4.2
      vertex 0 18.3 0.6
      vertex 0 18.3 4.2
    endloop
  endfacet
  facet normal -0 0 1
    outer loop
      vertex 0 20.3 4.2
      vertex 43.6 18.3 4.2
      vertex 43.6 20.3 4.2
    endloop
  endfacet
  facet normal 0 0 1
    outer loop
      vertex 43.6 18.3 4.2
      vertex 0 20.3 4.2
      vertex 0 18.3 4.2
    endloop
  endfacet
  facet normal -0 0 1
    outer loop
      vertex 0 4 4.2
      vertex 43.6 2 4.2
      vertex 43.6 4 4.2
    endloop
  endfacet
  facet normal 0 0 1
    outer loop
      vertex 43.6 2 4.2
      vertex 0 4 4.2
      vertex 0 2 4.2
    endloop
  endfacet
  facet normal -1 0 0
    outer loop
      vertex 43.6 18.3 0.6
      vertex 43.6 4 0.6
      vertex 43.6 18.3 4.2
    endloop
  endfacet
  facet normal -1 0 0
    outer loop
      vertex 43.6 18.3 4.2
      vertex 43.6 20.3 6
      vertex 43.6 20.3 4.2
    endloop
  endfacet
  facet normal -1 0 0
    outer loop
      vertex 43.6 4 4.2
      vertex 43.6 18.3 4.2
      vertex 43.6 4 0.6
    endloop
  endfacet
  facet normal -1 0 0
    outer loop
      vertex 43.6 18.3 4.2
      vertex 43.6 4 4.2
      vertex 43.6 20.3 6
    endloop
  endfacet
  facet normal -1 0 0
    outer loop
      vertex 43.6 2 6
      vertex 43.6 4 4.2
      vertex 43.6 2 4.2
    endloop
  endfacet
  facet normal -1 0 0
    outer loop
      vertex 43.6 4 4.2
      vertex 43.6 2 6
      vertex 43.6 20.3 6
    endloop
  endfacet
  facet normal 0 -1 0
    outer loop
      vertex 0 18.3 0.6
      vertex 43.6 18.3 4.2
      vertex 0 18.3 4.2
    endloop
  endfacet
  facet normal 0 -1 -0
    outer loop
      vertex 43.6 18.3 4.2
      vertex 0 18.3 0.6
      vertex 43.6 18.3 0.6
    endloop
  endfacet
  facet normal -0 0 1
    outer loop
      vertex 0 18.3 0.6
      vertex 43.6 4 0.6
      vertex 43.6 18.3 0.6
    endloop
  endfacet
  facet normal 0 0 1
    outer loop
      vertex 43.6 4 0.6
      vertex 0 18.3 0.6
      vertex 0 4 0.6
    endloop
  endfacet
  facet normal 0 1 -0
    outer loop
      vertex 43.6 4 0.6
      vertex 0 4 4.2
      vertex 43.6 4 4.2
    endloop
  endfacet
  facet normal 0 1 0
    outer loop
      vertex 0 4 4.2
      vertex 43.6 4 0.6
      vertex 0 4 0.6
    endloop
  endfacet
  facet normal 0 1 -0
    outer loop
      vertex 43.6 2 4.2
      vertex 0 2 6
      vertex 43.6 2 6
    endloop
  endfacet
  facet normal 0 1 0
    outer loop
      vertex 0 2 6
      vertex 43.6 2 4.2
      vertex 0 2 4.2
    endloop
  endfacet
  facet normal 0 -1 0
    outer loop
      vertex 0 20.3 4.2
      vertex 43.6 20.3 6
      vertex 0 20.3 6
    endloop
  endfacet
  facet normal 0 -1 -0
    outer loop
      vertex 43.6 20.3 6
      vertex 0 20.3 4.2
      vertex 43.6 20.3 4.2
    endloop
  endfacet
  facet normal 0 0 1
    outer loop
      vertex 43.6 2 6
      vertex 46 22 6
      vertex 43.6 20.3 6
    endloop
  endfacet
  facet normal -0 0 1
    outer loop
      vertex 0 22 6
      vertex 43.6 20.3 6
      vertex 46 22 6
    endloop
  endfacet
  facet normal 0 0 1
    outer loop
      vertex 43.6 20.3 6
      vertex 0 22 6
      vertex 0 20.3 6
    endloop
  endfacet
  facet normal 0 0 1
    outer loop
      vertex 46 22 6
      vertex 43.6 2 6
      vertex 46 0 6
    endloop
  endfacet
  facet normal 0 0 1
    outer loop
      vertex 0 0 6
      vertex 43.6 2 6
      vertex 0 2 6
    endloop
  endfacet
  facet normal 0 0 1
    outer loop
      vertex 43.6 2 6
      vertex 0 0 6
      vertex 46 0 6
    endloop
  endfacet
  facet normal 1 -0 0
    outer loop
      vertex 46 0 6
      vertex 46 22 0
      vertex 46 22 6
    endloop
  endfacet
  facet normal 1 0 0
    outer loop
      vertex 46 22 0
      vertex 46 0 6
      vertex 46 0 0
    endloop
  endfacet
  facet normal 0 0 -1
    outer loop
      vertex 0 0 0
      vertex 46 22 0
      vertex 46 0 0
    endloop
  endfacet
  facet normal -0 0 -1
    outer loop
      vertex 46 22 0
      vertex 0 0 0
      vertex 0 22 0
    endloop
  endfacet
  facet normal 0 -1 0
    outer loop
      vertex 0 0 0
      vertex 46 0 6
      vertex 0 0 6
    endloop
  endfacet
  facet normal 0 -1 -0
    outer loop
      vertex 46 0 6
      vertex 0 0 0
      vertex 46 0 0
    endloop
  endfacet
  facet normal 0 1 -0
    outer loop
      vertex 46 22 0
      vertex 0 22 6
      vertex 46 22 6
    endloop
  endfacet
  facet normal 0 1 0
    outer loop
      vertex 0 22 6
      vertex 46 22 0
      vertex 0 22 0
    endloop
  endfacet
endsolid OpenSCAD_Model
