solid OpenSCAD_Model
  facet normal -0.881917 -0.471405 5.26081e-19
    outer loop
      vertex 2.63306 1.09065 0
      vertex 2.36969 1.58337 3.4
      vertex 2.36969 1.58337 0
    endloop
  endfacet
  facet normal -0.881917 -0.471405 5.26081e-19
    outer loop
      vertex 2.36969 1.58337 3.4
      vertex 2.63306 1.09065 0
      vertex 2.63306 1.09065 3.4
    endloop
  endfacet
  facet normal -0.773006 -0.634399 5.41152e-18
    outer loop
      vertex 2.36969 1.58337 0
      vertex 2.01525 2.01525 3.4
      vertex 2.01525 2.01525 0
    endloop
  endfacet
  facet normal -0.773006 -0.634399 5.41152e-18
    outer loop
      vertex 2.01525 2.01525 3.4
      vertex 2.36969 1.58337 0
      vertex 2.36969 1.58337 3.4
    endloop
  endfacet
  facet normal -0.290281 -0.956941 0
    outer loop
      vertex 0.556007 2.79524 0
      vertex 1.09065 2.63306 3.4
      vertex 0.556007 2.79524 3.4
    endloop
  endfacet
  facet normal -0.290281 -0.956941 -0
    outer loop
      vertex 1.09065 2.63306 3.4
      vertex 0.556007 2.79524 0
      vertex 1.09065 2.63306 0
    endloop
  endfacet
  facet normal 0.471405 -0.881917 0
    outer loop
      vertex -1.58337 2.36969 0
      vertex -1.09065 2.63306 3.4
      vertex -1.58337 2.36969 3.4
    endloop
  endfacet
  facet normal 0.471405 -0.881917 0
    outer loop
      vertex -1.09065 2.63306 3.4
      vertex -1.58337 2.36969 0
      vertex -1.09065 2.63306 0
    endloop
  endfacet
  facet normal 0.881917 -0.471405 -5.26081e-19
    outer loop
      vertex -2.63306 1.09065 3.4
      vertex -2.36969 1.58337 0
      vertex -2.36969 1.58337 3.4
    endloop
  endfacet
  facet normal 0.881917 -0.471405 -5.26081e-19
    outer loop
      vertex -2.36969 1.58337 0
      vertex -2.63306 1.09065 3.4
      vertex -2.63306 1.09065 0
    endloop
  endfacet
  facet normal -0.995185 0.0980138 -3.59009e-19
    outer loop
      vertex 2.79524 -0.556007 0
      vertex 2.85 0 3.4
      vertex 2.85 0 0
    endloop
  endfacet
  facet normal -0.995185 0.0980138 -3.59009e-19
    outer loop
      vertex 2.85 0 3.4
      vertex 2.79524 -0.556007 0
      vertex 2.79524 -0.556007 3.4
    endloop
  endfacet
  facet normal -0.634399 -0.773006 0
    outer loop
      vertex 1.58337 2.36969 0
      vertex 2.01525 2.01525 3.4
      vertex 1.58337 2.36969 3.4
    endloop
  endfacet
  facet normal -0.634399 -0.773006 -0
    outer loop
      vertex 2.01525 2.01525 3.4
      vertex 1.58337 2.36969 0
      vertex 2.01525 2.01525 0
    endloop
  endfacet
  facet normal 0.0980138 -0.995185 0
    outer loop
      vertex -0.556007 2.79524 0
      vertex 0 2.85 3.4
      vertex -0.556007 2.79524 3.4
    endloop
  endfacet
  facet normal 0.0980138 -0.995185 0
    outer loop
      vertex 0 2.85 3.4
      vertex -0.556007 2.79524 0
      vertex 0 2.85 0
    endloop
  endfacet
  facet normal -0.471405 -0.881917 0
    outer loop
      vertex 1.09065 2.63306 0
      vertex 1.58337 2.36969 3.4
      vertex 1.09065 2.63306 3.4
    endloop
  endfacet
  facet normal -0.471405 -0.881917 -0
    outer loop
      vertex 1.58337 2.36969 3.4
      vertex 1.09065 2.63306 0
      vertex 1.58337 2.36969 0
    endloop
  endfacet
  facet normal 0.995185 -0.0980138 -3.59009e-19
    outer loop
      vertex -2.85 0 3.4
      vertex -2.79524 0.556007 0
      vertex -2.79524 0.556007 3.4
    endloop
  endfacet
  facet normal 0.995185 -0.0980138 -3.59009e-19
    outer loop
      vertex -2.79524 0.556007 0
      vertex -2.85 0 3.4
      vertex -2.85 0 0
    endloop
  endfacet
  facet normal 0.634399 -0.773006 0
    outer loop
      vertex -2.01525 2.01525 0
      vertex -1.58337 2.36969 3.4
      vertex -2.01525 2.01525 3.4
    endloop
  endfacet
  facet normal 0.634399 -0.773006 0
    outer loop
      vertex -1.58337 2.36969 3.4
      vertex -2.01525 2.01525 0
      vertex -1.58337 2.36969 0
    endloop
  endfacet
  facet normal 0.290281 -0.956941 0
    outer loop
      vertex -1.09065 2.63306 0
      vertex -0.556007 2.79524 3.4
      vertex -1.09065 2.63306 3.4
    endloop
  endfacet
  facet normal 0.290281 -0.956941 0
    outer loop
      vertex -0.556007 2.79524 3.4
      vertex -1.09065 2.63306 0
      vertex -0.556007 2.79524 0
    endloop
  endfacet
  facet normal 0.773006 -0.634399 -5.41152e-18
    outer loop
      vertex -2.36969 1.58337 3.4
      vertex -2.01525 2.01525 0
      vertex -2.01525 2.01525 3.4
    endloop
  endfacet
  facet normal 0.773006 -0.634399 -5.41152e-18
    outer loop
      vertex -2.01525 2.01525 0
      vertex -2.36969 1.58337 3.4
      vertex -2.36969 1.58337 0
    endloop
  endfacet
  facet normal -0.995185 -0.0980138 3.59009e-19
    outer loop
      vertex 2.85 0 0
      vertex 2.79524 0.556007 3.4
      vertex 2.79524 0.556007 0
    endloop
  endfacet
  facet normal -0.995185 -0.0980138 3.59009e-19
    outer loop
      vertex 2.79524 0.556007 3.4
      vertex 2.85 0 0
      vertex 2.85 0 3.4
    endloop
  endfacet
  facet normal -0.634399 0.773006 0
    outer loop
      vertex 2.01525 -2.01525 0
      vertex 1.58337 -2.36969 3.4
      vertex 2.01525 -2.01525 3.4
    endloop
  endfacet
  facet normal -0.634399 0.773006 0
    outer loop
      vertex 1.58337 -2.36969 3.4
      vertex 2.01525 -2.01525 0
      vertex 1.58337 -2.36969 0
    endloop
  endfacet
  facet normal -0.956941 0.290281 -4.78912e-19
    outer loop
      vertex 2.63306 -1.09065 0
      vertex 2.79524 -0.556007 3.4
      vertex 2.79524 -0.556007 0
    endloop
  endfacet
  facet normal -0.956941 0.290281 -4.78912e-19
    outer loop
      vertex 2.79524 -0.556007 3.4
      vertex 2.63306 -1.09065 0
      vertex 2.63306 -1.09065 3.4
    endloop
  endfacet
  facet normal 0.0980138 0.995185 -0
    outer loop
      vertex 0 -2.85 0
      vertex -0.556007 -2.79524 3.4
      vertex 0 -2.85 3.4
    endloop
  endfacet
  facet normal 0.0980138 0.995185 0
    outer loop
      vertex -0.556007 -2.79524 3.4
      vertex 0 -2.85 0
      vertex -0.556007 -2.79524 0
    endloop
  endfacet
  facet normal -0.956941 -0.290281 4.78912e-19
    outer loop
      vertex 2.79524 0.556007 0
      vertex 2.63306 1.09065 3.4
      vertex 2.63306 1.09065 0
    endloop
  endfacet
  facet normal -0.956941 -0.290281 4.78912e-19
    outer loop
      vertex 2.63306 1.09065 3.4
      vertex 2.79524 0.556007 0
      vertex 2.79524 0.556007 3.4
    endloop
  endfacet
  facet normal -0.0980138 -0.995185 0
    outer loop
      vertex 0 2.85 0
      vertex 0.556007 2.79524 3.4
      vertex 0 2.85 3.4
    endloop
  endfacet
  facet normal -0.0980138 -0.995185 -0
    outer loop
      vertex 0.556007 2.79524 3.4
      vertex 0 2.85 0
      vertex 0.556007 2.79524 0
    endloop
  endfacet
  facet normal 0 0 -1
    outer loop
      vertex 1.7 0 3.4
      vertex 2.85 0 3.4
      vertex 2.79524 -0.556007 3.4
    endloop
  endfacet
  facet normal 0 0 -1
    outer loop
      vertex 1.66733 -0.331653 3.4
      vertex 2.79524 -0.556007 3.4
      vertex 2.63306 -1.09065 3.4
    endloop
  endfacet
  facet normal 0 0 -1
    outer loop
      vertex 2.85 0 3.4
      vertex 1.7 0 3.4
      vertex 2.79524 0.556007 3.4
    endloop
  endfacet
  facet normal 0 0 -1
    outer loop
      vertex 1.57059 -0.650561 3.4
      vertex 2.63306 -1.09065 3.4
      vertex 2.36969 -1.58337 3.4
    endloop
  endfacet
  facet normal 0 0 -1
    outer loop
      vertex 1.66733 0.331653 3.4
      vertex 2.79524 0.556007 3.4
      vertex 1.7 0 3.4
    endloop
  endfacet
  facet normal 0 0 -1
    outer loop
      vertex 1.4135 -0.944468 3.4
      vertex 2.36969 -1.58337 3.4
      vertex 2.01525 -2.01525 3.4
    endloop
  endfacet
  facet normal -0 0 -1
    outer loop
      vertex 2.79524 0.556007 3.4
      vertex 1.66733 0.331653 3.4
      vertex 2.63306 1.09065 3.4
    endloop
  endfacet
  facet normal 0 0 -1
    outer loop
      vertex 1.57059 0.650561 3.4
      vertex 2.63306 1.09065 3.4
      vertex 1.66733 0.331653 3.4
    endloop
  endfacet
  facet normal 0 0 -1
    outer loop
      vertex 2.79524 -0.556007 3.4
      vertex 1.66733 -0.331653 3.4
      vertex 1.7 0 3.4
    endloop
  endfacet
  facet normal 0 0 -1
    outer loop
      vertex 1.20208 -1.20208 3.4
      vertex 2.01525 -2.01525 3.4
      vertex 1.58337 -2.36969 3.4
    endloop
  endfacet
  facet normal 0 0 -1
    outer loop
      vertex 2.63306 -1.09065 3.4
      vertex 1.57059 -0.650561 3.4
      vertex 1.66733 -0.331653 3.4
    endloop
  endfacet
  facet normal 0 0 -1
    outer loop
      vertex 2.36969 -1.58337 3.4
      vertex 1.4135 -0.944468 3.4
      vertex 1.57059 -0.650561 3.4
    endloop
  endfacet
  facet normal 0 0 -1
    outer loop
      vertex 2.01525 -2.01525 3.4
      vertex 1.20208 -1.20208 3.4
      vertex 1.4135 -0.944468 3.4
    endloop
  endfacet
  facet normal 0 0 -1
    outer loop
      vertex 0.944468 -1.4135 3.4
      vertex 1.58337 -2.36969 3.4
      vertex 1.09065 -2.63306 3.4
    endloop
  endfacet
  facet normal 0 0 -1
    outer loop
      vertex 1.58337 -2.36969 3.4
      vertex 0.944468 -1.4135 3.4
      vertex 1.20208 -1.20208 3.4
    endloop
  endfacet
  facet normal 0 0 -1
    outer loop
      vertex 1.09065 -2.63306 3.4
      vertex 0.650561 -1.57059 3.4
      vertex 0.944468 -1.4135 3.4
    endloop
  endfacet
  facet normal 0 0 -1
    outer loop
      vertex 0.556007 -2.79524 3.4
      vertex 0.650561 -1.57059 3.4
      vertex 1.09065 -2.63306 3.4
    endloop
  endfacet
  facet normal 0 0 -1
    outer loop
      vertex 0.556007 -2.79524 3.4
      vertex 0.331653 -1.66733 3.4
      vertex 0.650561 -1.57059 3.4
    endloop
  endfacet
  facet normal 0 0 -1
    outer loop
      vertex 0 -2.85 3.4
      vertex 0.331653 -1.66733 3.4
      vertex 0.556007 -2.79524 3.4
    endloop
  endfacet
  facet normal 0 0 -1
    outer loop
      vertex 0 -2.85 3.4
      vertex 0 -1.7 3.4
      vertex 0.331653 -1.66733 3.4
    endloop
  endfacet
  facet normal 0 0 -1
    outer loop
      vertex 0 -2.85 3.4
      vertex -0.331653 -1.66733 3.4
      vertex 0 -1.7 3.4
    endloop
  endfacet
  facet normal 0 0 -1
    outer loop
      vertex -0.556007 -2.79524 3.4
      vertex -0.331653 -1.66733 3.4
      vertex 0 -2.85 3.4
    endloop
  endfacet
  facet normal 0 0 -1
    outer loop
      vertex -0.556007 -2.79524 3.4
      vertex -0.650561 -1.57059 3.4
      vertex -0.331653 -1.66733 3.4
    endloop
  endfacet
  facet normal 0 0 -1
    outer loop
      vertex -1.09065 -2.63306 3.4
      vertex -0.650561 -1.57059 3.4
      vertex -0.556007 -2.79524 3.4
    endloop
  endfacet
  facet normal -0 0 -1
    outer loop
      vertex -0.650561 -1.57059 3.4
      vertex -1.09065 -2.63306 3.4
      vertex -0.944468 -1.4135 3.4
    endloop
  endfacet
  facet normal 0 0 -1
    outer loop
      vertex -1.58337 -2.36969 3.4
      vertex -0.944468 -1.4135 3.4
      vertex -1.09065 -2.63306 3.4
    endloop
  endfacet
  facet normal -0 0 -1
    outer loop
      vertex -0.944468 -1.4135 3.4
      vertex -1.58337 -2.36969 3.4
      vertex -1.20208 -1.20208 3.4
    endloop
  endfacet
  facet normal 0 0 -1
    outer loop
      vertex -2.01525 -2.01525 3.4
      vertex -1.20208 -1.20208 3.4
      vertex -1.58337 -2.36969 3.4
    endloop
  endfacet
  facet normal -0 0 -1
    outer loop
      vertex -1.20208 -1.20208 3.4
      vertex -2.01525 -2.01525 3.4
      vertex -1.4135 -0.944468 3.4
    endloop
  endfacet
  facet normal 0 0 -1
    outer loop
      vertex -2.36969 -1.58337 3.4
      vertex -1.4135 -0.944468 3.4
      vertex -2.01525 -2.01525 3.4
    endloop
  endfacet
  facet normal -0 0 -1
    outer loop
      vertex -1.4135 -0.944468 3.4
      vertex -2.36969 -1.58337 3.4
      vertex -1.57059 -0.650561 3.4
    endloop
  endfacet
  facet normal 0 0 -1
    outer loop
      vertex -2.63306 -1.09065 3.4
      vertex -1.57059 -0.650561 3.4
      vertex -2.36969 -1.58337 3.4
    endloop
  endfacet
  facet normal -0 0 -1
    outer loop
      vertex 2.63306 1.09065 3.4
      vertex 1.57059 0.650561 3.4
      vertex 2.36969 1.58337 3.4
    endloop
  endfacet
  facet normal 0 0 -1
    outer loop
      vertex 1.4135 0.944468 3.4
      vertex 2.36969 1.58337 3.4
      vertex 1.57059 0.650561 3.4
    endloop
  endfacet
  facet normal -0 0 -1
    outer loop
      vertex 2.36969 1.58337 3.4
      vertex 1.4135 0.944468 3.4
      vertex 2.01525 2.01525 3.4
    endloop
  endfacet
  facet normal 0 0 -1
    outer loop
      vertex 1.20208 1.20208 3.4
      vertex 2.01525 2.01525 3.4
      vertex 1.4135 0.944468 3.4
    endloop
  endfacet
  facet normal -0 0 -1
    outer loop
      vertex 2.01525 2.01525 3.4
      vertex 1.20208 1.20208 3.4
      vertex 1.58337 2.36969 3.4
    endloop
  endfacet
  facet normal 0 0 -1
    outer loop
      vertex 0.944468 1.4135 3.4
      vertex 1.58337 2.36969 3.4
      vertex 1.20208 1.20208 3.4
    endloop
  endfacet
  facet normal -0 0 -1
    outer loop
      vertex 1.58337 2.36969 3.4
      vertex 0.944468 1.4135 3.4
      vertex 1.09065 2.63306 3.4
    endloop
  endfacet
  facet normal 0 0 -1
    outer loop
      vertex 0.650561 1.57059 3.4
      vertex 1.09065 2.63306 3.4
      vertex 0.944468 1.4135 3.4
    endloop
  endfacet
  facet normal 0 0 -1
    outer loop
      vertex 0.650561 1.57059 3.4
      vertex 0.556007 2.79524 3.4
      vertex 1.09065 2.63306 3.4
    endloop
  endfacet
  facet normal 0 0 -1
    outer loop
      vertex 0.331653 1.66733 3.4
      vertex 0.556007 2.79524 3.4
      vertex 0.650561 1.57059 3.4
    endloop
  endfacet
  facet normal 0 0 -1
    outer loop
      vertex 0 1.7 3.4
      vertex 0.556007 2.79524 3.4
      vertex 0.331653 1.66733 3.4
    endloop
  endfacet
  facet normal 0 0 -1
    outer loop
      vertex 0 1.7 3.4
      vertex 0 2.85 3.4
      vertex 0.556007 2.79524 3.4
    endloop
  endfacet
  facet normal 0 0 -1
    outer loop
      vertex -0.331653 1.66733 3.4
      vertex 0 2.85 3.4
      vertex 0 1.7 3.4
    endloop
  endfacet
  facet normal 0 0 -1
    outer loop
      vertex -0.331653 1.66733 3.4
      vertex -0.556007 2.79524 3.4
      vertex 0 2.85 3.4
    endloop
  endfacet
  facet normal 0 0 -1
    outer loop
      vertex -0.650561 1.57059 3.4
      vertex -0.556007 2.79524 3.4
      vertex -0.331653 1.66733 3.4
    endloop
  endfacet
  facet normal 0 0 -1
    outer loop
      vertex -1.09065 2.63306 3.4
      vertex -0.650561 1.57059 3.4
      vertex -0.944468 1.4135 3.4
    endloop
  endfacet
  facet normal 0 0 -1
    outer loop
      vertex -0.650561 1.57059 3.4
      vertex -1.09065 2.63306 3.4
      vertex -0.556007 2.79524 3.4
    endloop
  endfacet
  facet normal 0 0 -1
    outer loop
      vertex -1.58337 2.36969 3.4
      vertex -0.944468 1.4135 3.4
      vertex -1.20208 1.20208 3.4
    endloop
  endfacet
  facet normal 0 0 -1
    outer loop
      vertex -2.01525 2.01525 3.4
      vertex -1.20208 1.20208 3.4
      vertex -1.4135 0.944468 3.4
    endloop
  endfacet
  facet normal 0 0 -1
    outer loop
      vertex -2.36969 1.58337 3.4
      vertex -1.4135 0.944468 3.4
      vertex -1.57059 0.650561 3.4
    endloop
  endfacet
  facet normal 0 0 -1
    outer loop
      vertex -0.944468 1.4135 3.4
      vertex -1.58337 2.36969 3.4
      vertex -1.09065 2.63306 3.4
    endloop
  endfacet
  facet normal 0 0 -1
    outer loop
      vertex -2.63306 1.09065 3.4
      vertex -1.57059 0.650561 3.4
      vertex -1.66733 0.331653 3.4
    endloop
  endfacet
  facet normal 0 0 -1
    outer loop
      vertex -2.79524 0.556007 3.4
      vertex -1.66733 0.331653 3.4
      vertex -1.7 0 3.4
    endloop
  endfacet
  facet normal -0 0 -1
    outer loop
      vertex -1.57059 -0.650561 3.4
      vertex -2.63306 -1.09065 3.4
      vertex -1.66733 -0.331653 3.4
    endloop
  endfacet
  facet normal 0 0 -1
    outer loop
      vertex -1.20208 1.20208 3.4
      vertex -2.01525 2.01525 3.4
      vertex -1.58337 2.36969 3.4
    endloop
  endfacet
  facet normal 0 0 -1
    outer loop
      vertex -2.79524 -0.556007 3.4
      vertex -1.66733 -0.331653 3.4
      vertex -2.63306 -1.09065 3.4
    endloop
  endfacet
  facet normal 0 0 -1
    outer loop
      vertex -1.4135 0.944468 3.4
      vertex -2.36969 1.58337 3.4
      vertex -2.01525 2.01525 3.4
    endloop
  endfacet
  facet normal -0 0 -1
    outer loop
      vertex -1.66733 -0.331653 3.4
      vertex -2.79524 -0.556007 3.4
      vertex -1.7 0 3.4
    endloop
  endfacet
  facet normal 0 0 -1
    outer loop
      vertex -1.57059 0.650561 3.4
      vertex -2.63306 1.09065 3.4
      vertex -2.36969 1.58337 3.4
    endloop
  endfacet
  facet normal 0 0 -1
    outer loop
      vertex -2.85 0 3.4
      vertex -1.7 0 3.4
      vertex -2.79524 -0.556007 3.4
    endloop
  endfacet
  facet normal 0 0 -1
    outer loop
      vertex -1.66733 0.331653 3.4
      vertex -2.79524 0.556007 3.4
      vertex -2.63306 1.09065 3.4
    endloop
  endfacet
  facet normal 0 0 -1
    outer loop
      vertex -1.7 0 3.4
      vertex -2.85 0 3.4
      vertex -2.79524 0.556007 3.4
    endloop
  endfacet
  facet normal 0.956941 -0.290281 -4.78912e-19
    outer loop
      vertex -2.79524 0.556007 3.4
      vertex -2.63306 1.09065 0
      vertex -2.63306 1.09065 3.4
    endloop
  endfacet
  facet normal 0.956941 -0.290281 -4.78912e-19
    outer loop
      vertex -2.63306 1.09065 0
      vertex -2.79524 0.556007 3.4
      vertex -2.79524 0.556007 0
    endloop
  endfacet
  facet normal 0.995185 0.0980138 3.59009e-19
    outer loop
      vertex -2.79524 -0.556007 3.4
      vertex -2.85 0 0
      vertex -2.85 0 3.4
    endloop
  endfacet
  facet normal 0.995185 0.0980138 3.59009e-19
    outer loop
      vertex -2.85 0 0
      vertex -2.79524 -0.556007 3.4
      vertex -2.79524 -0.556007 0
    endloop
  endfacet
  facet normal -0.290281 0.956941 0
    outer loop
      vertex 1.09065 -2.63306 0
      vertex 0.556007 -2.79524 3.4
      vertex 1.09065 -2.63306 3.4
    endloop
  endfacet
  facet normal -0.290281 0.956941 0
    outer loop
      vertex 0.556007 -2.79524 3.4
      vertex 1.09065 -2.63306 0
      vertex 0.556007 -2.79524 0
    endloop
  endfacet
  facet normal -0.471405 0.881917 0
    outer loop
      vertex 1.58337 -2.36969 0
      vertex 1.09065 -2.63306 3.4
      vertex 1.58337 -2.36969 3.4
    endloop
  endfacet
  facet normal -0.471405 0.881917 0
    outer loop
      vertex 1.09065 -2.63306 3.4
      vertex 1.58337 -2.36969 0
      vertex 1.09065 -2.63306 0
    endloop
  endfacet
  facet normal -0.773006 0.634399 -5.41152e-18
    outer loop
      vertex 2.01525 -2.01525 0
      vertex 2.36969 -1.58337 3.4
      vertex 2.36969 -1.58337 0
    endloop
  endfacet
  facet normal -0.773006 0.634399 -5.41152e-18
    outer loop
      vertex 2.36969 -1.58337 3.4
      vertex 2.01525 -2.01525 0
      vertex 2.01525 -2.01525 3.4
    endloop
  endfacet
  facet normal -0.881917 0.471405 -5.26081e-19
    outer loop
      vertex 2.36969 -1.58337 0
      vertex 2.63306 -1.09065 3.4
      vertex 2.63306 -1.09065 0
    endloop
  endfacet
  facet normal -0.881917 0.471405 -5.26081e-19
    outer loop
      vertex 2.63306 -1.09065 3.4
      vertex 2.36969 -1.58337 0
      vertex 2.36969 -1.58337 3.4
    endloop
  endfacet
  facet normal -0.0980138 0.995185 0
    outer loop
      vertex 0.556007 -2.79524 0
      vertex 0 -2.85 3.4
      vertex 0.556007 -2.79524 3.4
    endloop
  endfacet
  facet normal -0.0980138 0.995185 0
    outer loop
      vertex 0 -2.85 3.4
      vertex 0.556007 -2.79524 0
      vertex 0 -2.85 0
    endloop
  endfacet
  facet normal 0.471405 0.881917 -0
    outer loop
      vertex -1.09065 -2.63306 0
      vertex -1.58337 -2.36969 3.4
      vertex -1.09065 -2.63306 3.4
    endloop
  endfacet
  facet normal 0.471405 0.881917 0
    outer loop
      vertex -1.58337 -2.36969 3.4
      vertex -1.09065 -2.63306 0
      vertex -1.58337 -2.36969 0
    endloop
  endfacet
  facet normal 0.290281 0.956941 -0
    outer loop
      vertex -0.556007 -2.79524 0
      vertex -1.09065 -2.63306 3.4
      vertex -0.556007 -2.79524 3.4
    endloop
  endfacet
  facet normal 0.290281 0.956941 0
    outer loop
      vertex -1.09065 -2.63306 3.4
      vertex -0.556007 -2.79524 0
      vertex -1.09065 -2.63306 0
    endloop
  endfacet
  facet normal 0 0 -1
    outer loop
      vertex 5 -5 0
      vertex 2.85 0 0
      vertex 5 5 0
    endloop
  endfacet
  facet normal 0 0 -1
    outer loop
      vertex 5 -5 0
      vertex 2.79524 -0.556007 0
      vertex 2.85 0 0
    endloop
  endfacet
  facet normal 0 0 -1
    outer loop
      vertex 5 -5 0
      vertex 2.63306 -1.09065 0
      vertex 2.79524 -0.556007 0
    endloop
  endfacet
  facet normal 0 0 -1
    outer loop
      vertex 5 -5 0
      vertex 2.36969 -1.58337 0
      vertex 2.63306 -1.09065 0
    endloop
  endfacet
  facet normal 0 0 -1
    outer loop
      vertex 5 -5 0
      vertex 2.01525 -2.01525 0
      vertex 2.36969 -1.58337 0
    endloop
  endfacet
  facet normal 0 0 -1
    outer loop
      vertex 5 -5 0
      vertex 1.58337 -2.36969 0
      vertex 2.01525 -2.01525 0
    endloop
  endfacet
  facet normal 0 0 -1
    outer loop
      vertex 5 -5 0
      vertex 1.09065 -2.63306 0
      vertex 1.58337 -2.36969 0
    endloop
  endfacet
  facet normal 0 0 -1
    outer loop
      vertex 5 -5 0
      vertex 0.556007 -2.79524 0
      vertex 1.09065 -2.63306 0
    endloop
  endfacet
  facet normal 0 0 -1
    outer loop
      vertex 5 -5 0
      vertex 0 -2.85 0
      vertex 0.556007 -2.79524 0
    endloop
  endfacet
  facet normal 0 0 -1
    outer loop
      vertex -5 -5 0
      vertex 0 -2.85 0
      vertex 5 -5 0
    endloop
  endfacet
  facet normal -0 0 -1
    outer loop
      vertex 0 -2.85 0
      vertex -5 -5 0
      vertex -0.556007 -2.79524 0
    endloop
  endfacet
  facet normal -0 0 -1
    outer loop
      vertex -2.79524 -0.556007 0
      vertex -5 -5 0
      vertex -2.85 0 0
    endloop
  endfacet
  facet normal -0 0 -1
    outer loop
      vertex -2.63306 -1.09065 0
      vertex -5 -5 0
      vertex -2.79524 -0.556007 0
    endloop
  endfacet
  facet normal -0 0 -1
    outer loop
      vertex -2.36969 -1.58337 0
      vertex -5 -5 0
      vertex -2.63306 -1.09065 0
    endloop
  endfacet
  facet normal -0 0 -1
    outer loop
      vertex -2.01525 -2.01525 0
      vertex -5 -5 0
      vertex -2.36969 -1.58337 0
    endloop
  endfacet
  facet normal -0 0 -1
    outer loop
      vertex -1.58337 -2.36969 0
      vertex -5 -5 0
      vertex -2.01525 -2.01525 0
    endloop
  endfacet
  facet normal -0 0 -1
    outer loop
      vertex -1.09065 -2.63306 0
      vertex -5 -5 0
      vertex -1.58337 -2.36969 0
    endloop
  endfacet
  facet normal -0 0 -1
    outer loop
      vertex -0.556007 -2.79524 0
      vertex -5 -5 0
      vertex -1.09065 -2.63306 0
    endloop
  endfacet
  facet normal 0 0 -1
    outer loop
      vertex 2.79524 0.556007 0
      vertex 5 5 0
      vertex 2.85 0 0
    endloop
  endfacet
  facet normal 0 0 -1
    outer loop
      vertex 2.63306 1.09065 0
      vertex 5 5 0
      vertex 2.79524 0.556007 0
    endloop
  endfacet
  facet normal 0 0 -1
    outer loop
      vertex 2.36969 1.58337 0
      vertex 5 5 0
      vertex 2.63306 1.09065 0
    endloop
  endfacet
  facet normal 0 0 -1
    outer loop
      vertex 2.01525 2.01525 0
      vertex 5 5 0
      vertex 2.36969 1.58337 0
    endloop
  endfacet
  facet normal 0 0 -1
    outer loop
      vertex 1.58337 2.36969 0
      vertex 5 5 0
      vertex 2.01525 2.01525 0
    endloop
  endfacet
  facet normal 0 0 -1
    outer loop
      vertex 1.09065 2.63306 0
      vertex 5 5 0
      vertex 1.58337 2.36969 0
    endloop
  endfacet
  facet normal 0 0 -1
    outer loop
      vertex 0.556007 2.79524 0
      vertex 5 5 0
      vertex 1.09065 2.63306 0
    endloop
  endfacet
  facet normal 0 0 -1
    outer loop
      vertex 0 2.85 0
      vertex 5 5 0
      vertex 0.556007 2.79524 0
    endloop
  endfacet
  facet normal 0 0 -1
    outer loop
      vertex -5 5 0
      vertex 0 2.85 0
      vertex -0.556007 2.79524 0
    endloop
  endfacet
  facet normal 0 0 -1
    outer loop
      vertex -5 5 0
      vertex -0.556007 2.79524 0
      vertex -1.09065 2.63306 0
    endloop
  endfacet
  facet normal 0 0 -1
    outer loop
      vertex -5 5 0
      vertex -2.85 0 0
      vertex -5 -5 0
    endloop
  endfacet
  facet normal 0 0 -1
    outer loop
      vertex -2.85 0 0
      vertex -5 5 0
      vertex -2.79524 0.556007 0
    endloop
  endfacet
  facet normal 0 0 -1
    outer loop
      vertex 0 2.85 0
      vertex -5 5 0
      vertex 5 5 0
    endloop
  endfacet
  facet normal 0 0 -1
    outer loop
      vertex -1.58337 2.36969 0
      vertex -5 5 0
      vertex -1.09065 2.63306 0
    endloop
  endfacet
  facet normal 0 0 -1
    outer loop
      vertex -2.01525 2.01525 0
      vertex -5 5 0
      vertex -1.58337 2.36969 0
    endloop
  endfacet
  facet normal 0 0 -1
    outer loop
      vertex -2.36969 1.58337 0
      vertex -5 5 0
      vertex -2.01525 2.01525 0
    endloop
  endfacet
  facet normal 0 0 -1
    outer loop
      vertex -2.63306 1.09065 0
      vertex -5 5 0
      vertex -2.36969 1.58337 0
    endloop
  endfacet
  facet normal 0 0 -1
    outer loop
      vertex -2.79524 0.556007 0
      vertex -5 5 0
      vertex -2.63306 1.09065 0
    endloop
  endfacet
  facet normal 0.956941 0.290281 4.78912e-19
    outer loop
      vertex -2.63306 -1.09065 3.4
      vertex -2.79524 -0.556007 0
      vertex -2.79524 -0.556007 3.4
    endloop
  endfacet
  facet normal 0.956941 0.290281 4.78912e-19
    outer loop
      vertex -2.79524 -0.556007 0
      vertex -2.63306 -1.09065 3.4
      vertex -2.63306 -1.09065 0
    endloop
  endfacet
  facet normal 0.634399 0.773006 -0
    outer loop
      vertex -1.58337 -2.36969 0
      vertex -2.01525 -2.01525 3.4
      vertex -1.58337 -2.36969 3.4
    endloop
  endfacet
  facet normal 0.634399 0.773006 0
    outer loop
      vertex -2.01525 -2.01525 3.4
      vertex -1.58337 -2.36969 0
      vertex -2.01525 -2.01525 0
    endloop
  endfacet
  facet normal 0.773006 0.634399 5.41152e-18
    outer loop
      vertex -2.01525 -2.01525 3.4
      vertex -2.36969 -1.58337 0
      vertex -2.36969 -1.58337 3.4
    endloop
  endfacet
  facet normal 0.773006 0.634399 5.41152e-18
    outer loop
      vertex -2.36969 -1.58337 0
      vertex -2.01525 -2.01525 3.4
      vertex -2.01525 -2.01525 0
    endloop
  endfacet
  facet normal 0.881917 0.471405 5.26081e-19
    outer loop
      vertex -2.36969 -1.58337 3.4
      vertex -2.63306 -1.09065 0
      vertex -2.63306 -1.09065 3.4
    endloop
  endfacet
  facet normal 0.881917 0.471405 5.26081e-19
    outer loop
      vertex -2.63306 -1.09065 0
      vertex -2.36969 -1.58337 3.4
      vertex -2.36969 -1.58337 0
    endloop
  endfacet
  facet normal -0.995183 -0.0980321 3.69287e-19
    outer loop
      vertex 1.7 0 3.4
      vertex 1.66733 0.331653 10
      vertex 1.66733 0.331653 3.4
    endloop
  endfacet
  facet normal -0.995183 -0.0980321 3.69287e-19
    outer loop
      vertex 1.66733 0.331653 10
      vertex 1.7 0 3.4
      vertex 1.7 0 10
    endloop
  endfacet
  facet normal 0.995183 -0.0980321 -3.69287e-19
    outer loop
      vertex -1.7 0 10
      vertex -1.66733 0.331653 3.4
      vertex -1.66733 0.331653 10
    endloop
  endfacet
  facet normal 0.995183 -0.0980321 -3.69287e-19
    outer loop
      vertex -1.66733 0.331653 3.4
      vertex -1.7 0 10
      vertex -1.7 0 3.4
    endloop
  endfacet
  facet normal -0.0980321 -0.995183 0
    outer loop
      vertex 0 1.7 3.4
      vertex 0.331653 1.66733 10
      vertex 0 1.7 10
    endloop
  endfacet
  facet normal -0.0980321 -0.995183 -0
    outer loop
      vertex 0.331653 1.66733 10
      vertex 0 1.7 3.4
      vertex 0.331653 1.66733 3.4
    endloop
  endfacet
  facet normal 0.0980321 0.995183 -0
    outer loop
      vertex 0 -1.7 3.4
      vertex -0.331653 -1.66733 10
      vertex 0 -1.7 10
    endloop
  endfacet
  facet normal 0.0980321 0.995183 0
    outer loop
      vertex -0.331653 -1.66733 10
      vertex 0 -1.7 3.4
      vertex -0.331653 -1.66733 3.4
    endloop
  endfacet
  facet normal -0.634399 -0.773006 0
    outer loop
      vertex 0.944468 1.4135 3.4
      vertex 1.20208 1.20208 10
      vertex 0.944468 1.4135 10
    endloop
  endfacet
  facet normal -0.634399 -0.773006 -0
    outer loop
      vertex 1.20208 1.20208 10
      vertex 0.944468 1.4135 3.4
      vertex 1.20208 1.20208 3.4
    endloop
  endfacet
  facet normal -0.471381 -0.881929 0
    outer loop
      vertex 0.650561 1.57059 3.4
      vertex 0.944468 1.4135 10
      vertex 0.650561 1.57059 10
    endloop
  endfacet
  facet normal -0.471381 -0.881929 -0
    outer loop
      vertex 0.944468 1.4135 10
      vertex 0.650561 1.57059 3.4
      vertex 0.944468 1.4135 3.4
    endloop
  endfacet
  facet normal 0.634399 -0.773006 0
    outer loop
      vertex -1.20208 1.20208 3.4
      vertex -0.944468 1.4135 10
      vertex -1.20208 1.20208 10
    endloop
  endfacet
  facet normal 0.634399 -0.773006 0
    outer loop
      vertex -0.944468 1.4135 10
      vertex -1.20208 1.20208 3.4
      vertex -0.944468 1.4135 3.4
    endloop
  endfacet
  facet normal 0.290286 -0.95694 0
    outer loop
      vertex -0.650561 1.57059 3.4
      vertex -0.331653 1.66733 10
      vertex -0.650561 1.57059 10
    endloop
  endfacet
  facet normal 0.290286 -0.95694 0
    outer loop
      vertex -0.331653 1.66733 10
      vertex -0.650561 1.57059 3.4
      vertex -0.331653 1.66733 3.4
    endloop
  endfacet
  facet normal -0.881929 0.471381 1.09262e-18
    outer loop
      vertex 1.4135 -0.944468 3.4
      vertex 1.57059 -0.650561 10
      vertex 1.57059 -0.650561 3.4
    endloop
  endfacet
  facet normal -0.881929 0.471381 1.09262e-18
    outer loop
      vertex 1.57059 -0.650561 10
      vertex 1.4135 -0.944468 3.4
      vertex 1.4135 -0.944468 10
    endloop
  endfacet
  facet normal -0.881929 -0.471381 -1.09262e-18
    outer loop
      vertex 1.57059 0.650561 3.4
      vertex 1.4135 0.944468 10
      vertex 1.4135 0.944468 3.4
    endloop
  endfacet
  facet normal -0.881929 -0.471381 -1.09262e-18
    outer loop
      vertex 1.4135 0.944468 10
      vertex 1.57059 0.650561 3.4
      vertex 1.57059 0.650561 10
    endloop
  endfacet
  facet normal -0.95694 -0.290286 3.66933e-19
    outer loop
      vertex 1.66733 0.331653 3.4
      vertex 1.57059 0.650561 10
      vertex 1.57059 0.650561 3.4
    endloop
  endfacet
  facet normal -0.95694 -0.290286 3.66933e-19
    outer loop
      vertex 1.57059 0.650561 10
      vertex 1.66733 0.331653 3.4
      vertex 1.66733 0.331653 10
    endloop
  endfacet
  facet normal -0.773006 -0.634399 -1.38081e-18
    outer loop
      vertex 1.4135 0.944468 3.4
      vertex 1.20208 1.20208 10
      vertex 1.20208 1.20208 3.4
    endloop
  endfacet
  facet normal -0.773006 -0.634399 -1.38081e-18
    outer loop
      vertex 1.20208 1.20208 10
      vertex 1.4135 0.944468 3.4
      vertex 1.4135 0.944468 10
    endloop
  endfacet
  facet normal -0.290286 -0.95694 0
    outer loop
      vertex 0.331653 1.66733 3.4
      vertex 0.650561 1.57059 10
      vertex 0.331653 1.66733 10
    endloop
  endfacet
  facet normal -0.290286 -0.95694 -0
    outer loop
      vertex 0.650561 1.57059 10
      vertex 0.331653 1.66733 3.4
      vertex 0.650561 1.57059 3.4
    endloop
  endfacet
  facet normal 0.881929 -0.471381 1.09262e-18
    outer loop
      vertex -1.57059 0.650561 10
      vertex -1.4135 0.944468 3.4
      vertex -1.4135 0.944468 10
    endloop
  endfacet
  facet normal 0.881929 -0.471381 1.09262e-18
    outer loop
      vertex -1.4135 0.944468 3.4
      vertex -1.57059 0.650561 10
      vertex -1.57059 0.650561 3.4
    endloop
  endfacet
  facet normal 0.773006 -0.634399 1.38081e-18
    outer loop
      vertex -1.4135 0.944468 10
      vertex -1.20208 1.20208 3.4
      vertex -1.20208 1.20208 10
    endloop
  endfacet
  facet normal 0.773006 -0.634399 1.38081e-18
    outer loop
      vertex -1.20208 1.20208 3.4
      vertex -1.4135 0.944468 10
      vertex -1.4135 0.944468 3.4
    endloop
  endfacet
  facet normal 0.95694 -0.290286 -3.66933e-19
    outer loop
      vertex -1.66733 0.331653 10
      vertex -1.57059 0.650561 3.4
      vertex -1.57059 0.650561 10
    endloop
  endfacet
  facet normal 0.95694 -0.290286 -3.66933e-19
    outer loop
      vertex -1.57059 0.650561 3.4
      vertex -1.66733 0.331653 10
      vertex -1.66733 0.331653 3.4
    endloop
  endfacet
  facet normal 0.471381 -0.881929 0
    outer loop
      vertex -0.944468 1.4135 3.4
      vertex -0.650561 1.57059 10
      vertex -0.944468 1.4135 10
    endloop
  endfacet
  facet normal 0.471381 -0.881929 0
    outer loop
      vertex -0.650561 1.57059 10
      vertex -0.944468 1.4135 3.4
      vertex -0.650561 1.57059 3.4
    endloop
  endfacet
  facet normal 0.0980321 -0.995183 0
    outer loop
      vertex -0.331653 1.66733 3.4
      vertex 0 1.7 10
      vertex -0.331653 1.66733 10
    endloop
  endfacet
  facet normal 0.0980321 -0.995183 0
    outer loop
      vertex 0 1.7 10
      vertex -0.331653 1.66733 3.4
      vertex 0 1.7 3.4
    endloop
  endfacet
  facet normal -0.995183 0.0980321 -3.69287e-19
    outer loop
      vertex 1.66733 -0.331653 3.4
      vertex 1.7 0 10
      vertex 1.7 0 3.4
    endloop
  endfacet
  facet normal -0.995183 0.0980321 -3.69287e-19
    outer loop
      vertex 1.7 0 10
      vertex 1.66733 -0.331653 3.4
      vertex 1.66733 -0.331653 10
    endloop
  endfacet
  facet normal -0.0980321 0.995183 0
    outer loop
      vertex 0.331653 -1.66733 3.4
      vertex 0 -1.7 10
      vertex 0.331653 -1.66733 10
    endloop
  endfacet
  facet normal -0.0980321 0.995183 0
    outer loop
      vertex 0 -1.7 10
      vertex 0.331653 -1.66733 3.4
      vertex 0 -1.7 3.4
    endloop
  endfacet
  facet normal -0.773006 0.634399 1.38081e-18
    outer loop
      vertex 1.20208 -1.20208 3.4
      vertex 1.4135 -0.944468 10
      vertex 1.4135 -0.944468 3.4
    endloop
  endfacet
  facet normal -0.773006 0.634399 1.38081e-18
    outer loop
      vertex 1.4135 -0.944468 10
      vertex 1.20208 -1.20208 3.4
      vertex 1.20208 -1.20208 10
    endloop
  endfacet
  facet normal -0.471381 0.881929 0
    outer loop
      vertex 0.944468 -1.4135 3.4
      vertex 0.650561 -1.57059 10
      vertex 0.944468 -1.4135 10
    endloop
  endfacet
  facet normal -0.471381 0.881929 0
    outer loop
      vertex 0.650561 -1.57059 10
      vertex 0.944468 -1.4135 3.4
      vertex 0.650561 -1.57059 3.4
    endloop
  endfacet
  facet normal 0.634399 0.773006 -0
    outer loop
      vertex -0.944468 -1.4135 3.4
      vertex -1.20208 -1.20208 10
      vertex -0.944468 -1.4135 10
    endloop
  endfacet
  facet normal 0.634399 0.773006 0
    outer loop
      vertex -1.20208 -1.20208 10
      vertex -0.944468 -1.4135 3.4
      vertex -1.20208 -1.20208 3.4
    endloop
  endfacet
  facet normal 0.290286 0.95694 -0
    outer loop
      vertex -0.331653 -1.66733 3.4
      vertex -0.650561 -1.57059 10
      vertex -0.331653 -1.66733 10
    endloop
  endfacet
  facet normal 0.290286 0.95694 0
    outer loop
      vertex -0.650561 -1.57059 10
      vertex -0.331653 -1.66733 3.4
      vertex -0.650561 -1.57059 3.4
    endloop
  endfacet
  facet normal 0.881929 0.471381 -1.09262e-18
    outer loop
      vertex -1.4135 -0.944468 10
      vertex -1.57059 -0.650561 3.4
      vertex -1.57059 -0.650561 10
    endloop
  endfacet
  facet normal 0.881929 0.471381 -1.09262e-18
    outer loop
      vertex -1.57059 -0.650561 3.4
      vertex -1.4135 -0.944468 10
      vertex -1.4135 -0.944468 3.4
    endloop
  endfacet
  facet normal 0.773006 0.634399 -1.38081e-18
    outer loop
      vertex -1.20208 -1.20208 10
      vertex -1.4135 -0.944468 3.4
      vertex -1.4135 -0.944468 10
    endloop
  endfacet
  facet normal 0.773006 0.634399 -1.38081e-18
    outer loop
      vertex -1.4135 -0.944468 3.4
      vertex -1.20208 -1.20208 10
      vertex -1.20208 -1.20208 3.4
    endloop
  endfacet
  facet normal 0.995183 0.0980321 3.69287e-19
    outer loop
      vertex -1.66733 -0.331653 10
      vertex -1.7 0 3.4
      vertex -1.7 0 10
    endloop
  endfacet
  facet normal 0.995183 0.0980321 3.69287e-19
    outer loop
      vertex -1.7 0 3.4
      vertex -1.66733 -0.331653 10
      vertex -1.66733 -0.331653 3.4
    endloop
  endfacet
  facet normal -0.290286 0.95694 0
    outer loop
      vertex 0.650561 -1.57059 3.4
      vertex 0.331653 -1.66733 10
      vertex 0.650561 -1.57059 10
    endloop
  endfacet
  facet normal -0.290286 0.95694 0
    outer loop
      vertex 0.331653 -1.66733 10
      vertex 0.650561 -1.57059 3.4
      vertex 0.331653 -1.66733 3.4
    endloop
  endfacet
  facet normal -0.634399 0.773006 0
    outer loop
      vertex 1.20208 -1.20208 3.4
      vertex 0.944468 -1.4135 10
      vertex 1.20208 -1.20208 10
    endloop
  endfacet
  facet normal -0.634399 0.773006 0
    outer loop
      vertex 0.944468 -1.4135 10
      vertex 1.20208 -1.20208 3.4
      vertex 0.944468 -1.4135 3.4
    endloop
  endfacet
  facet normal -0.95694 0.290286 -3.66933e-19
    outer loop
      vertex 1.57059 -0.650561 3.4
      vertex 1.66733 -0.331653 10
      vertex 1.66733 -0.331653 3.4
    endloop
  endfacet
  facet normal -0.95694 0.290286 -3.66933e-19
    outer loop
      vertex 1.66733 -0.331653 10
      vertex 1.57059 -0.650561 3.4
      vertex 1.57059 -0.650561 10
    endloop
  endfacet
  facet normal 0.471381 0.881929 -0
    outer loop
      vertex -0.650561 -1.57059 3.4
      vertex -0.944468 -1.4135 10
      vertex -0.650561 -1.57059 10
    endloop
  endfacet
  facet normal 0.471381 0.881929 0
    outer loop
      vertex -0.944468 -1.4135 10
      vertex -0.650561 -1.57059 3.4
      vertex -0.944468 -1.4135 3.4
    endloop
  endfacet
  facet normal 0.95694 0.290286 3.66933e-19
    outer loop
      vertex -1.57059 -0.650561 10
      vertex -1.66733 -0.331653 3.4
      vertex -1.66733 -0.331653 10
    endloop
  endfacet
  facet normal 0.95694 0.290286 3.66933e-19
    outer loop
      vertex -1.66733 -0.331653 3.4
      vertex -1.57059 -0.650561 10
      vertex -1.57059 -0.650561 3.4
    endloop
  endfacet
  facet normal -1 0 0
    outer loop
      vertex -5 -5 0
      vertex -5 5 10
      vertex -5 5 0
    endloop
  endfacet
  facet normal -1 -0 0
    outer loop
      vertex -5 5 10
      vertex -5 -5 0
      vertex -5 -5 10
    endloop
  endfacet
  facet normal 0 0 1
    outer loop
      vertex 5 5 10
      vertex 1.7 0 10
      vertex 5 -5 10
    endloop
  endfacet
  facet normal 0 0 1
    outer loop
      vertex 5 5 10
      vertex 1.66733 0.331653 10
      vertex 1.7 0 10
    endloop
  endfacet
  facet normal 0 0 1
    outer loop
      vertex 5 5 10
      vertex 1.57059 0.650561 10
      vertex 1.66733 0.331653 10
    endloop
  endfacet
  facet normal 0 0 1
    outer loop
      vertex 5 5 10
      vertex 1.4135 0.944468 10
      vertex 1.57059 0.650561 10
    endloop
  endfacet
  facet normal 0 0 1
    outer loop
      vertex 5 5 10
      vertex 1.20208 1.20208 10
      vertex 1.4135 0.944468 10
    endloop
  endfacet
  facet normal 0 0 1
    outer loop
      vertex 5 5 10
      vertex 0.944468 1.4135 10
      vertex 1.20208 1.20208 10
    endloop
  endfacet
  facet normal 0 0 1
    outer loop
      vertex 5 5 10
      vertex 0.650561 1.57059 10
      vertex 0.944468 1.4135 10
    endloop
  endfacet
  facet normal 0 0 1
    outer loop
      vertex 5 5 10
      vertex 0.331653 1.66733 10
      vertex 0.650561 1.57059 10
    endloop
  endfacet
  facet normal 0 0 1
    outer loop
      vertex 5 5 10
      vertex 0 1.7 10
      vertex 0.331653 1.66733 10
    endloop
  endfacet
  facet normal -0 0 1
    outer loop
      vertex -5 5 10
      vertex 0 1.7 10
      vertex 5 5 10
    endloop
  endfacet
  facet normal 0 0 1
    outer loop
      vertex 0 1.7 10
      vertex -5 5 10
      vertex -0.331653 1.66733 10
    endloop
  endfacet
  facet normal 0 0 1
    outer loop
      vertex -0.331653 1.66733 10
      vertex -5 5 10
      vertex -0.650561 1.57059 10
    endloop
  endfacet
  facet normal 0 0 1
    outer loop
      vertex -1.66733 0.331653 10
      vertex -5 5 10
      vertex -1.7 0 10
    endloop
  endfacet
  facet normal 0 0 1
    outer loop
      vertex -1.57059 0.650561 10
      vertex -5 5 10
      vertex -1.66733 0.331653 10
    endloop
  endfacet
  facet normal 0 0 1
    outer loop
      vertex -1.4135 0.944468 10
      vertex -5 5 10
      vertex -1.57059 0.650561 10
    endloop
  endfacet
  facet normal 0 0 1
    outer loop
      vertex -1.20208 1.20208 10
      vertex -5 5 10
      vertex -1.4135 0.944468 10
    endloop
  endfacet
  facet normal 0 0 1
    outer loop
      vertex -0.944468 1.4135 10
      vertex -5 5 10
      vertex -1.20208 1.20208 10
    endloop
  endfacet
  facet normal 0 0 1
    outer loop
      vertex -0.650561 1.57059 10
      vertex -5 5 10
      vertex -0.944468 1.4135 10
    endloop
  endfacet
  facet normal -0 0 1
    outer loop
      vertex 1.66733 -0.331653 10
      vertex 5 -5 10
      vertex 1.7 0 10
    endloop
  endfacet
  facet normal -0 0 1
    outer loop
      vertex 1.57059 -0.650561 10
      vertex 5 -5 10
      vertex 1.66733 -0.331653 10
    endloop
  endfacet
  facet normal -0 0 1
    outer loop
      vertex 1.4135 -0.944468 10
      vertex 5 -5 10
      vertex 1.57059 -0.650561 10
    endloop
  endfacet
  facet normal -0 0 1
    outer loop
      vertex 1.20208 -1.20208 10
      vertex 5 -5 10
      vertex 1.4135 -0.944468 10
    endloop
  endfacet
  facet normal -0 0 1
    outer loop
      vertex 0.944468 -1.4135 10
      vertex 5 -5 10
      vertex 1.20208 -1.20208 10
    endloop
  endfacet
  facet normal -0 0 1
    outer loop
      vertex 0.650561 -1.57059 10
      vertex 5 -5 10
      vertex 0.944468 -1.4135 10
    endloop
  endfacet
  facet normal -0 0 1
    outer loop
      vertex 0.331653 -1.66733 10
      vertex 5 -5 10
      vertex 0.650561 -1.57059 10
    endloop
  endfacet
  facet normal -0 0 1
    outer loop
      vertex 0 -1.7 10
      vertex 5 -5 10
      vertex 0.331653 -1.66733 10
    endloop
  endfacet
  facet normal 0 0 1
    outer loop
      vertex -5 -5 10
      vertex 0 -1.7 10
      vertex -0.331653 -1.66733 10
    endloop
  endfacet
  facet normal 0 0 1
    outer loop
      vertex -5 -5 10
      vertex -0.331653 -1.66733 10
      vertex -0.650561 -1.57059 10
    endloop
  endfacet
  facet normal 0 0 1
    outer loop
      vertex -5 -5 10
      vertex -0.650561 -1.57059 10
      vertex -0.944468 -1.4135 10
    endloop
  endfacet
  facet normal 0 0 1
    outer loop
      vertex -5 -5 10
      vertex -1.7 0 10
      vertex -5 5 10
    endloop
  endfacet
  facet normal 0 0 1
    outer loop
      vertex -1.7 0 10
      vertex -5 -5 10
      vertex -1.66733 -0.331653 10
    endloop
  endfacet
  facet normal 0 0 1
    outer loop
      vertex -1.66733 -0.331653 10
      vertex -5 -5 10
      vertex -1.57059 -0.650561 10
    endloop
  endfacet
  facet normal 0 0 1
    outer loop
      vertex 0 -1.7 10
      vertex -5 -5 10
      vertex 5 -5 10
    endloop
  endfacet
  facet normal 0 0 1
    outer loop
      vertex -1.20208 -1.20208 10
      vertex -5 -5 10
      vertex -0.944468 -1.4135 10
    endloop
  endfacet
  facet normal 0 0 1
    outer loop
      vertex -1.4135 -0.944468 10
      vertex -5 -5 10
      vertex -1.20208 -1.20208 10
    endloop
  endfacet
  facet normal 0 0 1
    outer loop
      vertex -1.57059 -0.650561 10
      vertex -5 -5 10
      vertex -1.4135 -0.944468 10
    endloop
  endfacet
  facet normal 1 -0 0
    outer loop
      vertex 5 -5 10
      vertex 5 5 0
      vertex 5 5 10
    endloop
  endfacet
  facet normal 1 0 0
    outer loop
      vertex 5 5 0
      vertex 5 -5 10
      vertex 5 -5 0
    endloop
  endfacet
  facet normal 0 1 -0
    outer loop
      vertex 5 5 0
      vertex -5 5 10
      vertex 5 5 10
    endloop
  endfacet
  facet normal 0 1 0
    outer loop
      vertex -5 5 10
      vertex 5 5 0
      vertex -5 5 0
    endloop
  endfacet
  facet normal 0 -1 0
    outer loop
      vertex -5 -5 0
      vertex 5 -5 10
      vertex -5 -5 10
    endloop
  endfacet
  facet normal 0 -1 -0
    outer loop
      vertex 5 -5 10
      vertex -5 -5 0
      vertex 5 -5 0
    endloop
  endfacet
endsolid OpenSCAD_Model
