<?xml version="1.0" encoding="UTF-8" standalone="no"?>
<svg
   xmlns:dc="http://purl.org/dc/elements/1.1/"
   xmlns:cc="http://creativecommons.org/ns#"
   xmlns:rdf="http://www.w3.org/1999/02/22-rdf-syntax-ns#"
   xmlns:svg="http://www.w3.org/2000/svg"
   xmlns="http://www.w3.org/2000/svg"
   xmlns:sodipodi="http://sodipodi.sourceforge.net/DTD/sodipodi-0.dtd"
   xmlns:inkscape="http://www.inkscape.org/namespaces/inkscape"
   version="1.1"
   id="Layer_1"
   x="0px"
   y="0px"
   width="594.5"
   height="111.47733"
   viewBox="0 0 594.49999 111.47733"
   xml:space="preserve"
   sodipodi:docname="dc.svg"
   inkscape:version="1.0.2 (e86c870879, 2021-01-15)"><metadata
   id="metadata33"><rdf:RDF><cc:Work
       rdf:about=""><dc:format>image/svg+xml</dc:format><dc:type
         rdf:resource="http://purl.org/dc/dcmitype/StillImage" /><dc:title></dc:title></cc:Work></rdf:RDF></metadata><defs
   id="defs31">
	
	
	
	
	
	
	
	
	
	
	
</defs><sodipodi:namedview
   pagecolor="#ffffff"
   bordercolor="#666666"
   borderopacity="1"
   objecttolerance="10"
   gridtolerance="10"
   guidetolerance="10"
   inkscape:pageopacity="0"
   inkscape:pageshadow="2"
   inkscape:window-width="2560"
   inkscape:window-height="1360"
   id="namedview29"
   showgrid="false"
   fit-margin-top="0"
   fit-margin-left="0"
   fit-margin-right="0"
   fit-margin-bottom="0"
   inkscape:zoom="2.0928325"
   inkscape:cx="304.85001"
   inkscape:cy="54.581829"
   inkscape:window-x="0"
   inkscape:window-y="40"
   inkscape:window-maximized="1"
   inkscape:current-layer="Layer_1" />
<style
   type="text/css"
   id="style2">
	.st0{fill:#231F20;}
	.st1{fill:#4D87D0;}
</style>
<g
   id="g994"
   transform="translate(0,-2.96817)"><path
     class="st0"
     d="m 149.8,32.4 c 0,-2.5 -0.5,-5.7 -1.6,-7.1 7.2,0 22.8,0 29.5,0 15.4,0 38.6,8.5 38.6,37.3 0,21.4 -16.4,37.3 -38.6,37.3 -4.9,0 -23.5,-0.1 -30.1,-0.1 1.4,-2.5 2.1,-5.9 2.1,-8.6 z m 11,60.3 c 7.1,0.9 13.7,1.2 19.6,0.4 5.7,-0.8 25,-5 24.9,-30.6 -0.1,-24.3 -15.1,-29.8 -26.7,-30.5 -6,-0.4 -11.8,-0.1 -17.9,0.9 z"
     id="path8" /><path
     class="st0"
     d="m 222.6,48.2 11.1,-1.7 c 0,2.3 0,8.9 0,9.7 2.8,-7 11.7,-12.6 24.2,-7.8 l -2.9,7.7 c -11.5,-5.4 -21.3,-0.7 -21.3,12.1 v 26.3 c 0,1.3 0.3,3.8 1,5.4 h -11.5 c 1.2,-1.4 1.7,-4.1 1.7,-5.4 V 56.6 c 0,-2.8 -0.5,-7 -2.3,-8.4 z"
     id="path10" /><path
     class="st0"
     d="m 572.2,53.5 c 0,0.7 0,31.3 0,33.6 0,10.5 7.3,13.4 12.7,13.4 2.3,0.1 5.5,-0.4 7.8,-0.9 L 594,93 c -2.6,1 -5.7,1.2 -7.5,1.2 -3.4,0 -5.8,-2.2 -5.8,-5.7 0,-3.1 -0.1,-34 0,-35 v 0 c 0.5,0 7.5,0 8.2,0 2.3,0.1 4.1,0.2 5.6,0.8 v -6.1 c 0,0 -13.5,0 -13.7,0 l 0.1,-15.7 -10.2,2.8 c 1.4,1.3 1.9,5.2 1.9,7.7 0,0 0,4.7 0,5.3 -0.5,0 -5.6,0 -6.5,0 v 5.2 c 0.7,0 6.1,0 6.1,0 z"
     id="path12" /><path
     class="st0"
     d="m 528.2,89 c 4.4,3.1 11.3,5.9 16.3,5.9 7,0 12,-3.4 12,-9.8 0,-11.8 -27,-9.9 -27,-24.9 0,-10.1 9.1,-14 17.7,-14 2.8,0 9.1,0.6 13.2,2.2 v 6.9 c -3.6,-3.1 -9,-3.8 -12.6,-3.8 -5.7,0 -10,2.8 -10,8.4 0,8.2 26.9,7.7 26.9,24.5 0,10.8 -9.4,15.9 -19.7,15.9 -5,0 -10.3,-0.9 -14.7,-2.1 z"
     id="path14" /><path
     class="st0"
     d="m 365.5,53.6 c 0,-0.6 0,-6.1 0,-6.8 l -11.2,1.7 c 1.3,1.4 2.4,5.8 2.4,9 v 36.7 c 0,1.3 -0.5,4.3 -1.7,5.7 h 12.2 c -1.2,-1.4 -1.7,-4.5 -1.7,-5.7 V 66.6 c 0,-10.1 6.2,-13.6 12.5,-13.6 5.6,0 10.7,2.4 10.7,13.6 v 27.6 c 0,1.3 -0.5,4.3 -1.7,5.7 h 11.8 c -1.2,-1.4 -1.7,-4.5 -1.7,-5.7 V 66.6 c 0,-11.2 6.9,-13.6 12.6,-13.6 5.6,0 11.5,3.5 11.5,13.6 v 27.6 c 0,1.3 -0.5,4.3 -1.7,5.7 h 11.4 c -1.2,-1.4 -1.7,-4.5 -1.7,-5.7 V 61.3 c 0,-5.6 -5.7,-14.6 -19,-14.6 -7.8,0 -12.2,3.4 -15.6,6.4 -2.9,-3.4 -7.6,-6.5 -15.2,-6.5 -7.4,0 -11.8,4.4 -13.9,7 z"
     id="path16" /><path
     class="st0"
     d="m 339.1,70.8 c -1.6,1.5 -4.9,2.7 -8.4,3.1 -9.1,1.2 -16.9,2.7 -16.9,11.5 0,5.2 5.7,9.4 10.2,9.4 12,0 15.1,-8.7 15.1,-15.5 z M 310.8,49.2 c 4.6,-1.8 12,-2.7 16.6,-2.7 11.8,0 19.7,5.9 19.7,19.6 v 22.8 c 0,4.2 0.1,8.2 1.6,11 h -9.5 l -0.3,-6 c -3.6,4.6 -7.9,6.7 -15.2,6.7 -14.4,0 -17.6,-9.8 -17.6,-14.6 0,-16.9 16.1,-17.1 23,-18.1 3.9,-0.5 8.8,-1.6 9.6,-5.3 1.2,-6 -3,-10.5 -11.8,-10.5 -6.4,0 -11.7,2 -16.1,4.6 z m 204.3,21.6 c -1.6,1.5 -4.9,2.7 -8.4,3.1 -9.1,1.2 -16.9,2.7 -16.9,11.5 0,5.2 5.7,9.4 10.2,9.4 12,0 15.1,-8.7 15.1,-15.5 z M 486.8,49.2 c 4.6,-1.8 12,-2.7 16.6,-2.7 11.8,0 19.7,5.9 19.7,19.6 v 22.8 c 0,4.2 -0.9,8.1 1.6,11 h -9.5 l -0.3,-6 c -3.6,4.6 -7.9,6.7 -15.2,6.7 -14.4,0 -17.6,-9.8 -17.6,-14.6 0,-16.9 16.1,-17.1 23,-18.1 3.9,-0.5 8.8,-1.6 9.6,-5.3 1.2,-6 -3,-10.5 -11.8,-10.5 -6.4,0 -11.7,2 -16.1,4.6 z"
     id="path18" /><path
     class="st0"
     d="m 476.7,56.2 c -3.6,-2.1 -9.2,-3.7 -13.1,-3.7 -13.8,0 -20.1,8.5 -20.1,20.7 0,12.1 6.2,21.4 19.7,21.4 4.6,0 10.9,-2.1 15.8,-5.1 l -2,8.9 c -5,1.5 -9.2,2.2 -14.7,2.2 -19,0 -27.8,-13.4 -27.8,-27.4 0,-15.5 11.9,-26.3 28,-26.3 7,0 12.2,1.7 14.3,2.3 z"
     id="path20" /><path
     class="st0"
     d="m 264.5,73.8 c 0,-1.3 0.2,-2.5 0.3,-3.7 h 36.7 c 0,-12.6 -6.3,-23.4 -21.2,-23.4 -15.5,0 -24.7,12.1 -24.7,27.6 0,14 10.2,26.5 27.8,26.5 5.5,0 10.2,-1.4 15.2,-3.1 l 1.8,-8.9 c -4.3,3.5 -11.2,5.6 -17.5,5.6 -11.2,-0.1 -18.4,-8.3 -18.4,-20.6 z m 1.5,-9.3 c 1.2,-6.1 6.9,-12.4 13.7,-12.4 10.4,0 13.4,8.1 13.4,12.4 z"
     id="path22" /><path
     class="st1"
     d="m 77,4.4 c 4.7,0.7 9.5,2.3 12,3.1 5,1.5 13.2,6.3 16.1,8.6 1.4,1.1 4.2,3.9 5.4,5.4 1.1,1.4 3.2,4.4 4.5,6.3 2.1,3.1 4.6,7.7 6.7,11.9 2.3,4.7 2.5,6.1 3.2,10 l 1.6,6.9 c 0.1,1.2 0.3,5.6 -2.3,6.2 -2.6,0.6 -5,-0.6 -6.1,-2.3 -1.6,-2.4 -1.3,-5.8 -3.1,-9.8 -1.4,-3.2 -2,-7.8 -4.2,-11.1 l -1.7,-2.9 c -3,-4.7 -6.2,-8.4 -8.1,-10.8 -1.7,-2 -4.8,-4.8 -7.7,-6.8 -2.7,-1.7 -7.1,-3.5 -10.3,-4.5 -1,-0.3 -5.4,-1.6 -8.1,-2 -3.7,-0.4 -6.1,-1 -9.5,-1.2 -4.3,-0.3 -6.4,-0.7 -11.9,0 -2.1,0.6 -5.5,0.8 -8.5,1.9 -2.4,1 -5.8,2.6 -9.1,4.5 -3.6,2 -9,5.9 -12.6,9.4 -3.6,3.9 -5.4,5.9 -7.9,10.8 -1.1,2.4 -3.2,6.2 -4.1,8.8 -0.6,2.7 -1.7,7.7 -1.5,10.1 0.1,4.4 -0.3,5.3 0,8.8 0,3.2 1.1,5.4 1.5,8.1 0.4,1.8 2.1,8.1 3.2,9.5 4.9,10.5 11.5,15.1 18.8,18.4 2.1,1.1 8.5,2.8 10.4,3.3 3.2,0.6 7.4,1 11.4,1 4.2,0.1 10.1,-0.5 13.6,-1.8 3.8,-1.4 8.3,-3.4 8.2,-3.4 1.8,-1 4.5,-2.6 5.3,-3.3 1.6,-1 2.6,-1.5 3.6,-2.5 1.4,-1.2 2.2,-1.9 3.3,-3.4 0.6,-0.9 1.5,-2.2 2.4,-3.3 1,-1.6 1.5,-3.3 2.5,-5.4 1.1,-3.1 1,-3 1.2,-6.3 0.2,-1 0,-4.2 -0.2,-4.7 -0.5,-3 -0.3,-5.6 -1,-8.5 C 93.1,59.5 92.3,56.6 91.2,52.9 90.1,48.7 86.9,44.8 84.4,42 82.9,40.3 78.2,36.2 71.8,33.7 70,33.1 67,32.4 65.1,32 c -4,-0.4 -4.7,-0.2 -8.6,0.1 -1.3,0.2 -4.4,0.9 -5.6,1.3 -3.3,1.2 -4.5,1.9 -7.9,4 -1.6,0.9 -2.8,1.6 -4.4,3.1 -1.3,1.2 -2.2,3.2 -3.3,4.4 -1.4,1.9 -3,4.5 -4.1,7.3 -1.2,2.8 -1.5,6.7 -1.4,9.2 0,1.9 0.5,5.4 0.7,6.2 0.2,0.8 0.7,3.2 0.8,3.6 0.1,0.5 1.4,3 1.5,3.4 0.7,1.5 2,3.6 4.3,5.8 1.7,1.8 4.9,3.6 7.3,4.3 2.2,1.2 5.8,1.4 7.8,1.4 1,-0.1 3.5,-0.2 4.9,-0.5 2.7,-0.6 3.2,-0.7 6,-1.9 2.5,-1.2 4.2,-1.6 5.9,-2.8 0,0 2.4,-1.9 3.5,-3.2 C 73.1,77 74,73.6 73.9,71.4 73.8,68.5 74.2,66.8 73.6,64.5 73,62.2 72,59.3 70.9,57.6 69.8,55.9 67.4,54.2 64.7,52.8 63.2,52 59.6,51.4 58,51.2 c -2.9,-0.3 -5.3,1 -6.8,2.5 -1.3,1.5 -3.8,4.5 -2.8,7.6 0.9,2.8 2,5.9 6.3,5.6 2.9,0.6 6.3,-0.3 7.4,0.2 1.7,0.9 2.3,3 1.7,4.5 -0.4,2.8 -3.1,3.2 -6,3.4 -2.6,0.4 -9.1,-0.8 -10.6,-1.9 -1,-0.6 -2.4,-2 -3.5,-2.9 C 43,69.5 42.1,68 41.5,67 c -0.7,-1.3 -1.1,-2.3 -1.3,-3.1 -0.2,-1 -0.7,-3 -0.5,-4.9 0.1,-1.3 0.5,-1.9 0.8,-3.8 0.7,-2.2 1.6,-3.8 3,-5.7 1.8,-1.8 4.1,-4 6.4,-5.1 2,-1 5.5,-1.4 8.6,-1.3 2.6,0.2 5.6,0.6 7.6,1.2 3.4,1.2 4.4,1.5 7.2,3.2 2.4,1.5 4.8,4.2 6.1,6.4 2.8,5.8 4.5,12.2 3.3,20.9 -0.1,1.5 -0.6,2.9 -1.5,4.8 -0.8,1.8 -2.3,4 -4.5,5.6 -0.9,0.8 -2.3,1.8 -3.4,2.4 -1.6,1 -2.7,1.5 -4.4,2.4 -1.5,0.7 -3.2,1.5 -5.5,2.1 -2.5,1 -4.3,1 -7.4,1.5 -3,0.8 -11.4,0.2 -16.3,-2 -3.4,-1.4 -7.2,-3.9 -10.1,-7 C 28,82.9 26.4,79.9 26,79.2 23.7,74.8 23.3,70.6 22.9,69.8 22.4,68.6 22.2,66 21.8,64.1 21.4,62.1 21.7,53.5 23.7,48 c 1.2,-2.2 1.8,-4.1 2.6,-5.2 1.4,-2 2.1,-3.3 3.3,-4.7 1.8,-2.2 3.1,-4 4.9,-5.2 4.5,-3.7 8.2,-5.6 13.3,-8 6.3,-2.6 8.2,-2 14.2,-1.9 2.7,0 6.6,0.9 8.5,1.2 3.6,0.5 5.6,1.3 8,2 2.6,0.7 4.1,1.9 6.2,3.1 1.7,1.1 3.8,2.7 5.1,3.9 3.5,2.5 5.1,5.2 7.3,8.5 0.4,0.5 2.9,5.9 3.3,7.4 0.2,0.7 0.8,2.9 1.1,4.2 0.5,2 0.7,3.8 1.2,6 0.5,2.3 1.3,6.7 1.6,10.8 0.6,3.5 -0.4,10.7 -0.9,12.9 -1.2,4.1 -3.4,9.1 -7.6,13.9 -1.8,2.1 -3.7,3.8 -5.9,5.6 -1.7,1.4 -3.1,2.2 -5.8,3.8 -3.5,2.1 -6.2,3.5 -11.2,5.4 -2,0.7 -4.6,1.5 -7.3,2.1 -5.3,0.5 -10.8,1 -16.8,0.3 -6,-0.7 -12,-2.4 -15.5,-3.5 -2,-0.7 -5.7,-2.3 -7.3,-3.2 -1,-0.5 -4.5,-2.9 -5.1,-3.5 C 18.5,102.4 13.2,97.4 9.8,92.8 9,91.4 6.4,87.1 5.8,85.2 4.2,82 3.2,78.1 2.5,76.5 2,73.4 0.8,70.9 0.4,67 0.4,66.1 0.2,64 0,62.8 c 0.3,-2.6 -0.1,-5.1 0.4,-8 0.5,-2.4 1.1,-3.4 1.2,-5.6 0.1,-0.9 1.4,-3.8 1.7,-5 1,-2.1 1.2,-3.8 2.5,-6.1 1.8,-3.6 3.8,-7.8 6.7,-11.4 0.8,-1.1 3.2,-3.8 4,-4.8 1.9,-1.9 3.1,-2.2 5.2,-4.2 0.2,-0.1 1.7,-1.8 3.2,-2.4 2.5,-1.9 4.7,-2.6 7,-4.4 4.8,-2.4 6.5,-3.2 11.2,-5.1 2.7,-1 6.6,-1.5 7.9,-2 2.6,-0.2 5.3,-1 8,-0.8 3.1,0 6.2,0.2 9.3,0.5 2.3,0 5,0.1 8.7,0.9 z"
     id="path24" /></g>
</svg>
