<?xml version="1.0" encoding="UTF-8" standalone="no"?>
<svg
   xmlns:dc="http://purl.org/dc/elements/1.1/"
   xmlns:cc="http://creativecommons.org/ns#"
   xmlns:rdf="http://www.w3.org/1999/02/22-rdf-syntax-ns#"
   xmlns:svg="http://www.w3.org/2000/svg"
   xmlns="http://www.w3.org/2000/svg"
   xmlns:sodipodi="http://sodipodi.sourceforge.net/DTD/sodipodi-0.dtd"
   xmlns:inkscape="http://www.inkscape.org/namespaces/inkscape"
   viewBox="0 0 1699.1169 452.53299"
   version="1.1"
   id="svg4"
   sodipodi:docname="video.svg"
   width="1699.1169"
   height="452.53299"
   inkscape:version="1.0.2 (e86c870879, 2021-01-15)">
  <metadata
     id="metadata10">
    <rdf:RDF>
      <cc:Work
         rdf:about="">
        <dc:format>image/svg+xml</dc:format>
        <dc:type
           rdf:resource="http://purl.org/dc/dcmitype/StillImage" />
        <dc:title></dc:title>
      </cc:Work>
    </rdf:RDF>
  </metadata>
  <defs
     id="defs8" />
  <sodipodi:namedview
     pagecolor="#ffffff"
     bordercolor="#666666"
     borderopacity="1"
     objecttolerance="10"
     gridtolerance="10"
     guidetolerance="10"
     inkscape:pageopacity="0"
     inkscape:pageshadow="2"
     inkscape:window-width="2560"
     inkscape:window-height="1360"
     id="namedview6"
     showgrid="false"
     fit-margin-top="0"
     fit-margin-left="0"
     fit-margin-right="0"
     fit-margin-bottom="0"
     inkscape:zoom="0.4921875"
     inkscape:cx="524.77095"
     inkscape:cy="379.79799"
     inkscape:window-x="0"
     inkscape:window-y="40"
     inkscape:window-maximized="1"
     inkscape:current-layer="svg4"
     inkscape:document-rotation="0" />
  <text
     xml:space="preserve"
     style="font-size:39.9999px;line-height:125%;font-family:Unifont;-inkscape-font-specification:'Unifont, Normal';letter-spacing:0px;word-spacing:0px;fill:none;stroke:#000000;stroke-width:1px;stroke-linecap:butt;stroke-linejoin:miter;stroke-opacity:1"
     x="-491.11884"
     y="22.000769"
     id="text837"><tspan
       sodipodi:role="line"
       id="tspan835"
       x="-491.11884"
       y="22.000769" /></text>
  <path
     d="m 381.91926,356.16357 c -6.4,27.4 -27.2,42.8 -55.1,48 -24.5,4.5 -44.9,5.6 -64.5,-10.2 -23.9,-20.1 -24.2,-53.4 -2.7,-74.4 17,-16.2 40.9,-19.5 76.8,-25.8 6,-1.1 11.2,-2.5 15.6,-7.4 6.4,-7.2 4.4,-4.1 4.4,-163.2 0,-11.2 -5.5,-14.3 -17,-12.3 -8.2,1.4 -185.7,34.6 -185.7,34.6 -10.2,2.2 -13.4,5.2 -13.4,16.7 0,234.7 1.1,223.9 -2.5,239.5 -4.2,18.2 -15.4,31.9 -30.2,39.5 -16.800004,9.3 -47.200004,13.4 -63.400004,10.4 -43.2000003,-8.1 -58.4,-58 -29.1,-86.6 17,-16.2 40.9,-19.5 76.8,-25.8 6,-1.1 11.200004,-2.5 15.600004,-7.4 10.1,-11.5 1.8,-256.599998 5.2,-270.199998 0.8,-5.2 3,-9.6 7.1,-12.9 4.2,-3.5 11.8,-5.5 13.4,-5.5 204,-38.1999998 228.9,-43.09999983 232.4,-43.09999983 11.5,-0.8 18.1,6.00000003 18.1,17.59999983 0.2,344.499998 1.1,325.999998 -1.8,338.499998 z"
     id="path2" />
  <g
     aria-label="AUDIO"
     id="text879"
     style="font-style:normal;font-variant:normal;font-weight:normal;font-stretch:normal;font-size:426.958px;line-height:125%;font-family:'Trebuchet MS';-inkscape-font-specification:'Trebuchet MS, Normal';font-variant-ligatures:normal;font-variant-caps:normal;font-variant-numeric:normal;font-variant-east-asian:normal;letter-spacing:0px;word-spacing:0px;fill:#000000;stroke:#000000;stroke-width:10.674px;stroke-linecap:butt;stroke-linejoin:miter;stroke-opacity:1">
    <path
       d="M 717.69721,379.0791 696.64118,314.66014 H 583.02198 L 560.50662,379.0791 H 513.80808 L 637.85106,69.492851 h 11.04921 L 763.97879,379.0791 Z M 641.39515,149.54748 594.07119,284.01423 h 90.68688 z"
       style="font-style:normal;font-variant:normal;font-weight:normal;font-stretch:normal;font-size:426.958px;font-family:'Trebuchet MS';-inkscape-font-specification:'Trebuchet MS, Normal';font-variant-ligatures:normal;font-variant-caps:normal;font-variant-numeric:normal;font-variant-east-asian:normal;stroke-width:10.674px"
       id="path873" />
    <path
       d="m 796.08404,73.662363 h 41.69511 V 282.76338 q 0,27.93573 17.72043,46.0731 17.72043,17.92891 46.90701,17.92891 30.85438,0 48.57481,-17.51195 17.72043,-17.51195 17.72043,-47.53244 V 73.662363 h 41.69507 V 286.09899 q 0,46.28158 -28.97806,72.34103 -28.76964,25.85097 -78.5953,25.85097 -51.285,0 -79.01225,-25.43402 -27.72725,-25.43402 -27.72725,-72.96646 z"
       style="font-style:normal;font-variant:normal;font-weight:normal;font-stretch:normal;font-size:426.958px;font-family:'Trebuchet MS';-inkscape-font-specification:'Trebuchet MS, Normal';font-variant-ligatures:normal;font-variant-caps:normal;font-variant-numeric:normal;font-variant-east-asian:normal;stroke-width:10.674px"
       id="path875" />
    <path
       d="m 1134.4399,379.0791 h -61.5003 V 73.662363 q 58.7901,-2.084756 75.2597,-2.084756 64.002,0 101.3191,38.984933 37.3172,38.77646 37.3172,103.40389 0,165.11267 -152.3957,165.11267 z m -19.8052,-267.89113 v 228.28077 q 13.9679,2.08476 34.607,2.08476 43.7799,0 68.7969,-32.73067 25.0171,-32.93915 25.0171,-91.31231 0,-108.40731 -97.3581,-108.40731 -5.8373,0 -31.0629,2.08476 z"
       style="font-style:normal;font-variant:normal;font-weight:normal;font-stretch:normal;font-size:426.958px;font-family:'Trebuchet MS';-inkscape-font-specification:'Trebuchet MS, Normal';font-variant-ligatures:normal;font-variant-caps:normal;font-variant-numeric:normal;font-variant-east-asian:normal;stroke-width:10.674px"
       id="path877" />
    <path
       d="M 1342.0816,379.0791 V 73.662363 h 41.6951 V 379.0791 Z"
       style="font-style:normal;font-variant:normal;font-weight:normal;font-stretch:normal;font-size:426.958px;font-family:'Trebuchet MS';-inkscape-font-specification:'Trebuchet MS, Normal';font-variant-ligatures:normal;font-variant-caps:normal;font-variant-numeric:normal;font-variant-east-asian:normal;stroke-width:10.674px"
       id="path879" />
    <path
       d="m 1439.4397,223.76479 q 0,-66.29524 33.1476,-110.90902 33.3561,-44.613773 89.853,-44.613773 63.5851,0 97.3581,41.069693 33.9815,41.06969 33.9815,114.4531 0,75.25969 -33.9815,117.99718 -33.9815,42.52902 -97.3581,42.52902 -57.7477,0 -90.4784,-45.03073 -32.5222,-45.03072 -32.5222,-115.49547 z m 43.7799,0 q 0,52.53585 20.6391,87.76822 20.8475,35.23238 58.5816,35.23238 42.7375,0 65.0444,-32.31372 22.5154,-32.31372 22.5154,-90.68688 0,-117.99719 -87.5598,-117.99719 -38.7765,0 -58.9986,31.68829 -20.2221,31.68829 -20.2221,86.3089 z"
       style="font-style:normal;font-variant:normal;font-weight:normal;font-stretch:normal;font-size:426.958px;font-family:'Trebuchet MS';-inkscape-font-specification:'Trebuchet MS, Normal';font-variant-ligatures:normal;font-variant-caps:normal;font-variant-numeric:normal;font-variant-east-asian:normal;stroke-width:10.674px"
       id="path881" />
  </g>
</svg>
