<?xml version="1.0" encoding="UTF-8" standalone="no"?>
<svg
   xmlns:dc="http://purl.org/dc/elements/1.1/"
   xmlns:cc="http://creativecommons.org/ns#"
   xmlns:rdf="http://www.w3.org/1999/02/22-rdf-syntax-ns#"
   xmlns:svg="http://www.w3.org/2000/svg"
   xmlns="http://www.w3.org/2000/svg"
   xmlns:xlink="http://www.w3.org/1999/xlink"
   xmlns:sodipodi="http://sodipodi.sourceforge.net/DTD/sodipodi-0.dtd"
   xmlns:inkscape="http://www.inkscape.org/namespaces/inkscape"
   version="1.1"
   id="Capa_1"
   x="0px"
   y="0px"
   viewBox="0 0 2428.5108 285.98802"
   xml:space="preserve"
   sodipodi:docname="pc.svg"
   width="2428.5107"
   height="285.98801"
   inkscape:version="1.0.2 (e86c870879, 2021-01-15)"><metadata
   id="metadata39"><rdf:RDF><cc:Work
       rdf:about=""><dc:format>image/svg+xml</dc:format><dc:type
         rdf:resource="http://purl.org/dc/dcmitype/StillImage" /><dc:title></dc:title></cc:Work></rdf:RDF></metadata><defs
   id="defs37"><linearGradient
     inkscape:collect="always"
     id="linearGradient908"><stop
       style="stop-color:#000000;stop-opacity:1;"
       offset="0"
       id="stop904" /><stop
       style="stop-color:#000000;stop-opacity:0;"
       offset="1"
       id="stop906" /></linearGradient><linearGradient
     inkscape:collect="always"
     xlink:href="#linearGradient908"
     id="linearGradient910"
     x1="751.37592"
     y1="64.402412"
     x2="1089.4454"
     y2="64.402412"
     gradientUnits="userSpaceOnUse" /></defs><sodipodi:namedview
   pagecolor="#ffffff"
   bordercolor="#666666"
   borderopacity="1"
   objecttolerance="10"
   gridtolerance="10"
   guidetolerance="10"
   inkscape:pageopacity="0"
   inkscape:pageshadow="2"
   inkscape:window-width="2560"
   inkscape:window-height="1360"
   id="namedview35"
   showgrid="false"
   fit-margin-top="0"
   fit-margin-left="0"
   fit-margin-right="0"
   fit-margin-bottom="0"
   inkscape:zoom="0.54178663"
   inkscape:cx="947.35736"
   inkscape:cy="394.81287"
   inkscape:window-x="0"
   inkscape:window-y="40"
   inkscape:window-maximized="1"
   inkscape:current-layer="Capa_1" />
<path
   d="M 328.895,218.57 V 0 H 0 v 218.57 h 139.283 v 31.172 H 89.438 l -14.533,36.246 h 179.059 l -14.5,-36.246 H 189.617 V 218.57 Z M 29.61,30.859 h 269.674 v 156.82 H 29.61 Z"
   id="path2" />
<g
   id="g4"
   transform="translate(0,-21.453)">
</g>
<g
   id="g6"
   transform="translate(0,-21.453)">
</g>
<g
   id="g8"
   transform="translate(0,-21.453)">
</g>
<g
   id="g10"
   transform="translate(0,-21.453)">
</g>
<g
   id="g12"
   transform="translate(0,-21.453)">
</g>
<g
   id="g14"
   transform="translate(0,-21.453)">
</g>
<g
   id="g16"
   transform="translate(0,-21.453)">
</g>
<g
   id="g18"
   transform="translate(0,-21.453)">
</g>
<g
   id="g20"
   transform="translate(0,-21.453)">
</g>
<g
   id="g22"
   transform="translate(0,-21.453)">
</g>
<g
   id="g24"
   transform="translate(0,-21.453)">
</g>
<g
   id="g26"
   transform="translate(0,-21.453)">
</g>
<g
   id="g28"
   transform="translate(0,-21.453)">
</g>
<g
   id="g30"
   transform="translate(0,-21.453)">
</g>
<g
   id="g32"
   transform="translate(0,-21.453)">
</g>
<g
   aria-label="Personal Computer"
   transform="scale(1.028951,0.97186358)"
   id="text902"
   style="font-style:normal;font-variant:normal;font-weight:normal;font-stretch:normal;font-size:231.072px;line-height:125%;font-family:'Trebuchet MS';-inkscape-font-specification:'Trebuchet MS, Normal';font-variant-ligatures:normal;font-variant-caps:normal;font-variant-numeric:normal;font-variant-east-asian:normal;letter-spacing:0px;word-spacing:0px;fill:#000000;fill-opacity:1;stroke:#000000;stroke-width:5.77683px;stroke-linecap:butt;stroke-linejoin:miter;stroke-opacity:1"><path
     d="M 425.78516,156.73583 V 220.3709 H 403.21954 V 55.077688 q 25.61198,-1.128281 30.9149,-1.128281 71.98435,0 71.98435,48.177613 0,55.73709 -63.63506,55.73709 -3.83616,0 -16.69857,-1.12828 z m 0,-81.349079 v 61.040019 q 14.32918,1.12828 15.11897,1.12828 41.97207,0 41.97207,-33.05864 0,-30.23794 -44.79277,-30.23794 -4.51313,0 -12.29827,1.128281 z"
     style="fill:#000000;fill-opacity:1;stroke:#000000;stroke-width:5.77683px;stroke-opacity:1"
     id="path917" /><path
     d="m 632.37347,162.03875 h -87.10332 q 0,21.21169 11.6213,32.60733 10.26736,9.92888 26.40178,9.92888 18.39098,0 30.68925,-10.71867 l 9.02625,15.45745 q -4.96444,4.96444 -15.2318,8.57494 -12.8624,4.73878 -28.65834,4.73878 -22.79128,0 -38.70005,-15.45746 -17.71401,-17.03704 -17.71401,-45.80822 0,-29.89945 18.16532,-47.95195 16.24725,-16.134422 38.4744,-16.134422 25.83764,0 40.50529,14.554832 14.21635,13.99068 14.21635,37.12045 0,7.10817 -1.69242,13.08806 z M 580.3597,115.32791 q -14.32917,0 -24.03239,9.2519 -9.25191,8.8006 -10.49302,21.88866 h 66.90708 q 0,-12.97523 -8.12362,-21.663 -8.91343,-9.47756 -24.25805,-9.47756 z"
     style="fill:#000000;fill-opacity:1;stroke:#000000;stroke-width:5.77683px;stroke-opacity:1"
     id="path919" /><path
     d="m 722.18466,120.17952 q -6.99534,-4.85161 -14.10351,-4.85161 -11.39564,0 -19.97058,10.49301 -8.46211,10.49302 -8.46211,25.2735 V 220.3709 H 658.21111 V 99.53197 h 21.43735 v 19.29361 q 11.73412,-21.550172 34.86389,-21.550172 5.75424,0 16.58574,2.030906 z"
     style="fill:#000000;fill-opacity:1;stroke:#000000;stroke-width:5.77683px;stroke-opacity:1"
     id="path921" /><path
     d="m 738.43191,213.1499 7.55949,-20.30907 q 17.93967,11.73413 28.884,11.73413 19.85775,0 19.85775,-16.69857 0,-11.95978 -19.18078,-20.53471 -14.78049,-6.76969 -19.97058,-10.26736 -5.07727,-3.49768 -8.91342,-7.89797 -3.72333,-4.51313 -5.64141,-9.47757 -1.80525,-5.07726 -1.80525,-10.8315 0,-14.89331 10.8315,-23.24259 10.8315,-8.349282 28.31986,-8.349282 13.20089,0 33.2843,8.349282 l -6.09272,19.85775 q -12.74958,-10.15453 -25.61199,-10.15453 -7.67231,0 -12.97523,3.6105 -5.1901,3.6105 -5.1901,9.13908 0,11.62129 13.2009,17.60118 l 15.34462,6.99535 q 14.10352,6.4312 20.53472,14.66766 6.4312,8.23645 6.4312,20.64754 0,16.24725 -11.39564,25.49916 -11.39564,9.13908 -31.59187,9.13908 -19.06796,0 -35.87935,-9.47756 z"
     style="fill:#000000;fill-opacity:1;stroke:#000000;stroke-width:5.77683px;stroke-opacity:1"
     id="path923" /><path
     d="m 831.8536,159.66936 q 0,-27.98137 15.00614,-45.13125 15.11897,-17.262702 39.71551,-17.262702 25.95047,0 40.27964,16.585732 14.32917,16.47291 14.32917,45.80822 0,29.22249 -14.66766,46.14671 -14.66765,16.81139 -39.94115,16.81139 -25.83765,0 -40.27965,-17.03705 -14.442,-17.03705 -14.442,-45.92105 z m 22.56563,0 q 0,45.46974 32.15602,45.46974 15.00614,0 23.46825,-12.18544 8.57493,-12.18544 8.57493,-33.2843 0,-44.90559 -32.04318,-44.90559 -14.66766,0 -23.46825,11.95978 -8.68777,11.95978 -8.68777,32.94581 z"
     style="fill:#000000;fill-opacity:1;stroke:#000000;stroke-width:5.77683px;stroke-opacity:1"
     id="path925" /><path
     d="m 1038.2162,220.3709 v -70.29193 q 0,-19.29361 -5.867,-26.96592 -5.7543,-7.78514 -19.4065,-7.78514 -7.3338,0 -15.34459,4.4003 -8.01079,4.40029 -12.29826,10.8315 V 220.3709 H 963.8625 V 99.53197 h 14.66766 l 6.76969,15.57028 q 10.60584,-17.826842 34.63825,-17.826842 39.7155,0 39.7155,48.290442 v 74.80505 z"
     style="fill:#000000;fill-opacity:1;stroke:#000000;stroke-width:5.77683px;stroke-opacity:1"
     id="path927" /><path
     d="m 1158.491,206.49304 q -12.8624,16.13442 -39.377,16.13442 -14.2163,0 -24.7094,-10.26736 -10.3802,-10.38019 -10.3802,-25.72481 0,-18.39099 16.0216,-31.02774 16.1345,-12.74958 41.0695,-12.74958 6.7697,0 15.3446,2.93353 0,-29.33531 -26.1761,-29.33531 -20.0834,0 -30.9149,10.8315 l -9.0263,-17.93967 q 6.0927,-4.96444 16.8114,-8.46211 10.8315,-3.610502 20.6476,-3.610502 26.2889,0 38.1359,11.959782 11.9598,11.95978 11.9598,38.02308 v 43.326 q 0,15.90877 9.4775,21.21169 v 10.71867 q -13.088,0 -19.6321,-3.72333 -6.4312,-3.72333 -9.2519,-12.29826 z m -2.0309,-45.46974 q -10.1545,-2.25656 -14.2163,-2.25656 -16.2473,0 -26.5146,8.34928 -10.2674,8.34928 -10.2674,19.74492 0,18.8423 22.2271,18.8423 16.2473,0 28.7712,-15.45745 z"
     style="fill:#000000;fill-opacity:1;stroke:#000000;stroke-width:5.77683px;stroke-opacity:1"
     id="path929" /><path
     d="M 1213.3255,186.18397 V 50.000422 h 21.4373 V 182.57347 q 0,9.70322 5.5286,15.34463 5.6414,5.52858 14.6677,5.52858 v 19.18078 q -41.6336,0 -41.6336,-36.44349 z"
     style="fill:#000000;fill-opacity:1;stroke:#000000;stroke-width:5.77683px;stroke-opacity:1"
     id="path931" /><path
     d="m 1456.4701,61.170407 -7.5595,19.29361 q -10.8315,-7.897969 -34.0741,-7.897969 -21.7758,0 -34.9767,18.729469 -13.088,18.729473 -13.088,48.290443 0,28.20703 13.4265,45.80822 13.5394,17.48836 34.8639,17.48836 23.2426,0 35.7665,-16.47291 l 12.4111,17.2627 q -19.6321,19.51927 -50.547,19.51927 -32.3817,0 -50.9983,-23.35542 -18.6166,-23.35543 -18.6166,-61.60416 0,-37.00763 19.8577,-61.491332 19.8578,-24.483703 51.3368,-24.483703 26.9659,0 42.1977,8.913422 z"
     style="fill:#000000;fill-opacity:1;stroke:#000000;stroke-width:5.77683px;stroke-opacity:1"
     id="path933" /><path
     d="m 1479.4871,159.66936 q 0,-27.98137 15.0061,-45.13125 15.119,-17.262702 39.7155,-17.262702 25.9505,0 40.2796,16.585732 14.3292,16.47291 14.3292,45.80822 0,29.22249 -14.6676,46.14671 -14.6677,16.81139 -39.9412,16.81139 -25.8376,0 -40.2796,-17.03705 -14.442,-17.03705 -14.442,-45.92105 z m 22.5656,0 q 0,45.46974 32.156,45.46974 15.0061,0 23.4682,-12.18544 8.575,-12.18544 8.575,-33.2843 0,-44.90559 -32.0432,-44.90559 -14.6677,0 -23.4683,11.95978 -8.6877,11.95978 -8.6877,32.94581 z"
     style="fill:#000000;fill-opacity:1;stroke:#000000;stroke-width:5.77683px;stroke-opacity:1"
     id="path935" /><path
     d="m 1751.4029,220.3709 v -76.49748 q 0,-28.54551 -24.7094,-28.54551 -7.7851,0 -14.5548,4.85161 -6.7697,4.73878 -9.2519,10.8315 v 89.35988 h -21.4374 v -85.86221 q 0,-8.91342 -6.7697,-13.99069 -6.6568,-5.19009 -17.714,-5.19009 -6.4312,0 -13.765,4.96444 -7.221,4.96443 -10.2674,10.94432 V 220.3709 H 1611.496 V 99.53197 h 13.9907 l 7.1081,13.99069 q 12.4111,-16.247252 31.0278,-16.247252 25.9505,0 36.3306,16.134422 3.6105,-6.88252 13.4266,-11.50847 9.816,-4.625952 20.1962,-4.625952 18.7295,0 28.9969,11.169982 10.2673,11.05716 10.2673,31.14057 v 80.78494 z"
     style="fill:#000000;fill-opacity:1;stroke:#000000;stroke-width:5.77683px;stroke-opacity:1"
     id="path937" /><path
     d="m 1824.7411,213.71404 v 54.04467 h -21.4374 V 99.53197 h 21.4374 v 9.92888 q 12.1854,-12.185442 29.4481,-12.185442 25.7248,0 40.054,16.021592 14.3292,16.0216 14.3292,46.9365 0,27.53007 -14.442,45.01843 -14.442,17.37553 -41.7464,17.37553 -7.6723,0 -16.4729,-2.70788 -8.6878,-2.70787 -11.17,-6.20554 z m 0,-88.11877 v 70.40475 q 2.0309,3.04636 8.5749,5.86706 6.544,2.70788 12.7496,2.70788 39.9411,0 39.9411,-45.13125 0,-22.90411 -9.4775,-33.50996 -9.4776,-10.60584 -30.3508,-10.60584 -4.5131,0 -11.0571,3.15919 -6.5441,3.15918 -10.3802,7.10817 z"
     style="fill:#000000;fill-opacity:1;stroke:#000000;stroke-width:5.77683px;stroke-opacity:1"
     id="path939" /><path
     d="m 1952.2369,99.53197 v 77.06161 q 0,27.98138 24.2581,27.98138 10.6058,0 19.4064,-6.09272 8.8006,-6.09272 11.6213,-14.10352 V 99.53197 h 21.4374 V 220.3709 h -21.4374 v -16.69857 q -3.6105,7.10817 -14.5548,13.08807 -10.8315,5.86706 -21.2117,5.86706 -19.8577,0 -30.4636,-11.39564 -10.493,-11.39564 -10.493,-32.38168 V 99.53197 Z"
     style="fill:#000000;fill-opacity:1;stroke:#000000;stroke-width:5.77683px;stroke-opacity:1"
     id="path941" /><path
     d="m 2065.9676,116.45619 h -13.9907 V 99.53197 h 13.9907 v -25.2735 l 21.4374,-8.236454 V 99.53197 h 33.1714 v 16.92422 h -33.1714 v 60.02456 q 0,15.2318 5.0772,21.663 5.1901,6.43121 16.5858,6.43121 8.2364,0 17.037,-4.17464 l 3.1592,18.84229 q -13.3137,3.38485 -29.2225,3.38485 -14.3292,0 -24.258,-10.60585 -9.8161,-10.71867 -9.8161,-26.96592 z"
     style="fill:#000000;fill-opacity:1;stroke:#000000;stroke-width:5.77683px;stroke-opacity:1"
     id="path943" /><path
     d="m 2251.6827,162.03875 h -87.1033 q 0,21.21169 11.6213,32.60733 10.2674,9.92888 26.4018,9.92888 18.391,0 30.6892,-10.71867 l 9.0263,15.45745 q -4.9644,4.96444 -15.2318,8.57494 -12.8624,4.73878 -28.6583,4.73878 -22.7913,0 -38.7001,-15.45746 -17.714,-17.03704 -17.714,-45.80822 0,-29.89945 18.1653,-47.95195 16.2473,-16.134422 38.4744,-16.134422 25.8377,0 40.5053,14.554832 14.2164,13.99068 14.2164,37.12045 0,7.10817 -1.6925,13.08806 z m -52.0137,-46.71084 q -14.3292,0 -24.0324,9.2519 -9.2519,8.8006 -10.493,21.88866 h 66.907 q 0,-12.97523 -8.1236,-21.663 -8.9134,-9.47756 -24.258,-9.47756 z"
     style="fill:#000000;fill-opacity:1;stroke:#000000;stroke-width:5.77683px;stroke-opacity:1"
     id="path945" /><path
     d="m 2341.494,120.17952 q -6.9954,-4.85161 -14.1035,-4.85161 -11.3957,0 -19.9706,10.49301 -8.4621,10.49302 -8.4621,25.2735 v 69.27648 h -21.4374 V 99.53197 h 21.4374 v 19.29361 q 11.7341,-21.550172 34.8639,-21.550172 5.7542,0 16.5857,2.030906 z"
     style="fill:#000000;fill-opacity:1;stroke:#000000;stroke-width:5.77683px;stroke-opacity:1"
     id="path947" /></g></svg>
