  0
SECTION
  2
HEADER
  9
$ACADVER
  1
AC1009
  9
$EXTMIN
 10
0.0
 20
0.0
 30
0.0
  9
$EXTMAX
 10
1000.0
 20
1000.0
 30
0.0
  9
$FILLMODE
 70
 0
  9
$SPLFRAME
 70
 1
  0
ENDSEC
  0
SECTION
  2
TABLES
  0
TABLE
  2
LAYER
 70
1
  0
LAYER
  2
0
 70
     0
 62
     7
  6
CONTINUOUS
  0
ENDTAB
  0
ENDSEC
  0
SECTION
  2
ENTITIES
  0
LINE
  8
0
 62
     0
 10
84.0754
 20
0.0206706
 30
0.0
 11
83.56
 21
1.57786
 31
0.0
  0
LINE
  8
0
 62
     0
 10
83.56
 20
1.57786
 30
0.0
 11
83.56
 21
0.0206706
 31
0.0
  0
LINE
  8
0
 62
     0
 10
83.56
 20
0.0206706
 30
0.0
 11
83.2997
 21
0.0206706
 31
0.0
  0
LINE
  8
0
 62
     0
 10
83.2997
 20
0.0206706
 30
0.0
 11
83.2997
 21
1.93752
 31
0.0
  0
LINE
  8
0
 62
     0
 10
83.2997
 20
1.93752
 30
0.0
 11
83.6581
 21
1.93752
 31
0.0
  0
LINE
  8
0
 62
     0
 10
83.6581
 20
1.93752
 30
0.0
 11
84.2133
 21
0.300412
 31
0.0
  0
LINE
  8
0
 62
     0
 10
84.2133
 20
0.300412
 30
0.0
 11
84.752
 21
1.93752
 31
0.0
  0
LINE
  8
0
 62
     0
 10
84.752
 20
1.93752
 30
0.0
 11
85.109
 21
1.93752
 31
0.0
  0
LINE
  8
0
 62
     0
 10
85.109
 20
1.93752
 30
0.0
 11
85.109
 21
0.0206706
 31
0.0
  0
LINE
  8
0
 62
     0
 10
85.109
 20
0.0206706
 30
0.0
 11
84.8501
 21
0.0206706
 31
0.0
  0
LINE
  8
0
 62
     0
 10
84.8501
 20
0.0206706
 30
0.0
 11
84.8501
 21
1.57786
 31
0.0
  0
LINE
  8
0
 62
     0
 10
84.8501
 20
1.57786
 30
0.0
 11
84.3333
 21
0.0206706
 31
0.0
  0
LINE
  8
0
 62
     0
 10
84.3333
 20
0.0206706
 30
0.0
 11
84.0754
 21
0.0206706
 31
0.0
  0
LINE
  8
0
 62
     0
 10
82.1877
 20
1.71841
 30
0.0
 11
81.5728
 21
1.71841
 31
0.0
  0
LINE
  8
0
 62
     0
 10
81.5728
 20
1.71841
 30
0.0
 11
81.5728
 21
1.93752
 31
0.0
  0
LINE
  8
0
 62
     0
 10
81.5728
 20
1.93752
 30
0.0
 11
83.0612
 21
1.93752
 31
0.0
  0
LINE
  8
0
 62
     0
 10
83.0612
 20
1.93752
 30
0.0
 11
83.0612
 21
1.71841
 31
0.0
  0
LINE
  8
0
 62
     0
 10
83.0612
 20
1.71841
 30
0.0
 11
82.4466
 21
1.71841
 31
0.0
  0
LINE
  8
0
 62
     0
 10
82.4466
 20
1.71841
 30
0.0
 11
82.4466
 21
0.0206706
 31
0.0
  0
LINE
  8
0
 62
     0
 10
82.4466
 20
0.0206706
 30
0.0
 11
82.1877
 21
0.0206706
 31
0.0
  0
LINE
  8
0
 62
     0
 10
82.1877
 20
0.0206706
 30
0.0
 11
82.1877
 21
1.71841
 31
0.0
  0
LINE
  8
0
 62
     0
 10
79.6438
 20
3.67524
 30
0.0
 11
76.1076
 21
3.67524
 31
0.0
  0
LINE
  8
0
 62
     0
 10
76.1076
 20
3.67524
 30
0.0
 11
76.2261
 21
3.67524
 31
0.0
  0
LINE
  8
0
 62
     0
 10
76.2261
 20
3.67524
 30
0.0
 11
76.1958
 21
3.67524
 31
0.0
  0
LINE
  8
0
 62
     0
 10
76.1958
 20
3.67524
 30
0.0
 11
76.1076
 21
3.76619
 31
0.0
  0
LINE
  8
0
 62
     0
 10
76.1076
 20
3.76619
 30
0.0
 11
76.1076
 21
3.79511
 31
0.0
  0
LINE
  8
0
 62
     0
 10
76.1076
 20
3.79511
 30
0.0
 11
76.1076
 21
15.3224
 31
0.0
  0
LINE
  8
0
 62
     0
 10
76.1076
 20
15.3224
 30
0.0
 11
76.1076
 21
15.5952
 31
0.0
  0
LINE
  8
0
 62
     0
 10
76.1076
 20
15.5952
 30
0.0
 11
75.8899
 21
16.4138
 31
0.0
  0
LINE
  8
0
 62
     0
 10
75.8899
 20
16.4138
 30
0.0
 11
75.2835
 21
17.0215
 31
0.0
  0
LINE
  8
0
 62
     0
 10
75.2835
 20
17.0215
 30
0.0
 11
74.355
 21
17.1042
 31
0.0
  0
LINE
  8
0
 62
     0
 10
74.355
 20
17.1042
 30
0.0
 11
73.437
 21
16.7845
 31
0.0
  0
LINE
  8
0
 62
     0
 10
73.437
 20
16.7845
 30
0.0
 11
73.1668
 21
16.6205
 31
0.0
  0
LINE
  8
0
 62
     0
 10
73.1668
 20
16.6205
 30
0.0
 11
52.6203
 21
3.93569
 31
0.0
  0
LINE
  8
0
 62
     0
 10
52.6203
 20
3.93569
 30
0.0
 11
52.4207
 21
3.81166
 31
0.0
  0
LINE
  8
0
 62
     0
 10
52.4207
 20
3.81166
 30
0.0
 11
51.81
 21
3.16811
 31
0.0
  0
LINE
  8
0
 62
     0
 10
51.81
 20
3.16811
 30
0.0
 11
51.6957
 21
2.56315
 31
0.0
  0
LINE
  8
0
 62
     0
 10
51.6957
 20
2.56315
 30
0.0
 11
51.7454
 21
2.45704
 31
0.0
  0
LINE
  8
0
 62
     0
 10
51.7454
 20
2.45704
 30
0.0
 11
51.7853
 21
2.36747
 31
0.0
  0
LINE
  8
0
 62
     0
 10
51.7853
 20
2.36747
 30
0.0
 11
52.2235
 21
2.01331
 31
0.0
  0
LINE
  8
0
 62
     0
 10
52.2235
 20
2.01331
 30
0.0
 11
52.9967
 21
1.8383
 31
0.0
  0
LINE
  8
0
 62
     0
 10
52.9967
 20
1.8383
 30
0.0
 11
53.2557
 21
1.8383
 31
0.0
  0
LINE
  8
0
 62
     0
 10
53.2557
 20
1.8383
 30
0.0
 11
72.3332
 21
1.8383
 31
0.0
  0
LINE
  8
0
 62
     0
 10
72.3332
 20
1.8383
 30
0.0
 11
72.3565
 21
1.8383
 31
0.0
  0
LINE
  8
0
 62
     0
 10
72.3565
 20
1.8383
 30
0.0
 11
72.4309
 21
1.77905
 31
0.0
  0
LINE
  8
0
 62
     0
 10
72.4309
 20
1.77905
 30
0.0
 11
72.4309
 21
1.75838
 31
0.0
  0
LINE
  8
0
 62
     0
 10
72.4309
 20
1.75838
 30
0.0
 11
72.4309
 21
0.14056
 31
0.0
  0
LINE
  8
0
 62
     0
 10
72.4309
 20
0.14056
 30
0.0
 11
72.4309
 21
0.111621
 31
0.0
  0
LINE
  8
0
 62
     0
 10
72.4309
 20
0.111621
 30
0.0
 11
72.5191
 21
0.0206706
 31
0.0
  0
LINE
  8
0
 62
     0
 10
72.5191
 20
0.0206706
 30
0.0
 11
72.5495
 21
0.0206706
 31
0.0
  0
LINE
  8
0
 62
     0
 10
72.5495
 20
0.0206706
 30
0.0
 11
75.9876
 21
0.0206706
 31
0.0
  0
LINE
  8
0
 62
     0
 10
75.9876
 20
0.0206706
 30
0.0
 11
76.0166
 21
0.0206706
 31
0.0
  0
LINE
  8
0
 62
     0
 10
76.0166
 20
0.0206706
 30
0.0
 11
76.1076
 21
0.111621
 31
0.0
  0
LINE
  8
0
 62
     0
 10
76.1076
 20
0.111621
 30
0.0
 11
76.1076
 21
0.14056
 31
0.0
  0
LINE
  8
0
 62
     0
 10
76.1076
 20
0.14056
 30
0.0
 11
76.1076
 21
1.71841
 31
0.0
  0
LINE
  8
0
 62
     0
 10
76.1076
 20
1.71841
 30
0.0
 11
76.1076
 21
1.74873
 31
0.0
  0
LINE
  8
0
 62
     0
 10
76.1076
 20
1.74873
 30
0.0
 11
76.1958
 21
1.8383
 31
0.0
  0
LINE
  8
0
 62
     0
 10
76.1958
 20
1.8383
 30
0.0
 11
76.2261
 21
1.8383
 31
0.0
  0
LINE
  8
0
 62
     0
 10
76.2261
 20
1.8383
 30
0.0
 11
79.6438
 21
1.8383
 31
0.0
  0
LINE
  8
0
 62
     0
 10
79.6438
 20
1.8383
 30
0.0
 11
79.6727
 21
1.8383
 31
0.0
  0
LINE
  8
0
 62
     0
 10
79.6727
 20
1.8383
 30
0.0
 11
79.7638
 21
1.92925
 31
0.0
  0
LINE
  8
0
 62
     0
 10
79.7638
 20
1.92925
 30
0.0
 11
79.7638
 21
1.95819
 31
0.0
  0
LINE
  8
0
 62
     0
 10
79.7638
 20
1.95819
 30
0.0
 11
79.7638
 21
3.55533
 31
0.0
  0
LINE
  8
0
 62
     0
 10
79.7638
 20
3.55533
 30
0.0
 11
79.7638
 21
3.58567
 31
0.0
  0
LINE
  8
0
 62
     0
 10
79.7638
 20
3.58567
 30
0.0
 11
79.6727
 21
3.67524
 31
0.0
  0
LINE
  8
0
 62
     0
 10
79.6727
 20
3.67524
 30
0.0
 11
79.6438
 21
3.67524
 31
0.0
  0
LINE
  8
0
 62
     0
 10
72.4517
 20
3.79511
 30
0.0
 11
72.4517
 21
3.76619
 31
0.0
  0
LINE
  8
0
 62
     0
 10
72.4517
 20
3.76619
 30
0.0
 11
72.3621
 21
3.67524
 31
0.0
  0
LINE
  8
0
 62
     0
 10
72.3621
 20
3.67524
 30
0.0
 11
72.3332
 21
3.67524
 31
0.0
  0
LINE
  8
0
 62
     0
 10
72.3332
 20
3.67524
 30
0.0
 11
56.3344
 21
3.67524
 31
0.0
  0
LINE
  8
0
 62
     0
 10
56.3344
 20
3.67524
 30
0.0
 11
56.279
 21
3.67524
 31
0.0
  0
LINE
  8
0
 62
     0
 10
56.279
 20
3.67524
 30
0.0
 11
56.1206
 21
3.74551
 31
0.0
  0
LINE
  8
0
 62
     0
 10
56.1206
 20
3.74551
 30
0.0
 11
56.1164
 21
3.75514
 31
0.0
  0
LINE
  8
0
 62
     0
 10
56.1164
 20
3.75514
 30
0.0
 11
56.1111
 21
3.77582
 31
0.0
  0
LINE
  8
0
 62
     0
 10
56.1111
 20
3.77582
 30
0.0
 11
56.2102
 21
3.9412
 31
0.0
  0
LINE
  8
0
 62
     0
 10
56.2102
 20
3.9412
 30
0.0
 11
56.2363
 21
3.95496
 31
0.0
  0
LINE
  8
0
 62
     0
 10
56.2363
 20
3.95496
 30
0.0
 11
72.1526
 21
13.8038
 31
0.0
  0
LINE
  8
0
 62
     0
 10
72.1526
 20
13.8038
 30
0.0
 11
72.1776
 21
13.8245
 31
0.0
  0
LINE
  8
0
 62
     0
 10
72.1776
 20
13.8245
 30
0.0
 11
72.3388
 21
13.8369
 31
0.0
  0
LINE
  8
0
 62
     0
 10
72.3388
 20
13.8369
 30
0.0
 11
72.4517
 21
13.6922
 31
0.0
  0
LINE
  8
0
 62
     0
 10
72.4517
 20
13.6922
 30
0.0
 11
72.4517
 21
13.644
 31
0.0
  0
LINE
  8
0
 62
     0
 10
72.4517
 20
13.644
 30
0.0
 11
72.4517
 21
3.79511
 31
0.0
  0
LINE
  8
0
 62
     0
 10
53.195
 20
17.14
 30
0.0
 11
42.0469
 21
17.1194
 31
0.0
  0
LINE
  8
0
 62
     0
 10
42.0469
 20
17.1194
 30
0.0
 11
41.5163
 21
17.1194
 31
0.0
  0
LINE
  8
0
 62
     0
 10
41.5163
 20
17.1194
 30
0.0
 11
39.9288
 21
16.7707
 31
0.0
  0
LINE
  8
0
 62
     0
 10
39.9288
 20
16.7707
 30
0.0
 11
38.4281
 21
15.8061
 31
0.0
  0
LINE
  8
0
 62
     0
 10
38.4281
 20
15.8061
 30
0.0
 11
37.5338
 21
14.3564
 31
0.0
  0
LINE
  8
0
 62
     0
 10
37.5338
 20
14.3564
 30
0.0
 11
37.2389
 21
12.999
 31
0.0
  0
LINE
  8
0
 62
     0
 10
37.2389
 20
12.999
 30
0.0
 11
37.2389
 21
12.5457
 31
0.0
  0
LINE
  8
0
 62
     0
 10
37.2389
 20
12.5457
 30
0.0
 11
37.2389
 21
4.61504
 31
0.0
  0
LINE
  8
0
 62
     0
 10
37.2389
 20
4.61504
 30
0.0
 11
37.2389
 21
4.3367
 31
0.0
  0
LINE
  8
0
 62
     0
 10
37.2389
 20
4.3367
 30
0.0
 11
37.0928
 21
3.49884
 31
0.0
  0
LINE
  8
0
 62
     0
 10
37.0928
 20
3.49884
 30
0.0
 11
36.6518
 21
2.61965
 31
0.0
  0
LINE
  8
0
 62
     0
 10
36.6518
 20
2.61965
 30
0.0
 11
35.9131
 21
2.04501
 31
0.0
  0
LINE
  8
0
 62
     0
 10
35.9131
 20
2.04501
 30
0.0
 11
35.1331
 21
1.8383
 31
0.0
  0
LINE
  8
0
 62
     0
 10
35.1331
 20
1.8383
 30
0.0
 11
34.874
 21
1.8383
 31
0.0
  0
LINE
  8
0
 62
     0
 10
34.874
 20
1.8383
 30
0.0
 11
24.3816
 21
1.8383
 31
0.0
  0
LINE
  8
0
 62
     0
 10
24.3816
 20
1.8383
 30
0.0
 11
24.3513
 21
1.8383
 31
0.0
  0
LINE
  8
0
 62
     0
 10
24.3513
 20
1.8383
 30
0.0
 11
24.2631
 21
1.74873
 31
0.0
  0
LINE
  8
0
 62
     0
 10
24.2631
 20
1.74873
 30
0.0
 11
24.2631
 21
1.71841
 31
0.0
  0
LINE
  8
0
 62
     0
 10
24.2631
 20
1.71841
 30
0.0
 11
24.2631
 21
0.139182
 31
0.0
  0
LINE
  8
0
 62
     0
 10
24.2631
 20
0.139182
 30
0.0
 11
24.2631
 21
0.104731
 31
0.0
  0
LINE
  8
0
 62
     0
 10
24.2631
 20
0.104731
 30
0.0
 11
24.3513
 21
0
 31
0.0
  0
LINE
  8
0
 62
     0
 10
24.3513
 20
0
 30
0.0
 11
24.3816
 21
0
 31
0.0
  0
LINE
  8
0
 62
     0
 10
24.3816
 20
0
 30
0.0
 11
36.0659
 21
0
 31
0.0
  0
LINE
  8
0
 62
     0
 10
36.0659
 20
0
 30
0.0
 11
36.5951
 21
0
 31
0.0
  0
LINE
  8
0
 62
     0
 10
36.5951
 20
0
 30
0.0
 11
38.1868
 21
0.356912
 31
0.0
  0
LINE
  8
0
 62
     0
 10
38.1868
 20
0.356912
 30
0.0
 11
39.6946
 21
1.33394
 31
0.0
  0
LINE
  8
0
 62
     0
 10
39.6946
 20
1.33394
 30
0.0
 11
40.5955
 21
2.79879
 31
0.0
  0
LINE
  8
0
 62
     0
 10
40.5955
 20
2.79879
 30
0.0
 11
40.8947
 21
4.16168
 31
0.0
  0
LINE
  8
0
 62
     0
 10
40.8947
 20
4.16168
 30
0.0
 11
40.8947
 21
4.61504
 31
0.0
  0
LINE
  8
0
 62
     0
 10
40.8947
 20
4.61504
 30
0.0
 11
40.8947
 21
12.5457
 31
0.0
  0
LINE
  8
0
 62
     0
 10
40.8947
 20
12.5457
 30
0.0
 11
40.8947
 21
12.8254
 31
0.0
  0
LINE
  8
0
 62
     0
 10
40.8947
 20
12.8254
 30
0.0
 11
41.0365
 21
13.6633
 31
0.0
  0
LINE
  8
0
 62
     0
 10
41.0365
 20
13.6633
 30
0.0
 11
41.4736
 21
14.5411
 31
0.0
  0
LINE
  8
0
 62
     0
 10
41.4736
 20
14.5411
 30
0.0
 11
42.2106
 21
15.1171
 31
0.0
  0
LINE
  8
0
 62
     0
 10
42.2106
 20
15.1171
 30
0.0
 11
42.9976
 21
15.3224
 31
0.0
  0
LINE
  8
0
 62
     0
 10
42.9976
 20
15.3224
 30
0.0
 11
43.2608
 21
15.3224
 31
0.0
  0
LINE
  8
0
 62
     0
 10
43.2608
 20
15.3224
 30
0.0
 11
53.195
 21
15.3224
 31
0.0
  0
LINE
  8
0
 62
     0
 10
53.195
 20
15.3224
 30
0.0
 11
53.2239
 21
15.3224
 31
0.0
  0
LINE
  8
0
 62
     0
 10
53.2239
 20
15.3224
 30
0.0
 11
53.3135
 21
15.4134
 31
0.0
  0
LINE
  8
0
 62
     0
 10
53.3135
 20
15.4134
 30
0.0
 11
53.3135
 21
15.4423
 31
0.0
  0
LINE
  8
0
 62
     0
 10
53.3135
 20
15.4423
 30
0.0
 11
53.3135
 21
17.0202
 31
0.0
  0
LINE
  8
0
 62
     0
 10
53.3135
 20
17.0202
 30
0.0
 11
53.3135
 21
17.0353
 31
0.0
  0
LINE
  8
0
 62
     0
 10
53.3135
 20
17.0353
 30
0.0
 11
53.2239
 21
17.14
 31
0.0
  0
LINE
  8
0
 62
     0
 10
53.2239
 20
17.14
 30
0.0
 11
53.195
 21
17.14
 31
0.0
  0
LINE
  8
0
 62
     0
 10
20.2696
 20
17.1208
 30
0.0
 11
0.119889
 21
17.1208
 31
0.0
  0
LINE
  8
0
 62
     0
 10
0.119889
 20
17.1208
 30
0.0
 11
0.0895724
 21
17.1208
 31
0.0
  0
LINE
  8
0
 62
     0
 10
0.0895724
 20
17.1208
 30
0.0
 11
0
 21
17.0463
 31
0.0
  0
LINE
  8
0
 62
     0
 10
0
 20
17.0463
 30
0.0
 11
0
 21
17.0202
 31
0.0
  0
LINE
  8
0
 62
     0
 10
0
 20
17.0202
 30
0.0
 11
0
 21
15.4423
 31
0.0
  0
LINE
  8
0
 62
     0
 10
0
 20
15.4423
 30
0.0
 11
0
 21
15.4134
 31
0.0
  0
LINE
  8
0
 62
     0
 10
0
 20
15.4134
 30
0.0
 11
0.0895724
 21
15.3224
 31
0.0
  0
LINE
  8
0
 62
     0
 10
0.0895724
 20
15.3224
 30
0.0
 11
0.119889
 21
15.3224
 31
0.0
  0
LINE
  8
0
 62
     0
 10
0.119889
 20
15.3224
 30
0.0
 11
19.0569
 21
15.3224
 31
0.0
  0
LINE
  8
0
 62
     0
 10
19.0569
 20
15.3224
 30
0.0
 11
19.3187
 21
15.3224
 31
0.0
  0
LINE
  8
0
 62
     0
 10
19.3187
 20
15.3224
 30
0.0
 11
20.1042
 21
15.1171
 31
0.0
  0
LINE
  8
0
 62
     0
 10
20.1042
 20
15.1171
 30
0.0
 11
20.8428
 21
14.5411
 31
0.0
  0
LINE
  8
0
 62
     0
 10
20.8428
 20
14.5411
 30
0.0
 11
21.2783
 21
13.6633
 31
0.0
  0
LINE
  8
0
 62
     0
 10
21.2783
 20
13.6633
 30
0.0
 11
21.4216
 21
12.8254
 31
0.0
  0
LINE
  8
0
 62
     0
 10
21.4216
 20
12.8254
 30
0.0
 11
21.4216
 21
12.5457
 31
0.0
  0
LINE
  8
0
 62
     0
 10
21.4216
 20
12.5457
 30
0.0
 11
21.4216
 21
12.2673
 31
0.0
  0
LINE
  8
0
 62
     0
 10
21.4216
 20
12.2673
 30
0.0
 11
21.2783
 21
11.4294
 31
0.0
  0
LINE
  8
0
 62
     0
 10
21.2783
 20
11.4294
 30
0.0
 11
20.8428
 21
10.5517
 31
0.0
  0
LINE
  8
0
 62
     0
 10
20.8428
 20
10.5517
 30
0.0
 11
20.1042
 21
9.9756
 31
0.0
  0
LINE
  8
0
 62
     0
 10
20.1042
 20
9.9756
 30
0.0
 11
19.3187
 21
9.76891
 31
0.0
  0
LINE
  8
0
 62
     0
 10
19.3187
 20
9.76891
 30
0.0
 11
19.0569
 21
9.76891
 31
0.0
  0
LINE
  8
0
 62
     0
 10
19.0569
 20
9.76891
 30
0.0
 11
4.07349
 21
9.76891
 31
0.0
  0
LINE
  8
0
 62
     0
 10
4.07349
 20
9.76891
 30
0.0
 11
3.66832
 21
9.76891
 31
0.0
  0
LINE
  8
0
 62
     0
 10
3.66832
 20
9.76891
 30
0.0
 11
2.45566
 21
9.42026
 31
0.0
  0
LINE
  8
0
 62
     0
 10
2.45566
 20
9.42026
 30
0.0
 11
1.16444
 21
8.45566
 31
0.0
  0
LINE
  8
0
 62
     0
 10
1.16444
 20
8.45566
 30
0.0
 11
0.308681
 21
7.00458
 31
0.0
  0
LINE
  8
0
 62
     0
 10
0.308681
 20
7.00458
 30
0.0
 11
0
 21
5.6472
 31
0.0
  0
LINE
  8
0
 62
     0
 10
0
 20
5.6472
 30
0.0
 11
0
 21
5.19384
 31
0.0
  0
LINE
  8
0
 62
     0
 10
0
 20
5.19384
 30
0.0
 11
0
 21
0.139182
 31
0.0
  0
LINE
  8
0
 62
     0
 10
0
 20
0.139182
 30
0.0
 11
0
 21
0.104731
 31
0.0
  0
LINE
  8
0
 62
     0
 10
0
 20
0.104731
 30
0.0
 11
0.0895724
 21
0
 31
0.0
  0
LINE
  8
0
 62
     0
 10
0.0895724
 20
0
 30
0.0
 11
0.119889
 21
0
 31
0.0
  0
LINE
  8
0
 62
     0
 10
0.119889
 20
0
 30
0.0
 11
3.53741
 21
0
 31
0.0
  0
LINE
  8
0
 62
     0
 10
3.53741
 20
0
 30
0.0
 11
3.56637
 21
0
 31
0.0
  0
LINE
  8
0
 62
     0
 10
3.56637
 20
0
 30
0.0
 11
3.65594
 21
0.104731
 31
0.0
  0
LINE
  8
0
 62
     0
 10
3.65594
 20
0.104731
 30
0.0
 11
3.65594
 21
0.139182
 31
0.0
  0
LINE
  8
0
 62
     0
 10
3.65594
 20
0.139182
 30
0.0
 11
3.65594
 21
5.19384
 31
0.0
  0
LINE
  8
0
 62
     0
 10
3.65594
 20
5.19384
 30
0.0
 11
3.65594
 21
5.47218
 31
0.0
  0
LINE
  8
0
 62
     0
 10
3.65594
 20
5.47218
 30
0.0
 11
3.81854
 21
6.30453
 31
0.0
  0
LINE
  8
0
 62
     0
 10
3.81854
 20
6.30453
 30
0.0
 11
4.27881
 21
7.16993
 31
0.0
  0
LINE
  8
0
 62
     0
 10
4.27881
 20
7.16993
 30
0.0
 11
4.98849
 21
7.73081
 31
0.0
  0
LINE
  8
0
 62
     0
 10
4.98849
 20
7.73081
 30
0.0
 11
5.67337
 21
7.93062
 31
0.0
  0
LINE
  8
0
 62
     0
 10
5.67337
 20
7.93062
 30
0.0
 11
5.90215
 21
7.93062
 31
0.0
  0
LINE
  8
0
 62
     0
 10
5.90215
 20
7.93062
 30
0.0
 11
20.2696
 21
7.93062
 31
0.0
  0
LINE
  8
0
 62
     0
 10
20.2696
 20
7.93062
 30
0.0
 11
20.7987
 21
7.93062
 31
0.0
  0
LINE
  8
0
 62
     0
 10
20.7987
 20
7.93062
 30
0.0
 11
22.3862
 21
8.28477
 31
0.0
  0
LINE
  8
0
 62
     0
 10
22.3862
 20
8.28477
 30
0.0
 11
23.8869
 21
9.25767
 31
0.0
  0
LINE
  8
0
 62
     0
 10
23.8869
 20
9.25767
 30
0.0
 11
24.7813
 21
10.7211
 31
0.0
  0
LINE
  8
0
 62
     0
 10
24.7813
 20
10.7211
 30
0.0
 11
25.0775
 21
12.0895
 31
0.0
  0
LINE
  8
0
 62
     0
 10
25.0775
 20
12.0895
 30
0.0
 11
25.0775
 21
12.5457
 31
0.0
  0
LINE
  8
0
 62
     0
 10
25.0775
 20
12.5457
 30
0.0
 11
25.0775
 21
12.999
 31
0.0
  0
LINE
  8
0
 62
     0
 10
25.0775
 20
12.999
 30
0.0
 11
24.7813
 21
14.3564
 31
0.0
  0
LINE
  8
0
 62
     0
 10
24.7813
 20
14.3564
 30
0.0
 11
23.8869
 21
15.8075
 31
0.0
  0
LINE
  8
0
 62
     0
 10
23.8869
 20
15.8075
 30
0.0
 11
22.3862
 21
16.7721
 31
0.0
  0
LINE
  8
0
 62
     0
 10
22.3862
 20
16.7721
 30
0.0
 11
20.7987
 21
17.1208
 31
0.0
  0
LINE
  8
0
 62
     0
 10
20.7987
 20
17.1208
 30
0.0
 11
20.2696
 21
17.1208
 31
0.0
  0
ENDSEC
  0
EOF
