<?xml version="1.0" encoding="UTF-8" standalone="no"?>
<svg
   xmlns:dc="http://purl.org/dc/elements/1.1/"
   xmlns:cc="http://creativecommons.org/ns#"
   xmlns:rdf="http://www.w3.org/1999/02/22-rdf-syntax-ns#"
   xmlns:svg="http://www.w3.org/2000/svg"
   xmlns="http://www.w3.org/2000/svg"
   xmlns:sodipodi="http://sodipodi.sourceforge.net/DTD/sodipodi-0.dtd"
   xmlns:inkscape="http://www.inkscape.org/namespaces/inkscape"
   inkscape:version="1.0.2 (e86c870879, 2021-01-15)"
   height="460.37634"
   width="1894.2682"
   sodipodi:docname="audio.svg"
   id="svg4"
   version="1.1"
   viewBox="0 0 1894.2681 460.37634">
  <metadata
     id="metadata10">
    <rdf:RDF>
      <cc:Work
         rdf:about="">
        <dc:format>image/svg+xml</dc:format>
        <dc:type
           rdf:resource="http://purl.org/dc/dcmitype/StillImage" />
        <dc:title></dc:title>
      </cc:Work>
    </rdf:RDF>
  </metadata>
  <defs
     id="defs8" />
  <sodipodi:namedview
     pagecolor="#ffffff"
     bordercolor="#666666"
     borderopacity="1"
     objecttolerance="10"
     gridtolerance="10"
     guidetolerance="10"
     inkscape:pageopacity="0"
     inkscape:pageshadow="2"
     inkscape:window-width="1466"
     inkscape:window-height="1205"
     id="namedview6"
     showgrid="false"
     fit-margin-top="0"
     fit-margin-left="0"
     fit-margin-right="0"
     fit-margin-bottom="0"
     inkscape:zoom="0.4921875"
     inkscape:cx="1196.7624"
     inkscape:cy="379.79799"
     inkscape:window-x="274"
     inkscape:window-y="189"
     inkscape:window-maximized="0"
     inkscape:current-layer="svg4"
     inkscape:document-rotation="0" />
  <text
     xml:space="preserve"
     style="font-size:39.9999px;line-height:125%;font-family:Unifont;-inkscape-font-specification:'Unifont, Normal';letter-spacing:0px;word-spacing:0px;fill:none;stroke:#000000;stroke-width:1px;stroke-linecap:butt;stroke-linejoin:miter;stroke-opacity:1"
     x="-246.76727"
     y="21.59263"
     id="text837"><tspan
       sodipodi:role="line"
       id="tspan835"
       x="-246.76727"
       y="21.59263" /></text>
  <path
     d="m 238.76934,324.07989 153.45877,-76.7294 c 14.09315,-7.07789 14.09315,-27.24676 0,-34.32466 L 238.76934,136.29645 c -12.77779,-6.3889 -27.74786,2.88127 -27.74786,17.16233 v 153.45878 c 0,14.28106 14.97007,23.48858 27.74786,17.16233 z M 556.46032,0 H 57.37479 C 25.80613,0 0,25.99404 0,57.81325 v 344.6872 c 0,31.94448 25.61822,57.87589 57.37479,57.87589 h 499.14816 c 31.56867,0 57.37479,-25.99405 57.37479,-57.87589 V 57.81325 C 613.83514,25.86876 588.21689,0 556.46032,0 Z M 115.1254,402.62573 c 0,10.71079 -8.20534,19.35459 -19.35459,19.35459 H 57.81325 c -10.7108,0 -19.3546,-8.20534 -19.3546,-19.35459 v -37.95756 c 0,-10.7108 8.20535,-19.35461 19.3546,-19.35461 h 38.02019 c 10.64816,0 19.3546,8.20536 19.3546,19.35461 v 37.95756 z m 0,-153.45878 c 0,10.71079 -8.20534,19.35459 -19.35459,19.35459 H 57.81325 c -10.7108,0 -19.3546,-8.20534 -19.3546,-19.35459 v -37.95756 c 0,-10.7108 8.20535,-19.3546 19.3546,-19.3546 h 38.02019 c 10.64816,0 19.3546,8.20535 19.3546,19.3546 v 37.95756 z m 0,-153.45878 c 0,10.71079 -8.20534,19.3546 -19.35459,19.3546 H 57.81325 c -10.7108,0 -19.3546,-8.20535 -19.3546,-19.3546 V 57.75061 c 0,-10.7108 8.20535,-19.3546 19.3546,-19.3546 h 38.02019 c 10.64816,0 19.3546,8.20535 19.3546,19.3546 V 95.70817 Z M 460.37634,422.04296 H 153.45879 V 38.33338 h 306.91755 z m 115.1254,-19.41723 c 0,10.71079 -8.20535,19.35459 -19.3546,19.35459 h -38.0202 c -10.64816,0 -19.3546,-8.20534 -19.3546,-19.35459 v -37.95756 c 0,-10.7108 8.20535,-19.35461 19.3546,-19.35461 h 38.0202 c 10.64816,0 19.3546,8.20536 19.3546,19.35461 z m 0,-153.45878 c 0,10.71079 -8.20535,19.35459 -19.3546,19.35459 h -38.0202 c -10.64816,0 -19.3546,-8.20534 -19.3546,-19.35459 v -37.95756 c 0,-10.7108 8.20535,-19.3546 19.3546,-19.3546 h 38.0202 c 10.64816,0 19.3546,8.20535 19.3546,19.3546 z m 0,-153.45878 c 0,10.71079 -8.20535,19.3546 -19.3546,19.3546 h -38.0202 c -10.64816,0 -19.3546,-8.20535 -19.3546,-19.3546 V 57.75061 c 0,-10.7108 8.20535,-19.3546 19.3546,-19.3546 h 38.0202 c 10.64816,0 19.3546,8.20535 19.3546,19.3546 z"
     id="path837"
     style="stroke-width:0.626362" />
  <g
     aria-label="VIDEO"
     id="text879"
     style="font-style:normal;font-variant:normal;font-weight:normal;font-stretch:normal;font-size:426.958px;line-height:125%;font-family:'Trebuchet MS';-inkscape-font-specification:'Trebuchet MS, Normal';font-variant-ligatures:normal;font-variant-caps:normal;font-variant-numeric:normal;font-variant-east-asian:normal;letter-spacing:0px;word-spacing:0px;fill:#000000;stroke:#000000;stroke-width:10.674px;stroke-linecap:butt;stroke-linejoin:miter;stroke-opacity:1">
    <path
       d="M 894.91963,387.17027 H 873.8636 L 760.03593,77.584024 h 46.28158 l 78.5953,224.945166 75.67663,-224.945166 h 44.82226 z"
       style="font-style:normal;font-variant:normal;font-weight:normal;font-stretch:normal;font-size:426.958px;font-family:'Trebuchet MS';-inkscape-font-specification:'Trebuchet MS, Normal';font-variant-ligatures:normal;font-variant-caps:normal;font-variant-numeric:normal;font-variant-east-asian:normal;stroke-width:10.674px"
       id="path878" />
    <path
       d="M 1046.8983,383.00076 V 77.584024 h 41.6952 V 383.00076 Z"
       style="font-style:normal;font-variant:normal;font-weight:normal;font-stretch:normal;font-size:426.958px;font-family:'Trebuchet MS';-inkscape-font-specification:'Trebuchet MS, Normal';font-variant-ligatures:normal;font-variant-caps:normal;font-variant-numeric:normal;font-variant-east-asian:normal;stroke-width:10.674px"
       id="path880" />
    <path
       d="m 1220.35,383.00076 h -61.5003 V 77.584024 q 58.7902,-2.084756 75.2597,-2.084756 64.002,0 101.3192,38.984932 37.3171,38.77646 37.3171,103.4039 0,165.11266 -152.3957,165.11266 z M 1200.5449,115.10963 V 343.3904 q 13.9678,2.08476 34.6069,2.08476 43.7799,0 68.7969,-32.73067 25.0171,-32.93914 25.0171,-91.31231 0,-108.40731 -97.3581,-108.40731 -5.8373,0 -31.0628,2.08476 z"
       style="font-style:normal;font-variant:normal;font-weight:normal;font-stretch:normal;font-size:426.958px;font-family:'Trebuchet MS';-inkscape-font-specification:'Trebuchet MS, Normal';font-variant-ligatures:normal;font-variant-caps:normal;font-variant-numeric:normal;font-variant-east-asian:normal;stroke-width:10.674px"
       id="path882" />
    <path
       d="m 1462.3902,115.10963 v 84.84957 h 100.9021 v 35.44085 h -100.9021 v 110.07511 h 138.4278 v 37.5256 H 1420.695 V 77.584024 h 182.4162 v 37.525606 z"
       style="font-style:normal;font-variant:normal;font-weight:normal;font-stretch:normal;font-size:426.958px;font-family:'Trebuchet MS';-inkscape-font-specification:'Trebuchet MS, Normal';font-variant-ligatures:normal;font-variant-caps:normal;font-variant-numeric:normal;font-variant-east-asian:normal;stroke-width:10.674px"
       id="path884" />
    <path
       d="m 1634.591,227.68645 q 0,-66.29524 33.1476,-110.90902 33.3561,-44.613771 89.853,-44.613771 63.5851,0 97.3581,41.069691 33.9815,41.06969 33.9815,114.4531 0,75.25969 -33.9815,117.99718 -33.9815,42.52902 -97.3581,42.52902 -57.7477,0 -90.4784,-45.03072 -32.5222,-45.03073 -32.5222,-115.49548 z m 43.7799,0 q 0,52.53585 20.6391,87.76822 20.8475,35.23238 58.5816,35.23238 42.7375,0 65.0444,-32.31372 22.5154,-32.31372 22.5154,-90.68688 0,-117.99719 -87.5598,-117.99719 -38.7765,0 -58.9986,31.68829 -20.2221,31.68829 -20.2221,86.3089 z"
       style="font-style:normal;font-variant:normal;font-weight:normal;font-stretch:normal;font-size:426.958px;font-family:'Trebuchet MS';-inkscape-font-specification:'Trebuchet MS, Normal';font-variant-ligatures:normal;font-variant-caps:normal;font-variant-numeric:normal;font-variant-east-asian:normal;stroke-width:10.674px"
       id="path886" />
  </g>
</svg>
