  0
SECTION
  2
HEADER
  9
$ACADVER
  1
AC1009
  9
$EXTMIN
 10
0.0
 20
0.0
 30
0.0
  9
$EXTMAX
 10
1000.0
 20
1000.0
 30
0.0
  9
$FILLMODE
 70
 0
  9
$SPLFRAME
 70
 1
  0
ENDSEC
  0
SECTION
  2
TABLES
  0
TABLE
  2
LAYER
 70
1
  0
LAYER
  2
0
 70
     0
 62
     7
  6
CONTINUOUS
  0
ENDTAB
  0
ENDSEC
  0
SECTION
  2
ENTITIES
  0
LINE
  8
0
 62
     142
 10
149.104
 20
35.9269
 30
0.0
 11
149.104
 21
34.9126
 31
0.0
  0
LINE
  8
0
 62
     142
 10
149.104
 20
34.9126
 30
0.0
 11
149.743
 21
31.8671
 31
0.0
  0
LINE
  8
0
 62
     142
 10
149.743
 20
31.8671
 30
0.0
 11
151.428
 21
29.0697
 31
0.0
  0
LINE
  8
0
 62
     142
 10
151.428
 20
29.0697
 30
0.0
 11
153.813
 21
27.4478
 31
0.0
  0
LINE
  8
0
 62
     142
 10
153.813
 20
27.4478
 30
0.0
 11
156.545
 21
26.9145
 31
0.0
  0
LINE
  8
0
 62
     142
 10
156.545
 20
26.9145
 30
0.0
 11
159.276
 21
27.3844
 31
0.0
  0
LINE
  8
0
 62
     142
 10
159.276
 20
27.3844
 30
0.0
 11
161.66
 21
28.7693
 31
0.0
  0
LINE
  8
0
 62
     142
 10
161.66
 20
28.7693
 30
0.0
 11
163.346
 21
30.9852
 31
0.0
  0
LINE
  8
0
 62
     142
 10
163.346
 20
30.9852
 30
0.0
 11
163.987
 21
33.2038
 31
0.0
  0
LINE
  8
0
 62
     142
 10
163.987
 20
33.2038
 30
0.0
 11
163.987
 21
33.9424
 31
0.0
  0
LINE
  8
0
 62
     142
 10
163.987
 20
33.9424
 30
0.0
 11
163.987
 21
54.7783
 31
0.0
  0
LINE
  8
0
 62
     142
 10
163.987
 20
54.7783
 30
0.0
 11
149.104
 21
54.7783
 31
0.0
  0
LINE
  8
0
 62
     142
 10
149.104
 20
54.7783
 30
0.0
 11
149.104
 21
35.9269
 31
0.0
  0
LINE
  8
0
 62
     142
 10
128.6
 20
22.6977
 30
0.0
 11
128.6
 21
22.1451
 31
0.0
  0
LINE
  8
0
 62
     142
 10
128.6
 20
22.1451
 30
0.0
 11
128.796
 21
20.4859
 31
0.0
  0
LINE
  8
0
 62
     142
 10
128.796
 20
20.4859
 30
0.0
 11
129.369
 21
18.525
 31
0.0
  0
LINE
  8
0
 62
     142
 10
129.369
 20
18.525
 30
0.0
 11
130.289
 21
16.8258
 31
0.0
  0
LINE
  8
0
 62
     142
 10
130.289
 20
16.8258
 30
0.0
 11
131.532
 21
15.4051
 31
0.0
  0
LINE
  8
0
 62
     142
 10
131.532
 20
15.4051
 30
0.0
 11
133.07
 21
14.2765
 31
0.0
  0
LINE
  8
0
 62
     142
 10
133.07
 20
14.2765
 30
0.0
 11
134.875
 21
13.4524
 31
0.0
  0
LINE
  8
0
 62
     142
 10
134.875
 20
13.4524
 30
0.0
 11
136.922
 21
12.948
 31
0.0
  0
LINE
  8
0
 62
     142
 10
136.922
 20
12.948
 30
0.0
 11
138.617
 21
12.7758
 31
0.0
  0
LINE
  8
0
 62
     142
 10
138.617
 20
12.7758
 30
0.0
 11
139.183
 21
12.7758
 31
0.0
  0
LINE
  8
0
 62
     142
 10
139.183
 20
12.7758
 30
0.0
 11
174.902
 21
12.7758
 31
0.0
  0
LINE
  8
0
 62
     142
 10
174.902
 20
12.7758
 30
0.0
 11
175.386
 21
12.7758
 31
0.0
  0
LINE
  8
0
 62
     142
 10
175.386
 20
12.7758
 30
0.0
 11
176.837
 21
12.9439
 31
0.0
  0
LINE
  8
0
 62
     142
 10
176.837
 20
12.9439
 30
0.0
 11
178.638
 21
13.4317
 31
0.0
  0
LINE
  8
0
 62
     142
 10
178.638
 20
13.4317
 30
0.0
 11
180.267
 21
14.2131
 31
0.0
  0
LINE
  8
0
 62
     142
 10
180.267
 20
14.2131
 30
0.0
 11
181.686
 21
15.2673
 31
0.0
  0
LINE
  8
0
 62
     142
 10
181.686
 20
15.2673
 30
0.0
 11
182.856
 21
16.5668
 31
0.0
  0
LINE
  8
0
 62
     142
 10
182.856
 20
16.5668
 30
0.0
 11
183.739
 21
18.0895
 31
0.0
  0
LINE
  8
0
 62
     142
 10
183.739
 20
18.0895
 30
0.0
 11
184.297
 21
19.8107
 31
0.0
  0
LINE
  8
0
 62
     142
 10
184.297
 20
19.8107
 30
0.0
 11
184.493
 21
21.2328
 31
0.0
  0
LINE
  8
0
 62
     142
 10
184.493
 20
21.2328
 30
0.0
 11
184.493
 21
21.7055
 31
0.0
  0
LINE
  8
0
 62
     142
 10
184.493
 20
21.7055
 30
0.0
 11
184.493
 21
47.8331
 31
0.0
  0
LINE
  8
0
 62
     142
 10
184.493
 20
47.8331
 30
0.0
 11
184.493
 21
48.4269
 31
0.0
  0
LINE
  8
0
 62
     142
 10
184.493
 20
48.4269
 30
0.0
 11
184.077
 21
50.2059
 31
0.0
  0
LINE
  8
0
 62
     142
 10
184.077
 20
50.2059
 30
0.0
 11
182.944
 21
52.3311
 31
0.0
  0
LINE
  8
0
 62
     142
 10
182.944
 20
52.3311
 30
0.0
 11
181.262
 21
53.8607
 31
0.0
  0
LINE
  8
0
 62
     142
 10
181.262
 20
53.8607
 30
0.0
 11
179.716
 21
54.4477
 31
0.0
  0
LINE
  8
0
 62
     142
 10
179.716
 20
54.4477
 30
0.0
 11
179.202
 21
54.4477
 31
0.0
  0
LINE
  8
0
 62
     142
 10
179.202
 20
54.4477
 30
0.0
 11
170.933
 21
54.4477
 31
0.0
  0
LINE
  8
0
 62
     142
 10
170.933
 20
54.4477
 30
0.0
 11
170.933
 21
32.9503
 31
0.0
  0
LINE
  8
0
 62
     142
 10
170.933
 20
32.9503
 30
0.0
 11
170.933
 21
32.2337
 31
0.0
  0
LINE
  8
0
 62
     142
 10
170.933
 20
32.2337
 30
0.0
 11
170.614
 21
30.0826
 31
0.0
  0
LINE
  8
0
 62
     142
 10
170.614
 20
30.0826
 30
0.0
 11
169.711
 21
27.598
 31
0.0
  0
LINE
  8
0
 62
     142
 10
169.711
 20
27.598
 30
0.0
 11
168.308
 21
25.4978
 31
0.0
  0
LINE
  8
0
 62
     142
 10
168.308
 20
25.4978
 30
0.0
 11
166.489
 21
23.7794
 31
0.0
  0
LINE
  8
0
 62
     142
 10
166.489
 20
23.7794
 30
0.0
 11
164.335
 21
22.4427
 31
0.0
  0
LINE
  8
0
 62
     142
 10
164.335
 20
22.4427
 30
0.0
 11
161.933
 21
21.4864
 31
0.0
  0
LINE
  8
0
 62
     142
 10
161.933
 20
21.4864
 30
0.0
 11
159.363
 21
20.9103
 31
0.0
  0
LINE
  8
0
 62
     142
 10
159.363
 20
20.9103
 30
0.0
 11
156.712
 21
20.7119
 31
0.0
  0
LINE
  8
0
 62
     142
 10
156.712
 20
20.7119
 30
0.0
 11
154.059
 21
20.8897
 31
0.0
  0
LINE
  8
0
 62
     142
 10
154.059
 20
20.8897
 30
0.0
 11
151.489
 21
21.445
 31
0.0
  0
LINE
  8
0
 62
     142
 10
151.489
 20
21.445
 30
0.0
 11
149.087
 21
22.3752
 31
0.0
  0
LINE
  8
0
 62
     142
 10
149.087
 20
22.3752
 30
0.0
 11
146.935
 21
23.6802
 31
0.0
  0
LINE
  8
0
 62
     142
 10
146.935
 20
23.6802
 30
0.0
 11
145.114
 21
25.3587
 31
0.0
  0
LINE
  8
0
 62
     142
 10
145.114
 20
25.3587
 30
0.0
 11
143.711
 21
27.4078
 31
0.0
  0
LINE
  8
0
 62
     142
 10
143.711
 20
27.4078
 30
0.0
 11
142.809
 21
29.829
 31
0.0
  0
LINE
  8
0
 62
     142
 10
142.809
 20
29.829
 30
0.0
 11
142.49
 21
31.9223
 31
0.0
  0
LINE
  8
0
 62
     142
 10
142.49
 20
31.9223
 30
0.0
 11
142.49
 21
32.6195
 31
0.0
  0
LINE
  8
0
 62
     142
 10
142.49
 20
32.6195
 30
0.0
 11
142.49
 21
54.7783
 31
0.0
  0
LINE
  8
0
 62
     142
 10
142.49
 20
54.7783
 30
0.0
 11
136.207
 21
54.7783
 31
0.0
  0
LINE
  8
0
 62
     142
 10
136.207
 20
54.7783
 30
0.0
 11
135.478
 21
54.7783
 31
0.0
  0
LINE
  8
0
 62
     142
 10
135.478
 20
54.7783
 30
0.0
 11
133.291
 21
54.3112
 31
0.0
  0
LINE
  8
0
 62
     142
 10
133.291
 20
54.3112
 30
0.0
 11
130.868
 21
52.9802
 31
0.0
  0
LINE
  8
0
 62
     142
 10
130.868
 20
52.9802
 30
0.0
 11
129.212
 21
50.8953
 31
0.0
  0
LINE
  8
0
 62
     142
 10
129.212
 20
50.8953
 30
0.0
 11
128.6
 21
48.8474
 31
0.0
  0
LINE
  8
0
 62
     142
 10
128.6
 20
48.8474
 30
0.0
 11
128.6
 21
48.1637
 31
0.0
  0
LINE
  8
0
 62
     142
 10
128.6
 20
48.1637
 30
0.0
 11
128.6
 21
22.6977
 31
0.0
  0
LINE
  8
0
 62
     253
 10
79.1587
 20
48.6033
 30
0.0
 11
79.1587
 21
48.0011
 31
0.0
  0
LINE
  8
0
 62
     253
 10
79.1587
 20
48.0011
 30
0.0
 11
79.6604
 21
46.1945
 31
0.0
  0
LINE
  8
0
 62
     253
 10
79.6604
 20
46.1945
 30
0.0
 11
81.0341
 21
44.2034
 31
0.0
  0
LINE
  8
0
 62
     253
 10
81.0341
 20
44.2034
 30
0.0
 11
83.0778
 21
42.8487
 31
0.0
  0
LINE
  8
0
 62
     253
 10
83.0778
 20
42.8487
 30
0.0
 11
84.963
 21
42.3485
 31
0.0
  0
LINE
  8
0
 62
     253
 10
84.963
 20
42.3485
 30
0.0
 11
85.5913
 21
42.3485
 31
0.0
  0
LINE
  8
0
 62
     253
 10
85.5913
 20
42.3485
 30
0.0
 11
86.2485
 21
42.3485
 31
0.0
  0
LINE
  8
0
 62
     253
 10
86.2485
 20
42.3485
 30
0.0
 11
88.2206
 21
42.8364
 31
0.0
  0
LINE
  8
0
 62
     253
 10
88.2206
 20
42.8364
 30
0.0
 11
90.3482
 21
44.1702
 31
0.0
  0
LINE
  8
0
 62
     253
 10
90.3482
 20
44.1702
 30
0.0
 11
91.772
 21
46.156
 31
0.0
  0
LINE
  8
0
 62
     253
 10
91.772
 20
46.156
 30
0.0
 11
92.2913
 21
47.9915
 31
0.0
  0
LINE
  8
0
 62
     253
 10
92.2913
 20
47.9915
 30
0.0
 11
92.2913
 21
48.6033
 31
0.0
  0
LINE
  8
0
 62
     253
 10
92.2913
 20
48.6033
 30
0.0
 11
92.2913
 21
49.2153
 31
0.0
  0
LINE
  8
0
 62
     253
 10
92.2913
 20
49.2153
 30
0.0
 11
91.772
 21
51.0508
 31
0.0
  0
LINE
  8
0
 62
     253
 10
91.772
 20
51.0508
 30
0.0
 11
90.3482
 21
53.0366
 31
0.0
  0
LINE
  8
0
 62
     253
 10
90.3482
 20
53.0366
 30
0.0
 11
88.2206
 21
54.3705
 31
0.0
  0
LINE
  8
0
 62
     253
 10
88.2206
 20
54.3705
 30
0.0
 11
86.2485
 21
54.8569
 31
0.0
  0
LINE
  8
0
 62
     253
 10
86.2485
 20
54.8569
 30
0.0
 11
85.5913
 21
54.8569
 31
0.0
  0
LINE
  8
0
 62
     253
 10
85.5913
 20
54.8569
 30
0.0
 11
84.963
 21
54.8569
 31
0.0
  0
LINE
  8
0
 62
     253
 10
84.963
 20
54.8569
 30
0.0
 11
83.0778
 21
54.3705
 31
0.0
  0
LINE
  8
0
 62
     253
 10
83.0778
 20
54.3705
 30
0.0
 11
81.0341
 21
53.0366
 31
0.0
  0
LINE
  8
0
 62
     253
 10
81.0341
 20
53.0366
 30
0.0
 11
79.6604
 21
51.0508
 31
0.0
  0
LINE
  8
0
 62
     253
 10
79.6604
 20
51.0508
 30
0.0
 11
79.1587
 21
49.2153
 31
0.0
  0
LINE
  8
0
 62
     253
 10
79.1587
 20
49.2153
 30
0.0
 11
79.1587
 21
48.6033
 31
0.0
  0
LINE
  8
0
 62
     253
 10
80.2308
 20
36.1844
 30
0.0
 11
91.3088
 21
36.1844
 31
0.0
  0
LINE
  8
0
 62
     253
 10
91.3088
 20
36.1844
 30
0.0
 11
91.3088
 21
0.358292
 31
0.0
  0
LINE
  8
0
 62
     253
 10
91.3088
 20
0.358292
 30
0.0
 11
80.2308
 21
0.358292
 31
0.0
  0
LINE
  8
0
 62
     253
 10
80.2308
 20
0.358292
 30
0.0
 11
80.2308
 21
36.1844
 31
0.0
  0
LINE
  8
0
 62
     253
 10
101.583
 20
48.6033
 30
0.0
 11
101.583
 21
48.0011
 31
0.0
  0
LINE
  8
0
 62
     253
 10
101.583
 20
48.0011
 30
0.0
 11
102.099
 21
46.1945
 31
0.0
  0
LINE
  8
0
 62
     253
 10
102.099
 20
46.1945
 30
0.0
 11
103.503
 21
44.2034
 31
0.0
  0
LINE
  8
0
 62
     253
 10
103.503
 20
44.2034
 30
0.0
 11
105.578
 21
42.8487
 31
0.0
  0
LINE
  8
0
 62
     253
 10
105.578
 20
42.8487
 30
0.0
 11
107.473
 21
42.3485
 31
0.0
  0
LINE
  8
0
 62
     253
 10
107.473
 20
42.3485
 30
0.0
 11
108.106
 21
42.3485
 31
0.0
  0
LINE
  8
0
 62
     253
 10
108.106
 20
42.3485
 30
0.0
 11
108.749
 21
42.3485
 31
0.0
  0
LINE
  8
0
 62
     253
 10
108.749
 20
42.3485
 30
0.0
 11
110.683
 21
42.8364
 31
0.0
  0
LINE
  8
0
 62
     253
 10
110.683
 20
42.8364
 30
0.0
 11
112.784
 21
44.1702
 31
0.0
  0
LINE
  8
0
 62
     253
 10
112.784
 20
44.1702
 30
0.0
 11
114.198
 21
46.156
 31
0.0
  0
LINE
  8
0
 62
     253
 10
114.198
 20
46.156
 30
0.0
 11
114.716
 21
47.9915
 31
0.0
  0
LINE
  8
0
 62
     253
 10
114.716
 20
47.9915
 30
0.0
 11
114.716
 21
48.6033
 31
0.0
  0
LINE
  8
0
 62
     253
 10
114.716
 20
48.6033
 30
0.0
 11
114.716
 21
49.2153
 31
0.0
  0
LINE
  8
0
 62
     253
 10
114.716
 20
49.2153
 30
0.0
 11
114.198
 21
51.0508
 31
0.0
  0
LINE
  8
0
 62
     253
 10
114.198
 20
51.0508
 30
0.0
 11
112.784
 21
53.0366
 31
0.0
  0
LINE
  8
0
 62
     253
 10
112.784
 20
53.0366
 30
0.0
 11
110.683
 21
54.3705
 31
0.0
  0
LINE
  8
0
 62
     253
 10
110.683
 20
54.3705
 30
0.0
 11
108.749
 21
54.8569
 31
0.0
  0
LINE
  8
0
 62
     253
 10
108.749
 20
54.8569
 30
0.0
 11
108.106
 21
54.8569
 31
0.0
  0
LINE
  8
0
 62
     253
 10
108.106
 20
54.8569
 30
0.0
 11
107.473
 21
54.8569
 31
0.0
  0
LINE
  8
0
 62
     253
 10
107.473
 20
54.8569
 30
0.0
 11
105.578
 21
54.3705
 31
0.0
  0
LINE
  8
0
 62
     253
 10
105.578
 20
54.3705
 30
0.0
 11
103.503
 21
53.0366
 31
0.0
  0
LINE
  8
0
 62
     253
 10
103.503
 20
53.0366
 30
0.0
 11
102.099
 21
51.0508
 31
0.0
  0
LINE
  8
0
 62
     253
 10
102.099
 20
51.0508
 30
0.0
 11
101.583
 21
49.2153
 31
0.0
  0
LINE
  8
0
 62
     253
 10
101.583
 20
49.2153
 30
0.0
 11
101.583
 21
48.6033
 31
0.0
  0
LINE
  8
0
 62
     253
 10
102.656
 20
36.1844
 30
0.0
 11
113.734
 21
36.1844
 31
0.0
  0
LINE
  8
0
 62
     253
 10
113.734
 20
36.1844
 30
0.0
 11
113.734
 21
0.358292
 31
0.0
  0
LINE
  8
0
 62
     253
 10
113.734
 20
0.358292
 30
0.0
 11
102.656
 21
0.358292
 31
0.0
  0
LINE
  8
0
 62
     253
 10
102.656
 20
0.358292
 30
0.0
 11
102.656
 21
36.1844
 31
0.0
  0
LINE
  8
0
 62
     253
 10
62.629
 20
51.8199
 30
0.0
 11
52.9802
 21
13.8479
 31
0.0
  0
LINE
  8
0
 62
     253
 10
52.9802
 20
13.8479
 30
0.0
 11
52.9802
 21
13.8479
 31
0.0
  0
LINE
  8
0
 62
     253
 10
52.9802
 20
13.8479
 30
0.0
 11
52.8959
 21
14.169
 31
0.0
  0
LINE
  8
0
 62
     253
 10
52.8959
 20
14.169
 30
0.0
 11
52.6591
 21
15.0813
 31
0.0
  0
LINE
  8
0
 62
     253
 10
52.6591
 20
15.0813
 30
0.0
 11
52.287
 21
16.5062
 31
0.0
  0
LINE
  8
0
 62
     253
 10
52.287
 20
16.5062
 30
0.0
 11
51.8019
 21
18.3665
 31
0.0
  0
LINE
  8
0
 62
     253
 10
51.8019
 20
18.3665
 30
0.0
 11
51.2216
 21
20.5838
 31
0.0
  0
LINE
  8
0
 62
     253
 10
51.2216
 20
20.5838
 30
0.0
 11
50.5672
 21
23.0835
 31
0.0
  0
LINE
  8
0
 62
     253
 10
50.5672
 20
23.0835
 30
0.0
 11
49.8588
 21
25.7845
 31
0.0
  0
LINE
  8
0
 62
     253
 10
49.8588
 20
25.7845
 30
0.0
 11
49.1162
 21
28.6122
 31
0.0
  0
LINE
  8
0
 62
     253
 10
49.1162
 20
28.6122
 30
0.0
 11
48.3581
 21
31.4882
 31
0.0
  0
LINE
  8
0
 62
     253
 10
48.3581
 20
31.4882
 30
0.0
 11
47.6056
 21
34.3352
 31
0.0
  0
LINE
  8
0
 62
     253
 10
47.6056
 20
34.3352
 30
0.0
 11
46.8782
 21
37.0748
 31
0.0
  0
LINE
  8
0
 62
     253
 10
46.8782
 20
37.0748
 30
0.0
 11
46.1959
 21
39.6296
 31
0.0
  0
LINE
  8
0
 62
     253
 10
46.1959
 20
39.6296
 30
0.0
 11
45.5785
 21
41.9241
 31
0.0
  0
LINE
  8
0
 62
     253
 10
45.5785
 20
41.9241
 30
0.0
 11
45.0455
 21
43.8781
 31
0.0
  0
LINE
  8
0
 62
     253
 10
45.0455
 20
43.8781
 30
0.0
 11
44.6183
 21
45.4159
 31
0.0
  0
LINE
  8
0
 62
     253
 10
44.6183
 20
45.4159
 30
0.0
 11
44.3936
 21
46.2001
 31
0.0
  0
LINE
  8
0
 62
     253
 10
44.3936
 20
46.2001
 30
0.0
 11
44.3149
 21
46.4591
 31
0.0
  0
LINE
  8
0
 62
     253
 10
44.3149
 20
46.4591
 30
0.0
 11
44.1194
 21
47.1343
 31
0.0
  0
LINE
  8
0
 62
     253
 10
44.1194
 20
47.1343
 30
0.0
 11
43.1973
 21
49.0636
 31
0.0
  0
LINE
  8
0
 62
     253
 10
43.1973
 20
49.0636
 30
0.0
 11
41.6112
 21
50.8702
 31
0.0
  0
LINE
  8
0
 62
     253
 10
41.6112
 20
50.8702
 30
0.0
 11
39.5898
 21
51.9247
 31
0.0
  0
LINE
  8
0
 62
     253
 10
39.5898
 20
51.9247
 30
0.0
 11
37.7719
 21
52.2661
 31
0.0
  0
LINE
  8
0
 62
     253
 10
37.7719
 20
52.2661
 30
0.0
 11
37.1669
 21
52.2661
 31
0.0
  0
LINE
  8
0
 62
     253
 10
37.1669
 20
52.2661
 30
0.0
 11
36.551
 21
52.2661
 31
0.0
  0
LINE
  8
0
 62
     253
 10
36.551
 20
52.2661
 30
0.0
 11
34.7045
 21
51.9247
 31
0.0
  0
LINE
  8
0
 62
     253
 10
34.7045
 20
51.9247
 30
0.0
 11
32.6774
 21
50.8702
 31
0.0
  0
LINE
  8
0
 62
     253
 10
32.6774
 20
50.8702
 30
0.0
 11
31.0858
 21
49.0636
 31
0.0
  0
LINE
  8
0
 62
     253
 10
31.0858
 20
49.0636
 30
0.0
 11
30.1391
 21
47.1357
 31
0.0
  0
LINE
  8
0
 62
     253
 10
30.1391
 20
47.1357
 30
0.0
 11
29.9296
 21
46.4591
 31
0.0
  0
LINE
  8
0
 62
     253
 10
29.9296
 20
46.4591
 30
0.0
 11
29.8552
 21
46.2001
 31
0.0
  0
LINE
  8
0
 62
     253
 10
29.8552
 20
46.2001
 30
0.0
 11
29.6416
 21
45.4159
 31
0.0
  0
LINE
  8
0
 62
     253
 10
29.6416
 20
45.4159
 30
0.0
 11
29.2268
 21
43.8781
 31
0.0
  0
LINE
  8
0
 62
     253
 10
29.2268
 20
43.8781
 30
0.0
 11
28.7059
 21
41.9241
 31
0.0
  0
LINE
  8
0
 62
     253
 10
28.7059
 20
41.9241
 30
0.0
 11
28.0982
 21
39.6296
 31
0.0
  0
LINE
  8
0
 62
     253
 10
28.0982
 20
39.6296
 30
0.0
 11
27.4243
 21
37.0748
 31
0.0
  0
LINE
  8
0
 62
     253
 10
27.4243
 20
37.0748
 30
0.0
 11
26.705
 21
34.3352
 31
0.0
  0
LINE
  8
0
 62
     253
 10
26.705
 20
34.3352
 30
0.0
 11
25.9581
 21
31.4882
 31
0.0
  0
LINE
  8
0
 62
     253
 10
25.9581
 20
31.4882
 30
0.0
 11
25.2043
 21
28.6122
 31
0.0
  0
LINE
  8
0
 62
     253
 10
25.2043
 20
28.6122
 30
0.0
 11
24.4657
 21
25.7845
 31
0.0
  0
LINE
  8
0
 62
     253
 10
24.4657
 20
25.7845
 30
0.0
 11
23.7601
 21
23.0835
 31
0.0
  0
LINE
  8
0
 62
     253
 10
23.7601
 20
23.0835
 30
0.0
 11
23.1069
 21
20.5838
 31
0.0
  0
LINE
  8
0
 62
     253
 10
23.1069
 20
20.5838
 30
0.0
 11
22.5282
 21
18.3665
 31
0.0
  0
LINE
  8
0
 62
     253
 10
22.5282
 20
18.3665
 30
0.0
 11
22.0445
 21
16.5062
 31
0.0
  0
LINE
  8
0
 62
     253
 10
22.0445
 20
16.5062
 30
0.0
 11
21.6724
 21
15.0813
 31
0.0
  0
LINE
  8
0
 62
     253
 10
21.6724
 20
15.0813
 30
0.0
 11
21.4354
 21
14.169
 31
0.0
  0
LINE
  8
0
 62
     253
 10
21.4354
 20
14.169
 30
0.0
 11
21.3527
 21
13.8479
 31
0.0
  0
LINE
  8
0
 62
     253
 10
21.3527
 20
13.8479
 30
0.0
 11
21.3527
 21
13.8479
 31
0.0
  0
LINE
  8
0
 62
     253
 10
21.3527
 20
13.8479
 30
0.0
 11
11.6141
 21
51.8199
 31
0.0
  0
LINE
  8
0
 62
     253
 10
11.6141
 20
51.8199
 30
0.0
 11
0
 21
51.8199
 31
0.0
  0
LINE
  8
0
 62
     253
 10
0
 20
51.8199
 30
0.0
 11
0
 21
51.8199
 31
0.0
  0
LINE
  8
0
 62
     253
 10
0
 20
51.8199
 30
0.0
 11
0.125402
 21
51.3652
 31
0.0
  0
LINE
  8
0
 62
     253
 10
0.125402
 20
51.3652
 30
0.0
 11
0.482314
 21
50.0726
 31
0.0
  0
LINE
  8
0
 62
     253
 10
0.482314
 20
50.0726
 30
0.0
 11
1.04042
 21
48.0536
 31
0.0
  0
LINE
  8
0
 62
     253
 10
1.04042
 20
48.0536
 30
0.0
 11
1.76802
 21
45.423
 31
0.0
  0
LINE
  8
0
 62
     253
 10
1.76802
 20
45.423
 30
0.0
 11
2.63619
 21
42.2892
 31
0.0
  0
LINE
  8
0
 62
     253
 10
2.63619
 20
42.2892
 30
0.0
 11
3.61322
 21
38.7643
 31
0.0
  0
LINE
  8
0
 62
     253
 10
3.61322
 20
38.7643
 30
0.0
 11
4.6688
 21
34.9622
 31
0.0
  0
LINE
  8
0
 62
     253
 10
4.6688
 20
34.9622
 30
0.0
 11
5.77261
 21
30.9921
 31
0.0
  0
LINE
  8
0
 62
     253
 10
5.77261
 20
30.9921
 30
0.0
 11
6.89434
 21
26.9668
 31
0.0
  0
LINE
  8
0
 62
     253
 10
6.89434
 20
26.9668
 30
0.0
 11
8.00365
 21
22.9967
 31
0.0
  0
LINE
  8
0
 62
     253
 10
8.00365
 20
22.9967
 30
0.0
 11
9.07023
 21
19.1961
 31
0.0
  0
LINE
  8
0
 62
     253
 10
9.07023
 20
19.1961
 30
0.0
 11
10.0624
 21
15.6738
 31
0.0
  0
LINE
  8
0
 62
     253
 10
10.0624
 20
15.6738
 30
0.0
 11
10.9513
 21
12.5429
 31
0.0
  0
LINE
  8
0
 62
     253
 10
10.9513
 20
12.5429
 30
0.0
 11
11.7051
 21
9.915
 31
0.0
  0
LINE
  8
0
 62
     253
 10
11.7051
 20
9.915
 30
0.0
 11
12.2935
 21
7.90028
 31
0.0
  0
LINE
  8
0
 62
     253
 10
12.2935
 20
7.90028
 30
0.0
 11
12.5829
 21
6.93289
 31
0.0
  0
LINE
  8
0
 62
     253
 10
12.5829
 20
6.93289
 30
0.0
 11
12.6862
 21
6.61183
 31
0.0
  0
LINE
  8
0
 62
     253
 10
12.6862
 20
6.61183
 30
0.0
 11
12.8984
 21
5.94212
 31
0.0
  0
LINE
  8
0
 62
     253
 10
12.8984
 20
5.94212
 30
0.0
 11
13.8686
 21
4.03352
 31
0.0
  0
LINE
  8
0
 62
     253
 10
13.8686
 20
4.03352
 30
0.0
 11
15.6449
 21
1.93339
 31
0.0
  0
LINE
  8
0
 62
     253
 10
15.6449
 20
1.93339
 30
0.0
 11
17.9751
 21
0.518142
 31
0.0
  0
LINE
  8
0
 62
     253
 10
17.9751
 20
0.518142
 30
0.0
 11
20.1056
 21
0
 31
0.0
  0
LINE
  8
0
 62
     253
 10
20.1056
 20
0
 30
0.0
 11
20.8166
 21
0
 31
0.0
  0
LINE
  8
0
 62
     253
 10
20.8166
 20
0
 30
0.0
 11
21.6049
 21
0
 31
0.0
  0
LINE
  8
0
 62
     253
 10
21.6049
 20
0
 30
0.0
 11
23.9696
 21
0.593933
 31
0.0
  0
LINE
  8
0
 62
     253
 10
23.9696
 20
0.593933
 30
0.0
 11
26.2778
 21
2.13458
 31
0.0
  0
LINE
  8
0
 62
     253
 10
26.2778
 20
2.13458
 30
0.0
 11
27.8639
 21
4.26089
 31
0.0
  0
LINE
  8
0
 62
     253
 10
27.8639
 20
4.26089
 30
0.0
 11
28.6673
 21
6.00685
 31
0.0
  0
LINE
  8
0
 62
     253
 10
28.6673
 20
6.00685
 30
0.0
 11
28.8575
 21
6.61183
 31
0.0
  0
LINE
  8
0
 62
     253
 10
28.8575
 20
6.61183
 30
0.0
 11
28.9292
 21
6.82681
 31
0.0
  0
LINE
  8
0
 62
     253
 10
28.9292
 20
6.82681
 30
0.0
 11
29.1262
 21
7.47861
 31
0.0
  0
LINE
  8
0
 62
     253
 10
29.1262
 20
7.47861
 30
0.0
 11
29.5217
 21
8.8222
 31
0.0
  0
LINE
  8
0
 62
     253
 10
29.5217
 20
8.8222
 30
0.0
 11
30.022
 21
10.5695
 31
0.0
  0
LINE
  8
0
 62
     253
 10
30.022
 20
10.5695
 30
0.0
 11
30.6076
 21
12.6463
 31
0.0
  0
LINE
  8
0
 62
     253
 10
30.6076
 20
12.6463
 30
0.0
 11
31.2594
 21
14.9793
 31
0.0
  0
LINE
  8
0
 62
     253
 10
31.2594
 20
14.9793
 30
0.0
 11
31.9567
 21
17.4956
 31
0.0
  0
LINE
  8
0
 62
     253
 10
31.9567
 20
17.4956
 30
0.0
 11
32.6815
 21
20.1221
 31
0.0
  0
LINE
  8
0
 62
     253
 10
32.6815
 20
20.1221
 30
0.0
 11
33.4133
 21
22.7831
 31
0.0
  0
LINE
  8
0
 62
     253
 10
33.4133
 20
22.7831
 30
0.0
 11
34.1326
 21
25.4069
 31
0.0
  0
LINE
  8
0
 62
     253
 10
34.1326
 20
25.4069
 30
0.0
 11
34.8203
 21
27.9204
 31
0.0
  0
LINE
  8
0
 62
     253
 10
34.8203
 20
27.9204
 30
0.0
 11
35.4556
 21
30.2479
 31
0.0
  0
LINE
  8
0
 62
     253
 10
35.4556
 20
30.2479
 30
0.0
 11
36.0193
 21
32.3178
 31
0.0
  0
LINE
  8
0
 62
     253
 10
36.0193
 20
32.3178
 30
0.0
 11
36.4917
 21
34.0555
 31
0.0
  0
LINE
  8
0
 62
     253
 10
36.4917
 20
34.0555
 30
0.0
 11
36.8529
 21
35.3882
 31
0.0
  0
LINE
  8
0
 62
     253
 10
36.8529
 20
35.3882
 30
0.0
 11
37.0844
 21
36.2409
 31
0.0
  0
LINE
  8
0
 62
     253
 10
37.0844
 20
36.2409
 30
0.0
 11
37.1669
 21
36.5414
 31
0.0
  0
LINE
  8
0
 62
     253
 10
37.1669
 20
36.5414
 30
0.0
 11
37.1669
 21
36.5414
 31
0.0
  0
LINE
  8
0
 62
     253
 10
37.1669
 20
36.5414
 30
0.0
 11
37.1669
 21
36.5414
 31
0.0
  0
LINE
  8
0
 62
     253
 10
37.1669
 20
36.5414
 30
0.0
 11
37.2484
 21
36.2409
 31
0.0
  0
LINE
  8
0
 62
     253
 10
37.2484
 20
36.2409
 30
0.0
 11
37.4798
 21
35.3882
 31
0.0
  0
LINE
  8
0
 62
     253
 10
37.4798
 20
35.3882
 30
0.0
 11
37.8411
 21
34.0555
 31
0.0
  0
LINE
  8
0
 62
     253
 10
37.8411
 20
34.0555
 30
0.0
 11
38.3124
 21
32.3178
 31
0.0
  0
LINE
  8
0
 62
     253
 10
38.3124
 20
32.3178
 30
0.0
 11
38.8743
 21
30.2479
 31
0.0
  0
LINE
  8
0
 62
     253
 10
38.8743
 20
30.2479
 30
0.0
 11
39.5083
 21
27.9204
 31
0.0
  0
LINE
  8
0
 62
     253
 10
39.5083
 20
27.9204
 30
0.0
 11
40.192
 21
25.4069
 31
0.0
  0
LINE
  8
0
 62
     253
 10
40.192
 20
25.4069
 30
0.0
 11
40.9071
 21
22.7831
 31
0.0
  0
LINE
  8
0
 62
     253
 10
40.9071
 20
22.7831
 30
0.0
 11
41.6348
 21
20.1221
 31
0.0
  0
LINE
  8
0
 62
     253
 10
41.6348
 20
20.1221
 30
0.0
 11
42.3527
 21
17.4956
 31
0.0
  0
LINE
  8
0
 62
     253
 10
42.3527
 20
17.4956
 30
0.0
 11
43.0445
 21
14.9793
 31
0.0
  0
LINE
  8
0
 62
     253
 10
43.0445
 20
14.9793
 30
0.0
 11
43.6866
 21
12.6463
 31
0.0
  0
LINE
  8
0
 62
     253
 10
43.6866
 20
12.6463
 30
0.0
 11
44.2627
 21
10.5695
 31
0.0
  0
LINE
  8
0
 62
     253
 10
44.2627
 20
10.5695
 30
0.0
 11
44.7506
 21
8.8222
 31
0.0
  0
LINE
  8
0
 62
     253
 10
44.7506
 20
8.8222
 30
0.0
 11
45.1323
 21
7.47861
 31
0.0
  0
LINE
  8
0
 62
     253
 10
45.1323
 20
7.47861
 30
0.0
 11
45.321
 21
6.82819
 31
0.0
  0
LINE
  8
0
 62
     253
 10
45.321
 20
6.82819
 30
0.0
 11
45.387
 21
6.61183
 31
0.0
  0
LINE
  8
0
 62
     253
 10
45.387
 20
6.61183
 30
0.0
 11
45.5937
 21
6.00685
 31
0.0
  0
LINE
  8
0
 62
     253
 10
45.5937
 20
6.00685
 30
0.0
 11
46.4287
 21
4.26089
 31
0.0
  0
LINE
  8
0
 62
     253
 10
46.4287
 20
4.26089
 30
0.0
 11
48.0328
 21
2.13458
 31
0.0
  0
LINE
  8
0
 62
     253
 10
48.0328
 20
2.13458
 30
0.0
 11
50.323
 21
0.593933
 31
0.0
  0
LINE
  8
0
 62
     253
 10
50.323
 20
0.593933
 30
0.0
 11
52.6507
 21
0
 31
0.0
  0
LINE
  8
0
 62
     253
 10
52.6507
 20
0
 30
0.0
 11
53.4278
 21
0
 31
0.0
  0
LINE
  8
0
 62
     253
 10
53.4278
 20
0
 30
0.0
 11
54.1472
 21
0
 31
0.0
  0
LINE
  8
0
 62
     253
 10
54.1472
 20
0
 30
0.0
 11
56.3065
 21
0.518142
 31
0.0
  0
LINE
  8
0
 62
     253
 10
56.3065
 20
0.518142
 30
0.0
 11
58.6422
 21
1.93339
 31
0.0
  0
LINE
  8
0
 62
     253
 10
58.6422
 20
1.93339
 30
0.0
 11
60.4241
 21
4.03352
 31
0.0
  0
LINE
  8
0
 62
     253
 10
60.4241
 20
4.03352
 30
0.0
 11
61.4179
 21
5.94212
 31
0.0
  0
LINE
  8
0
 62
     253
 10
61.4179
 20
5.94212
 30
0.0
 11
61.6465
 21
6.61183
 31
0.0
  0
LINE
  8
0
 62
     253
 10
61.6465
 20
6.61183
 30
0.0
 11
61.7485
 21
6.93289
 31
0.0
  0
LINE
  8
0
 62
     253
 10
61.7485
 20
6.93289
 30
0.0
 11
62.0391
 21
7.90028
 31
0.0
  0
LINE
  8
0
 62
     253
 10
62.0391
 20
7.90028
 30
0.0
 11
62.6276
 21
9.915
 31
0.0
  0
LINE
  8
0
 62
     253
 10
62.6276
 20
9.915
 30
0.0
 11
63.3801
 21
12.5429
 31
0.0
  0
LINE
  8
0
 62
     253
 10
63.3801
 20
12.5429
 30
0.0
 11
64.2691
 21
15.6738
 31
0.0
  0
LINE
  8
0
 62
     253
 10
64.2691
 20
15.6738
 30
0.0
 11
65.2611
 21
19.1961
 31
0.0
  0
LINE
  8
0
 62
     253
 10
65.2611
 20
19.1961
 30
0.0
 11
66.3279
 21
22.9967
 31
0.0
  0
LINE
  8
0
 62
     253
 10
66.3279
 20
22.9967
 30
0.0
 11
67.437
 21
26.9668
 31
0.0
  0
LINE
  8
0
 62
     253
 10
67.437
 20
26.9668
 30
0.0
 11
68.5588
 21
30.9921
 31
0.0
  0
LINE
  8
0
 62
     253
 10
68.5588
 20
30.9921
 30
0.0
 11
69.6641
 21
34.9622
 31
0.0
  0
LINE
  8
0
 62
     253
 10
69.6641
 20
34.9622
 30
0.0
 11
70.7196
 21
38.7643
 31
0.0
  0
LINE
  8
0
 62
     253
 10
70.7196
 20
38.7643
 30
0.0
 11
71.6964
 21
42.2892
 31
0.0
  0
LINE
  8
0
 62
     253
 10
71.6964
 20
42.2892
 30
0.0
 11
72.5646
 21
45.423
 31
0.0
  0
LINE
  8
0
 62
     253
 10
72.5646
 20
45.423
 30
0.0
 11
73.2924
 21
48.0536
 31
0.0
  0
LINE
  8
0
 62
     253
 10
73.2924
 20
48.0536
 30
0.0
 11
73.8505
 21
50.0726
 31
0.0
  0
LINE
  8
0
 62
     253
 10
73.8505
 20
50.0726
 30
0.0
 11
74.2075
 21
51.3652
 31
0.0
  0
LINE
  8
0
 62
     253
 10
74.2075
 20
51.3652
 30
0.0
 11
74.3342
 21
51.8199
 31
0.0
  0
LINE
  8
0
 62
     253
 10
74.3342
 20
51.8199
 30
0.0
 11
74.3342
 21
51.8199
 31
0.0
  0
LINE
  8
0
 62
     253
 10
74.3342
 20
51.8199
 30
0.0
 11
62.629
 21
51.8199
 31
0.0
  0
ENDSEC
  0
EOF
