<?xml version="1.0" encoding="UTF-8" standalone="no"?>
<svg
   xmlns:dc="http://purl.org/dc/elements/1.1/"
   xmlns:cc="http://creativecommons.org/ns#"
   xmlns:rdf="http://www.w3.org/1999/02/22-rdf-syntax-ns#"
   xmlns:svg="http://www.w3.org/2000/svg"
   xmlns="http://www.w3.org/2000/svg"
   xmlns:sodipodi="http://sodipodi.sourceforge.net/DTD/sodipodi-0.dtd"
   xmlns:inkscape="http://www.inkscape.org/namespaces/inkscape"
   version="1.0"
   id="Ebene_1"
   x="0px"
   y="0px"
   width="946.53113"
   height="190.55704"
   viewBox="0 0 946.53113 190.55703"
   enable-background="new 0 0 667 279.5"
   xml:space="preserve"
   inkscape:version="1.0.2 (e86c870879, 2021-01-15)"
   sodipodi:docname="ps3.svg"><metadata
   id="metadata47"><rdf:RDF><cc:Work
       rdf:about=""><dc:format>image/svg+xml</dc:format><dc:type
         rdf:resource="http://purl.org/dc/dcmitype/StillImage" /><dc:title></dc:title></cc:Work></rdf:RDF></metadata><defs
   id="defs45">
	
	
</defs><sodipodi:namedview
   pagecolor="#ffffff"
   bordercolor="#666666"
   borderopacity="1"
   objecttolerance="10"
   gridtolerance="10"
   guidetolerance="10"
   inkscape:pageopacity="0"
   inkscape:pageshadow="2"
   inkscape:window-width="1475"
   inkscape:window-height="1205"
   id="namedview43"
   showgrid="false"
   fit-margin-top="0"
   fit-margin-left="0"
   fit-margin-right="0"
   fit-margin-bottom="0"
   inkscape:zoom="0.53073463"
   inkscape:cx="517.1924"
   inkscape:cy="123.66491"
   inkscape:window-x="1163"
   inkscape:window-y="168"
   inkscape:window-maximized="0"
   inkscape:current-layer="Ebene_1"
   inkscape:document-rotation="0"
   inkscape:snap-bbox="true"
   inkscape:snap-bbox-midpoints="true"
   inkscape:bbox-paths="true"
   inkscape:bbox-nodes="true"
   inkscape:snap-bbox-edge-midpoints="true" />

<g
   id="g894"
   transform="translate(246.89511,28.065519)"><g
     id="g33"
     transform="translate(51.391,-19.551)">
		<g
   id="g35">
			<path
   inkscape:connector-curvature="0"
   id="path37"
   d="m 421.659,19.551 h -82.591 c -25.474,0 -37.958,15.741 -37.958,36.179 v 62.087 c 0,12.684 -5.989,21.788 -18.631,21.788 h -72.24 c -0.506,0 -0.925,0.419 -0.925,0.9 v 12.53 c 0,0.512 0.419,0.941 0.925,0.941 h 81.768 c 25.464,0 37.979,-15.67 37.979,-36.118 V 55.73 c 0,-12.694 5.943,-21.818 18.657,-21.818 h 73.017 c 0.573,0 1.023,-0.409 1.023,-0.921 V 20.482 c 0,-0.491 -0.451,-0.931 -1.024,-0.931 z" />
			<path
   inkscape:connector-curvature="0"
   id="path39"
   d="M 178.54,19.551 H 19.607 c -0.578,0 -0.998,0.44 -0.998,0.931 v 12.509 c 0,0.512 0.419,0.941 0.998,0.941 h 149.374 c 12.627,0 18.621,9.104 18.621,21.797 0,12.643 -5.994,21.726 -18.621,21.726 H 50.81 c -18.351,0 -32.2,15.415 -32.2,35.862 v 39.687 c 0,0.543 0.419,0.973 0.998,0.973 h 26.927 c 0.527,0 0.967,-0.43 0.967,-0.973 v -39.687 c 0,-12.612 7.247,-21.511 17.762,-21.511 H 178.54 c 25.423,0 37.887,-15.62 37.887,-36.067 0,-20.415 -12.464,-36.188 -37.887,-36.188 z" />
			<path
   inkscape:connector-curvature="0"
   id="path41"
   d="m 636.409,85.086 c -0.356,-0.399 -0.356,-1.084 0,-1.473 7.917,-6.557 11.835,-16.438 11.835,-27.874 0,-20.416 -12.438,-36.188 -37.938,-36.188 H 451.414 c -0.542,0 -0.94,0.44 -0.94,0.972 v 12.468 c 0,0.512 0.398,0.941 0.94,0.941 h 149.35 c 12.591,0 18.667,9.104 18.667,21.797 0,12.643 -6.035,21.726 -18.667,21.726 h -0.185 l -149.165,0.031 c -0.542,0 -0.94,0.389 -0.94,0.961 v 12.459 c 0,0.501 0.398,0.9 0.94,0.9 h 149.35 C 617.232,92 619.4,108.038 619.4,116.242 l 0.031,1.544 c 0,12.714 -6.076,21.859 -18.667,21.859 h -149.35 c -0.542,0 -0.94,0.388 -0.94,0.899 v 12.49 c 0,0.512 0.398,0.941 0.94,0.941 h 158.893 c 25.521,0 37.938,-16.939 37.938,-36.189 v -1.544 c -10e-4,-12.274 -3.919,-23.996 -11.836,-31.156 z" />
		</g>
	</g><g
     id="g870"><g
       id="g849"
       transform="matrix(1.246945,0,0,1.246945,-248.14205,-29.312464)"><path
         style="fill:#1f1f1f;fill-opacity:1;fill-rule:evenodd"
         d="M 15.862004,131.01768 C 0.24279269,126.6193 -2.3566614,117.45375 4.7626047,112.17389 c 6.5795883,-4.8751 17.7689333,-8.54492 17.7689333,-8.54492 0,0 46.241498,-16.442224 46.241498,-16.442224 0,0 0,18.744854 0,18.744854 0,0 -33.275709,11.90892 -33.275709,11.90892 -5.878004,2.10924 -6.781967,5.09547 -2.005807,6.66054 4.780657,1.56506 13.433512,1.11983 19.320511,-0.99391 0,0 15.961005,-5.79256 15.961005,-5.79256 0,0 0,16.77053 0,16.77053 -1.011893,0.17989 -2.140724,0.35978 -3.184104,0.53518 -15.965505,2.60845 -32.969893,1.5201 -49.726928,-4.00262 z"
         id="path836" /><path
         style="fill:#1f1f1f;fill-opacity:1;fill-rule:evenodd"
         d="m 120.11451,86.165853 c 0,0 0,-47.752601 0,-47.752601 0,-5.608163 -1.03439,-10.771093 -6.29626,-12.232725 -4.0296,-1.290734 -6.53012,2.45104 -6.53012,8.054706 0,0 0,119.583887 0,119.583887 0,0 -32.250314,-10.23591 -32.250314,-10.23591 0,0 0,-142.58321 0,-142.58321 13.712343,2.54549 33.689454,8.56291 44.429074,12.18326 27.31226,9.376917 36.57225,21.047482 36.57225,47.343343 0,25.630256 -15.82159,35.344478 -35.92463,25.63925 z"
         id="path834" /><path
         style="fill:#1f1f1f;fill-opacity:1;fill-rule:evenodd"
         d="m 197.23914,117.96194 c -3.8677,4.8796 -13.34356,8.36053 -13.34356,8.36053 0,0 -70.49109,25.31994 -70.49109,25.31994 0,0 0,-18.67289 0,-18.67289 0,0 51.87665,-18.48401 51.87665,-18.48401 5.887,-2.10924 6.79096,-5.09097 2.00581,-6.65604 -4.77616,-1.56957 -13.42451,-1.11983 -19.31601,0.99841 0,0 -34.56645,12.17426 -34.56645,12.17426 0,0 0,-19.37898 0,-19.37898 0,0 1.99232,-0.6746 1.99232,-0.6746 0,0 9.98856,-3.534896 24.03371,-5.09097 14.04515,-1.547081 31.24291,0.211374 44.74389,5.32933 15.21445,4.80764 16.92793,11.89543 13.06473,16.77502 z"
         id="path-1" /></g></g></g></svg>
