<?xml version="1.0" encoding="UTF-8" standalone="no"?>
<svg
   xmlns:dc="http://purl.org/dc/elements/1.1/"
   xmlns:cc="http://creativecommons.org/ns#"
   xmlns:rdf="http://www.w3.org/1999/02/22-rdf-syntax-ns#"
   xmlns:svg="http://www.w3.org/2000/svg"
   xmlns="http://www.w3.org/2000/svg"
   xmlns:sodipodi="http://sodipodi.sourceforge.net/DTD/sodipodi-0.dtd"
   xmlns:inkscape="http://www.inkscape.org/namespaces/inkscape"
   version="1.1"
   id="Ebene_1"
   x="0px"
   y="0px"
   width="946.53107"
   height="190.55704"
   viewBox="0 0 946.53107 190.55704"
   enable-background="new 0 0 375 111.96"
   xml:space="preserve"
   sodipodi:docname="ps4.svg"
   inkscape:version="1.0.2 (e86c870879, 2021-01-15)"><metadata
   id="metadata31"><rdf:RDF><cc:Work
       rdf:about=""><dc:format>image/svg+xml</dc:format><dc:type
         rdf:resource="http://purl.org/dc/dcmitype/StillImage" /><dc:title></dc:title></cc:Work></rdf:RDF></metadata><defs
   id="defs29">
	
	
	
	
	
</defs><sodipodi:namedview
   pagecolor="#ffffff"
   bordercolor="#666666"
   borderopacity="1"
   objecttolerance="10"
   gridtolerance="10"
   guidetolerance="10"
   inkscape:pageopacity="0"
   inkscape:pageshadow="2"
   inkscape:window-width="1874"
   inkscape:window-height="1205"
   id="namedview27"
   showgrid="false"
   fit-margin-top="0"
   fit-margin-left="0"
   fit-margin-right="0"
   fit-margin-bottom="0"
   inkscape:zoom="0.60151218"
   inkscape:cx="701.39742"
   inkscape:cy="189.38152"
   inkscape:window-x="296"
   inkscape:window-y="132"
   inkscape:window-maximized="0"
   inkscape:current-layer="Ebene_1"
   inkscape:document-rotation="0"
   inkscape:snap-bbox="true"
   inkscape:bbox-nodes="true"
   inkscape:bbox-paths="true"
   inkscape:snap-bbox-edge-midpoints="true"
   inkscape:snap-bbox-midpoints="true" />

<g
   id="g14"
   transform="translate(215.96511,0.320214)">
</g>
<g
   id="g16"
   transform="translate(215.96511,0.320214)">
</g>
<g
   id="g18"
   transform="translate(215.96511,0.320214)">
</g>
<g
   id="g20"
   transform="translate(215.96511,0.320214)">
</g>
<g
   id="g22"
   transform="translate(215.96511,0.320214)">
</g>
<g
   id="g24"
   transform="translate(215.96511,0.320214)">
</g>
<g
   id="g903"
   transform="translate(246.89511,27.549213)"><g
     id="g881"><g
       id="g864"
       transform="matrix(2.0885735,0,0,2.0885735,5.4004216,-56.791446)"><path
         d="m 331.947,78.118 v 0 h -13.367 0.451 c -0.221,0 -0.451,-0.227 -0.451,-0.453 V 34.1 c 0,-6.645 -4.586,-8.835 -11.113,-4.908 L 229.81,77.136 c -3.004,1.887 -4.056,4.001 -3.305,5.587 0.601,1.359 2.323,2.34 5.707,2.34 h 72.101 c 0.221,0 0.37,0.152 0.37,0.303 v 6.115 c 0,0.303 0.23,0.453 0.451,0.453 h 12.996 c 0.23,0 0.45,-0.15 0.45,-0.453 v -5.965 c 0,-0.227 0.23,-0.453 0.451,-0.453 h 12.916 c 0.3,0 0.45,-0.227 0.45,-0.452 v -6.04 c 0,-0.227 -0.15,-0.453 -0.45,-0.453 z m -27.184,-0.453 v 0 c 0,0.227 -0.229,0.453 -0.45,0.453 h -60.466 c -0.521,0 -0.751,-0.151 -0.821,-0.303 -0.08,-0.301 0.07,-0.527 0.451,-0.754 l 60.155,-37.224 c 0.38,-0.302 1.131,-0.226 1.131,0.604 z"
         id="path6" /><path
         d="m 231.981,27.229 v 0 l -42.133,0.076 c -12.235,0 -18.172,7.475 -18.172,17.29 V 74.57 c 0,6.115 -2.934,10.494 -8.941,10.494 h -39.652 c -0.225,0 -0.451,0.152 -0.451,0.453 v 5.965 c 0,0.303 0.226,0.529 0.451,0.529 h 44.157 c 12.246,0 18.253,-7.626 18.253,-17.441 V 44.594 c 0,-6.115 2.854,-10.494 8.941,-10.494 h 37.547 c 0.23,0 0.451,-0.228 0.451,-0.454 v -5.964 c 0.001,-0.227 -0.22,-0.453 -0.451,-0.453 z"
         id="path8" /><path
         d="m 107.537,27.304 v 0 H 31.381 c -0.301,0 -0.451,0.151 -0.451,0.378 v 5.964 c 0,0.302 0.15,0.454 0.451,0.454 h 71.574 c 6.084,0 8.938,4.379 8.938,10.494 0,6.116 -2.854,10.495 -8.938,10.495 H 46.326 c -8.787,0 -15.396,7.475 -15.396,17.291 v 19.102 c 0,0.303 0.15,0.529 0.451,0.529 h 12.918 c 0.225,0 0.451,-0.227 0.451,-0.529 V 72.379 c 0,-6.115 3.454,-10.344 8.486,-10.344 h 54.301 c 12.241,0 18.175,-7.55 18.175,-17.441 0,-9.815 -5.934,-17.29 -18.175,-17.29 z"
         id="path10" /></g></g><g
     id="g849"
     transform="matrix(1.246945,0,0,1.246945,-248.14205,-28.796158)"><path
       style="fill:#1f1f1f;fill-opacity:1;fill-rule:evenodd"
       d="M 15.862004,131.01768 C 0.24279269,126.6193 -2.3566614,117.45375 4.7626047,112.17389 c 6.5795883,-4.8751 17.7689333,-8.54492 17.7689333,-8.54492 0,0 46.241498,-16.442224 46.241498,-16.442224 0,0 0,18.744854 0,18.744854 0,0 -33.275709,11.90892 -33.275709,11.90892 -5.878004,2.10924 -6.781967,5.09547 -2.005807,6.66054 4.780657,1.56506 13.433512,1.11983 19.320511,-0.99391 0,0 15.961005,-5.79256 15.961005,-5.79256 0,0 0,16.77053 0,16.77053 -1.011893,0.17989 -2.140724,0.35978 -3.184104,0.53518 -15.965505,2.60845 -32.969893,1.5201 -49.726928,-4.00262 z"
       id="path836" /><path
       style="fill:#1f1f1f;fill-opacity:1;fill-rule:evenodd"
       d="m 120.11451,86.165853 c 0,0 0,-47.752601 0,-47.752601 0,-5.608163 -1.03439,-10.771093 -6.29626,-12.232725 -4.0296,-1.290734 -6.53012,2.45104 -6.53012,8.054706 0,0 0,119.583887 0,119.583887 0,0 -32.250314,-10.23591 -32.250314,-10.23591 0,0 0,-142.58321 0,-142.58321 13.712343,2.54549 33.689454,8.56291 44.429074,12.18326 27.31226,9.376917 36.57225,21.047482 36.57225,47.343343 0,25.630256 -15.82159,35.344478 -35.92463,25.63925 z"
       id="path834" /><path
       style="fill:#1f1f1f;fill-opacity:1;fill-rule:evenodd"
       d="m 197.23914,117.96194 c -3.8677,4.8796 -13.34356,8.36053 -13.34356,8.36053 0,0 -70.49109,25.31994 -70.49109,25.31994 0,0 0,-18.67289 0,-18.67289 0,0 51.87665,-18.48401 51.87665,-18.48401 5.887,-2.10924 6.79096,-5.09097 2.00581,-6.65604 -4.77616,-1.56957 -13.42451,-1.11983 -19.31601,0.99841 0,0 -34.56645,12.17426 -34.56645,12.17426 0,0 0,-19.37898 0,-19.37898 0,0 1.99232,-0.6746 1.99232,-0.6746 0,0 9.98856,-3.534896 24.03371,-5.09097 14.04515,-1.547081 31.24291,0.211374 44.74389,5.32933 15.21445,4.80764 16.92793,11.89543 13.06473,16.77502 z"
       id="path-1" /></g></g></svg>
