<?xml version="1.0" encoding="UTF-8"?>
<svg width="1e3" height="181.25" version="1.1" viewBox="0 0 1e3 181.25" xml:space="preserve" xmlns="http://www.w3.org/2000/svg" xmlns:cc="http://creativecommons.org/ns#" xmlns:dc="http://purl.org/dc/elements/1.1/" xmlns:rdf="http://www.w3.org/1999/02/22-rdf-syntax-ns#"><metadata><rdf:RDF><cc:Work rdf:about=""><dc:format>image/svg+xml</dc:format><dc:type rdf:resource="http://purl.org/dc/dcmitype/StillImage"/><dc:title/></cc:Work></rdf:RDF></metadata><g transform="matrix(1.3333 0 0 -1.3333 1064.7 913.95)"><g transform="matrix(1.4133 0 0 1.4133 -736.8 685.46)"><path d="m0 0v-84.129l19.049-6.035v70.541c0 3.324 1.482 5.531 3.859 4.772 3.108-0.862 3.712-3.924 3.712-7.211v-28.173c11.857-5.739 21.192 3e-3 21.192 15.145 0 15.473-5.473 22.366-21.577 27.908-6.352 2.115-18.124 5.684-26.235 7.182"/></g><g transform="matrix(1.4133 0 0 1.4133 -704.76 575.41)"><path d="m0 0 30.594 10.889c3.461 1.283 3.99 3.026 1.189 3.942-2.845 0.933-7.923 0.666-11.421-0.59l-20.362-7.183v11.461l1.166 0.385s5.894 2.088 14.184 2.987c8.274 0.907 18.421-0.118 26.396-3.124 8.984-2.854 9.991-7.017 7.718-9.914-2.306-2.867-7.897-4.941-7.897-4.941l-41.567-14.932"/></g><g transform="matrix(1.4133 0 0 1.4133 -786.13 577.05)"><path d="m0 0c-9.211 2.566-10.747 7.988-6.545 11.12 3.876 2.86 10.477 5.013 10.477 5.013l27.287 9.729v-11.073l-19.618-7.032c-3.475-1.243-3.996-2.992-1.197-3.907 2.849-0.952 7.905-0.696 11.382 0.587l9.433 3.401v-9.885c-0.608-0.102-1.284-0.205-1.901-0.31-9.405-1.561-19.425-0.92-29.318 2.357"/></g><g transform="matrix(1.4133 0 0 1.4133 -545.72 654.26)"><path d="m0 0-23.004 0.01c-0.095 0-0.171-0.075-0.171-0.162v-53.802c0-0.086 0.076-0.167 0.171-0.167h9.323l0.164 0.167 0.011 47.962 0.055 0.08 10.675 0.02c3.887 0 6.022-3.917 6.022-11.015 0-7.102-2.135-11.028-6.022-11.028l-6.425 7e-3c-0.096 0-0.161-0.073-0.161-0.165v-5.582c0-0.109 0.065-0.175 0.161-0.175h9.201c3.246 0 6.425 1.504 8.719 4.089 2.718 3.068 4.149 7.497 4.149 12.805 0 10.286-5.024 16.956-12.868 16.956"/></g><g transform="matrix(1.4133 0 0 1.4133 -505.98 654.27)"><path d="m0 0h-9.329c-0.106 0-0.182-0.075-0.182-0.162v-53.802c0-0.087 0.076-0.167 0.182-0.167h9.329l0.171 0.167v53.802l-0.171 0.162"/></g><g transform="matrix(1.4133 0 0 1.4133 -448.48 635.76)"><path d="m0 0c0 0.095-0.084 0.167-0.176 0.167h-16.613c-14.897 0-16.801-10.935-16.801-20.545l0.011-8.311c0-7.152 4.448-12.345 10.563-12.345h9.064l0.164 0.166v5.576c0 0.091-0.077 0.172-0.164 0.172l-6.474-0.011c-1.492 0.031-3.5 0.662-3.5 5.79v8.973c-7e-3 5.963 0.548 9.775 1.786 11.944 1.341 2.394 3.452 2.715 5.351 2.715h7.081l0.06-0.084-9e-3 -35.075c0-0.085 0.072-0.166 0.171-0.166h9.312c0.092 0 0.174 0.081 0.174 0.166"/></g><g transform="matrix(1.4133 0 0 1.4133 -353.64 622.45)"><path d="m0 0-4.594 0.35c-3.445 0.297-6.007 2.205-6.007 7.85 0 6.591 2.956 8.394 6.902 8.394h12.715l0.169 0.164v5.595l-0.169 0.161h-0.266l-13.775-3e-3c-8.678 0-14.849-5.097-14.849-15.255v-0.442c0-8.015 4.932-13.8 12.282-14.362l4.572-0.339c3.488-0.264 5.66-3.383 5.66-8.116v-1.331c0-2.959-0.74-8.373-7.086-8.373h-13.211c-0.089 0-0.166-0.077-0.166-0.172v-5.569l0.166-0.167h16.402c5.054 0 13.517 2.045 13.517 15.801 0 4.984-1.132 8.912-3.427 11.751-1.956 2.438-4.854 3.757-8.835 4.063"/></g><g transform="matrix(1.4133 0 0 1.4133 -245.66 635.76)"><path d="m0 0c0 0.095-0.079 0.167-0.167 0.167h-16.65c-14.865 0-16.789-10.935-16.789-20.545l0.012-8.311c0-7.152 4.444-12.345 10.591-12.345h9.039l0.168 0.166v5.576c0 0.091-0.079 0.172-0.168 0.172l-6.478-0.011c-1.486 0.031-3.476 0.662-3.482 5.79v8.973c0 5.963 0.561 9.775 1.77 11.944 1.342 2.394 3.467 2.715 5.334 2.715h7.113l0.07-0.084-0.017-35.075c0-0.085 0.077-0.166 0.17-0.166h9.325c0.092 0 0.159 0.081 0.159 0.166"/></g><g transform="matrix(1.4133 0 0 1.4133 -298.63 636)"><path d="m0 0h-10.12l-0.053 0.062v6.78c0 0.09-0.069 0.166-0.163 0.166h-9.32c-0.095 0-0.178-0.076-0.178-0.166v-35.702c0-7.151 4.458-12.341 10.596-12.341h6.675c0.096 0 0.17 0.081 0.17 0.167v5.57c0 0.091-0.074 0.177-0.17 0.177h-4.098c-1.05 0.016-3.512 0.069-3.522 5.338v24.035l0.057 0.054c3.1-0.016 10.126 0 10.126 0l0.164 0.153v5.54c0 0.094-0.077 0.167-0.164 0.167"/></g><g transform="matrix(1.4133 0 0 1.4133 -206.65 636)"><path d="m0 0h-10.063l-0.068 0.062v6.78l-0.154 0.166h-9.339c-0.092 0-0.172-0.076-0.172-0.166v-35.702c0-7.151 4.45-12.341 10.584-12.341h6.673c0.1 0 0.165 0.081 0.165 0.167v5.57c0 0.091-0.065 0.177-0.165 0.177h-4.097c-1.053 0.016-3.495 0.069-3.495 5.338v24.035l0.056 0.054c3.076-0.016 10.075 0 10.075 0l0.166 0.153v5.54c0 0.094-0.084 0.167-0.166 0.167"/></g><g transform="matrix(1.4133 0 0 1.4133 -184.87 636)"><path d="m0 0h-9.319c-0.087 0-0.17-0.073-0.17-0.167v-40.867l0.17-0.167h9.319c0.102 0 0.172 0.081 0.172 0.167v40.867c0 0.094-0.07 0.167-0.172 0.167"/></g><g transform="matrix(1.4133 0 0 1.4133 -184.87 654.27)"><path d="m0 0h-9.319l-0.17-0.162v-7.813c0-0.095 0.083-0.165 0.17-0.165h9.319c0.102 0 0.172 0.07 0.172 0.165v7.813c0 0.087-0.07 0.162-0.172 0.162"/></g><g transform="matrix(1.4133 0 0 1.4133 -93.738 636)"><path d="m0 0h-16.633c-0.087 0-0.164-0.073-0.164-0.167l-5e-3 -40.867 0.156-0.167h9.336l0.158 0.167-0.013 35.085 0.065 0.068 7.092 5e-3c1.918 0 4.022-0.309 5.368-2.527 1.231-2.004 1.789-5.527 1.789-11.056 8e-3 -0.239-7e-3 -21.575-7e-3 -21.575 0-0.086 0.074-0.167 0.166-0.167h9.296c0.101 0 0.175 0.081 0.175 0.167v20.495c0 9.605-1.919 20.539-16.779 20.539"/></g><g transform="matrix(1.4133 0 0 1.4133 -142.68 589.95)"><path d="m0 0c-1.467-2.416-3.796-2.739-5.909-2.739-2.092 0-4.428 0.323-5.911 2.739-1.337 2.174-1.956 5.983-1.956 11.989v0.048c0 7.088 0.872 11.115 2.823 13.033 1.167 1.164 2.68 1.636 5.044 1.636 2.398 0 3.896-0.472 5.062-1.636 1.934-1.918 2.808-5.962 2.808-13.081 0-6.014-0.621-9.826-1.961-11.989m-5.909 32.581c-15.568 0-17.558-10.986-17.558-20.592 0-9.617 1.99-20.639 17.558-20.639 15.569 0 17.554 11.022 17.554 20.639 0 9.606-1.985 20.592-17.554 20.592"/></g><g transform="matrix(1.4133 0 0 1.4133 -441.05 636)"><path d="m0 0-0.108-0.162 13.828-40.493c0.023-0.091 0.023-0.231-6e-3 -0.32l-7.786-20.049c-0.033-0.095 0.01-0.165 0.102-0.165h8.108c0.1 0 0.205 0.07 0.238 0.165l24.274 60.862c0.034 0.097-9e-3 0.162-0.104 0.162h-8.846c-0.096 0-0.197-0.073-0.227-0.162l-10.277-26.609h-0.115l-9.073 26.609c-0.021 0.097-0.125 0.162-0.218 0.162"/></g></g></svg>
