solid OpenSCAD_Model
  facet normal 0 0 -1
    outer loop
      vertex -101.2 -31.2 0
      vertex 101.2 31.2 0
      vertex 101.2 -31.2 0
    endloop
  endfacet
  facet normal -0 0 -1
    outer loop
      vertex 101.2 31.2 0
      vertex -101.2 -31.2 0
      vertex -101.2 31.2 0
    endloop
  endfacet
  facet normal 1 -0 0
    outer loop
      vertex 101.2 -31.2 72
      vertex 101.2 31.2 0
      vertex 101.2 31.2 72
    endloop
  endfacet
  facet normal 1 0 0
    outer loop
      vertex 101.2 31.2 0
      vertex 101.2 -31.2 72
      vertex 101.2 -31.2 0
    endloop
  endfacet
  facet normal -1 0 0
    outer loop
      vertex -101.2 -31.2 0
      vertex -101.2 31.2 72
      vertex -101.2 31.2 0
    endloop
  endfacet
  facet normal -1 -0 0
    outer loop
      vertex -101.2 31.2 72
      vertex -101.2 -31.2 0
      vertex -101.2 -31.2 72
    endloop
  endfacet
  facet normal 0 -1 0
    outer loop
      vertex -101.2 -31.2 0
      vertex 101.2 -31.2 72
      vertex -101.2 -31.2 72
    endloop
  endfacet
  facet normal 0 -1 -0
    outer loop
      vertex 101.2 -31.2 72
      vertex -101.2 -31.2 0
      vertex 101.2 -31.2 0
    endloop
  endfacet
  facet normal 0 1 -0
    outer loop
      vertex 101.2 31.2 0
      vertex -101.2 31.2 72
      vertex 101.2 31.2 72
    endloop
  endfacet
  facet normal 0 1 0
    outer loop
      vertex -101.2 31.2 72
      vertex 101.2 31.2 0
      vertex -101.2 31.2 0
    endloop
  endfacet
  facet normal 0 0 1
    outer loop
      vertex 101.2 31.2 72
      vertex 100 30 72
      vertex 101.2 -31.2 72
    endloop
  endfacet
  facet normal 0 0 1
    outer loop
      vertex 101.2 31.2 72
      vertex -100 30 72
      vertex 100 30 72
    endloop
  endfacet
  facet normal 0 0 1
    outer loop
      vertex -100 30 72
      vertex -101.2 31.2 72
      vertex -100 -30 72
    endloop
  endfacet
  facet normal -0 0 1
    outer loop
      vertex -101.2 31.2 72
      vertex -100 30 72
      vertex 101.2 31.2 72
    endloop
  endfacet
  facet normal -0 0 1
    outer loop
      vertex 100 -30 72
      vertex 101.2 -31.2 72
      vertex 100 30 72
    endloop
  endfacet
  facet normal -0 0 1
    outer loop
      vertex -100 -30 72
      vertex 101.2 -31.2 72
      vertex 100 -30 72
    endloop
  endfacet
  facet normal 0 0 1
    outer loop
      vertex -100 -30 72
      vertex -101.2 -31.2 72
      vertex 101.2 -31.2 72
    endloop
  endfacet
  facet normal 0 0 1
    outer loop
      vertex -101.2 -31.2 72
      vertex -100 -30 72
      vertex -101.2 31.2 72
    endloop
  endfacet
  facet normal -0 0 1
    outer loop
      vertex -100 30 2
      vertex 100 -30 2
      vertex 100 30 2
    endloop
  endfacet
  facet normal 0 0 1
    outer loop
      vertex 100 -30 2
      vertex -100 30 2
      vertex -100 -30 2
    endloop
  endfacet
  facet normal -1 0 0
    outer loop
      vertex 100 -30 2
      vertex 100 30 72
      vertex 100 30 2
    endloop
  endfacet
  facet normal -1 -0 0
    outer loop
      vertex 100 30 72
      vertex 100 -30 2
      vertex 100 -30 72
    endloop
  endfacet
  facet normal 1 -0 0
    outer loop
      vertex -100 -30 72
      vertex -100 30 2
      vertex -100 30 72
    endloop
  endfacet
  facet normal 1 0 0
    outer loop
      vertex -100 30 2
      vertex -100 -30 72
      vertex -100 -30 2
    endloop
  endfacet
  facet normal 0 1 -0
    outer loop
      vertex 100 -30 2
      vertex -100 -30 72
      vertex 100 -30 72
    endloop
  endfacet
  facet normal 0 1 0
    outer loop
      vertex -100 -30 72
      vertex 100 -30 2
      vertex -100 -30 2
    endloop
  endfacet
  facet normal 0 -1 0
    outer loop
      vertex -100 30 2
      vertex 100 30 72
      vertex -100 30 72
    endloop
  endfacet
  facet normal 0 -1 -0
    outer loop
      vertex 100 30 72
      vertex -100 30 2
      vertex 100 30 2
    endloop
  endfacet
  facet normal 0 0 -1
    outer loop
      vertex -116.2 53.8 0
      vertex 116.2 106.2 0
      vertex 116.2 53.8 0
    endloop
  endfacet
  facet normal -0 0 -1
    outer loop
      vertex 116.2 106.2 0
      vertex -116.2 53.8 0
      vertex -116.2 106.2 0
    endloop
  endfacet
  facet normal 1 -0 0
    outer loop
      vertex 116.2 53.8 122
      vertex 116.2 106.2 0
      vertex 116.2 106.2 122
    endloop
  endfacet
  facet normal 1 0 0
    outer loop
      vertex 116.2 106.2 0
      vertex 116.2 53.8 122
      vertex 116.2 53.8 0
    endloop
  endfacet
  facet normal -1 0 0
    outer loop
      vertex -116.2 53.8 0
      vertex -116.2 106.2 122
      vertex -116.2 106.2 0
    endloop
  endfacet
  facet normal -1 -0 0
    outer loop
      vertex -116.2 106.2 122
      vertex -116.2 53.8 0
      vertex -116.2 53.8 122
    endloop
  endfacet
  facet normal 0 -1 0
    outer loop
      vertex -116.2 53.8 0
      vertex 116.2 53.8 122
      vertex -116.2 53.8 122
    endloop
  endfacet
  facet normal 0 -1 -0
    outer loop
      vertex 116.2 53.8 122
      vertex -116.2 53.8 0
      vertex 116.2 53.8 0
    endloop
  endfacet
  facet normal 0 1 -0
    outer loop
      vertex 116.2 106.2 0
      vertex -116.2 106.2 122
      vertex 116.2 106.2 122
    endloop
  endfacet
  facet normal 0 1 0
    outer loop
      vertex -116.2 106.2 122
      vertex 116.2 106.2 0
      vertex -116.2 106.2 0
    endloop
  endfacet
  facet normal 0 0 1
    outer loop
      vertex 116.2 106.2 122
      vertex 115 105 122
      vertex 116.2 53.8 122
    endloop
  endfacet
  facet normal 0 0 1
    outer loop
      vertex 116.2 106.2 122
      vertex -115 105 122
      vertex 115 105 122
    endloop
  endfacet
  facet normal 0 0 1
    outer loop
      vertex -115 105 122
      vertex -116.2 106.2 122
      vertex -115 55 122
    endloop
  endfacet
  facet normal -0 0 1
    outer loop
      vertex -116.2 106.2 122
      vertex -115 105 122
      vertex 116.2 106.2 122
    endloop
  endfacet
  facet normal -0 0 1
    outer loop
      vertex 115 55 122
      vertex 116.2 53.8 122
      vertex 115 105 122
    endloop
  endfacet
  facet normal -0 0 1
    outer loop
      vertex -115 55 122
      vertex 116.2 53.8 122
      vertex 115 55 122
    endloop
  endfacet
  facet normal 0 0 1
    outer loop
      vertex -115 55 122
      vertex -116.2 53.8 122
      vertex 116.2 53.8 122
    endloop
  endfacet
  facet normal 0 0 1
    outer loop
      vertex -116.2 53.8 122
      vertex -115 55 122
      vertex -116.2 106.2 122
    endloop
  endfacet
  facet normal -0 0 1
    outer loop
      vertex -115 105 2
      vertex 115 55 2
      vertex 115 105 2
    endloop
  endfacet
  facet normal 0 0 1
    outer loop
      vertex 115 55 2
      vertex -115 105 2
      vertex -115 55 2
    endloop
  endfacet
  facet normal -1 0 0
    outer loop
      vertex 115 55 2
      vertex 115 105 122
      vertex 115 105 2
    endloop
  endfacet
  facet normal -1 -0 0
    outer loop
      vertex 115 105 122
      vertex 115 55 2
      vertex 115 55 122
    endloop
  endfacet
  facet normal 1 -0 0
    outer loop
      vertex -115 55 122
      vertex -115 105 2
      vertex -115 105 122
    endloop
  endfacet
  facet normal 1 0 0
    outer loop
      vertex -115 105 2
      vertex -115 55 122
      vertex -115 55 2
    endloop
  endfacet
  facet normal 0 1 -0
    outer loop
      vertex 115 55 2
      vertex -115 55 122
      vertex 115 55 122
    endloop
  endfacet
  facet normal 0 1 0
    outer loop
      vertex -115 55 122
      vertex 115 55 2
      vertex -115 55 2
    endloop
  endfacet
  facet normal 0 -1 0
    outer loop
      vertex -115 105 2
      vertex 115 105 122
      vertex -115 105 122
    endloop
  endfacet
  facet normal 0 -1 -0
    outer loop
      vertex 115 105 122
      vertex -115 105 2
      vertex 115 105 2
    endloop
  endfacet
endsolid OpenSCAD_Model
